<?xml version="1.0" encoding="utf-8" standalone="no"?>
<!DOCTYPE svg PUBLIC "-//W3C//DTD SVG 1.1//EN"
  "http://www.w3.org/Graphics/SVG/1.1/DTD/svg11.dtd">
<!-- Created with matplotlib (http://matplotlib.org/) -->
<svg height="279.154063pt" version="1.1" viewBox="0 0 335.305469 279.154063" width="335.305469pt" xmlns="http://www.w3.org/2000/svg" xmlns:xlink="http://www.w3.org/1999/xlink">
 <defs>
  <style type="text/css">
*{stroke-linecap:butt;stroke-linejoin:round;}
  </style>
 </defs>
 <g id="figure_1">
  <g id="patch_1">
   <path d="M 0 279.154063 
L 335.305469 279.154063 
L 335.305469 0 
L 0 0 
z
" style="fill:#ffffff;"/>
  </g>
  <g id="axes_1">
   <g id="patch_2">
    <path d="M 43.78125 244.078125 
L 322.78125 244.078125 
L 322.78125 22.318125 
L 43.78125 22.318125 
z
" style="fill:#ffffff;"/>
   </g>
   <g id="PathCollection_1">
    <defs>
     <path d="M 0 1.224745 
C 0.324806 1.224745 0.636353 1.095698 0.866025 0.866025 
C 1.095698 0.636353 1.224745 0.324806 1.224745 0 
C 1.224745 -0.324806 1.095698 -0.636353 0.866025 -0.866025 
C 0.636353 -1.095698 0.324806 -1.224745 0 -1.224745 
C -0.324806 -1.224745 -0.636353 -1.095698 -0.866025 -0.866025 
C -1.095698 -0.636353 -1.224745 -0.324806 -1.224745 0 
C -1.224745 0.324806 -1.095698 0.636353 -0.866025 0.866025 
C -0.636353 1.095698 -0.324806 1.224745 0 1.224745 
z
" id="md177bcda15"/>
    </defs>
    <g clip-path="url(#p4ba2e69e8c)">
     <use style="fill:#1f78b4;fill-opacity:0.6;" x="65.467895" xlink:href="#md177bcda15" y="64.933613"/>
     <use style="fill:#1f78b4;fill-opacity:0.6;" x="71.737354" xlink:href="#md177bcda15" y="57.983118"/>
     <use style="fill:#1f78b4;fill-opacity:0.6;" x="69.446542" xlink:href="#md177bcda15" y="64.188723"/>
     <use style="fill:#1f78b4;fill-opacity:0.6;" x="57.86831" xlink:href="#md177bcda15" y="64.663868"/>
     <use style="fill:#1f78b4;fill-opacity:0.6;" x="60.205623" xlink:href="#md177bcda15" y="63.362065"/>
     <use style="fill:#1f78b4;fill-opacity:0.6;" x="59.234324" xlink:href="#md177bcda15" y="72.363063"/>
     <use style="fill:#1f78b4;fill-opacity:0.6;" x="63.869605" xlink:href="#md177bcda15" y="82.704252"/>
     <use style="fill:#1f78b4;fill-opacity:0.6;" x="67.528341" xlink:href="#md177bcda15" y="66.21835"/>
     <use style="fill:#1f78b4;fill-opacity:0.6;" x="60.672121" xlink:href="#md177bcda15" y="61.554294"/>
     <use style="fill:#1f78b4;fill-opacity:0.6;" x="60.319345" xlink:href="#md177bcda15" y="99.608229"/>
     <use style="fill:#1f78b4;fill-opacity:0.6;" x="61.609347" xlink:href="#md177bcda15" y="72.906668"/>
     <use style="fill:#1f78b4;fill-opacity:0.6;" x="65.871545" xlink:href="#md177bcda15" y="68.566582"/>
     <use style="fill:#1f78b4;fill-opacity:0.6;" x="62.058018" xlink:href="#md177bcda15" y="68.106909"/>
     <use style="fill:#1f78b4;fill-opacity:0.6;" x="65.850567" xlink:href="#md177bcda15" y="74.10102"/>
     <use style="fill:#1f78b4;fill-opacity:0.6;" x="63.482665" xlink:href="#md177bcda15" y="56.977398"/>
     <use style="fill:#1f78b4;fill-opacity:0.6;" x="58.726296" xlink:href="#md177bcda15" y="59.655818"/>
     <use style="fill:#1f78b4;fill-opacity:0.6;" x="58.014105" xlink:href="#md177bcda15" y="49.174717"/>
     <use style="fill:#1f78b4;fill-opacity:0.6;" x="59.219254" xlink:href="#md177bcda15" y="77.307464"/>
     <use style="fill:#1f78b4;fill-opacity:0.6;" x="58.335278" xlink:href="#md177bcda15" y="68.217418"/>
     <use style="fill:#1f78b4;fill-opacity:0.6;" x="63.859005" xlink:href="#md177bcda15" y="56.376234"/>
     <use style="fill:#1f78b4;fill-opacity:0.6;" x="65.439181" xlink:href="#md177bcda15" y="114.265648"/>
     <use style="fill:#1f78b4;fill-opacity:0.6;" x="64.132056" xlink:href="#md177bcda15" y="68.971934"/>
     <use style="fill:#1f78b4;fill-opacity:0.6;" x="57.287231" xlink:href="#md177bcda15" y="37.541194"/>
     <use style="fill:#1f78b4;fill-opacity:0.6;" x="58.115181" xlink:href="#md177bcda15" y="68.535536"/>
     <use style="fill:#1f78b4;fill-opacity:0.6;" x="63.740445" xlink:href="#md177bcda15" y="42.925269"/>
     <use style="fill:#1f78b4;fill-opacity:0.6;" x="61.027584" xlink:href="#md177bcda15" y="62.153277"/>
     <use style="fill:#1f78b4;fill-opacity:0.6;" x="67.785713" xlink:href="#md177bcda15" y="80.628518"/>
     <use style="fill:#1f78b4;fill-opacity:0.6;" x="69.093043" xlink:href="#md177bcda15" y="58.528263"/>
     <use style="fill:#1f78b4;fill-opacity:0.6;" x="64.520074" xlink:href="#md177bcda15" y="81.321401"/>
     <use style="fill:#1f78b4;fill-opacity:0.6;" x="62.369209" xlink:href="#md177bcda15" y="47.425001"/>
     <use style="fill:#1f78b4;fill-opacity:0.6;" x="59.965274" xlink:href="#md177bcda15" y="78.885026"/>
     <use style="fill:#1f78b4;fill-opacity:0.6;" x="60.042576" xlink:href="#md177bcda15" y="54.2535"/>
     <use style="fill:#1f78b4;fill-opacity:0.6;" x="59.668945" xlink:href="#md177bcda15" y="65.641086"/>
     <use style="fill:#1f78b4;fill-opacity:0.6;" x="61.5897" xlink:href="#md177bcda15" y="44.819465"/>
     <use style="fill:#1f78b4;fill-opacity:0.6;" x="66.585935" xlink:href="#md177bcda15" y="60.162133"/>
     <use style="fill:#1f78b4;fill-opacity:0.6;" x="57.630745" xlink:href="#md177bcda15" y="53.530075"/>
     <use style="fill:#1f78b4;fill-opacity:0.6;" x="67.048458" xlink:href="#md177bcda15" y="35.871868"/>
     <use style="fill:#1f78b4;fill-opacity:0.6;" x="59.070922" xlink:href="#md177bcda15" y="33.272277"/>
     <use style="fill:#1f78b4;fill-opacity:0.6;" x="57.85264" xlink:href="#md177bcda15" y="57.246249"/>
     <use style="fill:#1f78b4;fill-opacity:0.6;" x="62.27072" xlink:href="#md177bcda15" y="36.878521"/>
     <use style="fill:#1f78b4;fill-opacity:0.6;" x="63.929551" xlink:href="#md177bcda15" y="58.76475"/>
     <use style="fill:#1f78b4;fill-opacity:0.6;" x="60.276716" xlink:href="#md177bcda15" y="61.820534"/>
     <use style="fill:#1f78b4;fill-opacity:0.6;" x="60.443126" xlink:href="#md177bcda15" y="82.037841"/>
     <use style="fill:#1f78b4;fill-opacity:0.6;" x="64.538873" xlink:href="#md177bcda15" y="92.871241"/>
     <use style="fill:#1f78b4;fill-opacity:0.6;" x="62.834715" xlink:href="#md177bcda15" y="68.579873"/>
     <use style="fill:#1f78b4;fill-opacity:0.6;" x="65.700831" xlink:href="#md177bcda15" y="76.080948"/>
     <use style="fill:#1f78b4;fill-opacity:0.6;" x="63.306727" xlink:href="#md177bcda15" y="63.628625"/>
    </g>
   </g>
   <g id="PathCollection_2">
    <defs>
     <path d="M 0 1.224745 
C 0.324806 1.224745 0.636353 1.095698 0.866025 0.866025 
C 1.095698 0.636353 1.224745 0.324806 1.224745 0 
C 1.224745 -0.324806 1.095698 -0.636353 0.866025 -0.866025 
C 0.636353 -1.095698 0.324806 -1.224745 0 -1.224745 
C -0.324806 -1.224745 -0.636353 -1.095698 -0.866025 -0.866025 
C -1.095698 -0.636353 -1.224745 -0.324806 -1.224745 0 
C -1.224745 0.324806 -1.095698 0.636353 -0.866025 0.866025 
C -0.636353 1.095698 -0.324806 1.224745 0 1.224745 
z
" id="md7c86ccd2c"/>
    </defs>
    <g clip-path="url(#p4ba2e69e8c)">
     <use style="fill:#33a02c;fill-opacity:0.6;" x="155.479334" xlink:href="#md7c86ccd2c" y="55.879812"/>
     <use style="fill:#33a02c;fill-opacity:0.6;" x="150.606951" xlink:href="#md7c86ccd2c" y="64.398324"/>
     <use style="fill:#33a02c;fill-opacity:0.6;" x="156.821957" xlink:href="#md7c86ccd2c" y="91.220393"/>
     <use style="fill:#33a02c;fill-opacity:0.6;" x="151.044027" xlink:href="#md7c86ccd2c" y="82.012452"/>
     <use style="fill:#33a02c;fill-opacity:0.6;" x="151.0692" xlink:href="#md7c86ccd2c" y="54.109972"/>
     <use style="fill:#33a02c;fill-opacity:0.6;" x="156.597521" xlink:href="#md7c86ccd2c" y="65.367501"/>
     <use style="fill:#33a02c;fill-opacity:0.6;" x="166.310007" xlink:href="#md7c86ccd2c" y="104.802679"/>
     <use style="fill:#33a02c;fill-opacity:0.6;" x="152.663128" xlink:href="#md7c86ccd2c" y="92.845749"/>
     <use style="fill:#33a02c;fill-opacity:0.6;" x="159.171772" xlink:href="#md7c86ccd2c" y="136.544962"/>
     <use style="fill:#33a02c;fill-opacity:0.6;" x="152.582601" xlink:href="#md7c86ccd2c" y="173.640977"/>
     <use style="fill:#33a02c;fill-opacity:0.6;" x="155.072442" xlink:href="#md7c86ccd2c" y="102.767511"/>
     <use style="fill:#33a02c;fill-opacity:0.6;" x="148.901483" xlink:href="#md7c86ccd2c" y="95.797549"/>
     <use style="fill:#33a02c;fill-opacity:0.6;" x="159.560185" xlink:href="#md7c86ccd2c" y="98.593337"/>
     <use style="fill:#33a02c;fill-opacity:0.6;" x="149.188232" xlink:href="#md7c86ccd2c" y="110.834646"/>
     <use style="fill:#33a02c;fill-opacity:0.6;" x="156.854291" xlink:href="#md7c86ccd2c" y="79.646757"/>
     <use style="fill:#33a02c;fill-opacity:0.6;" x="154.719328" xlink:href="#md7c86ccd2c" y="89.280791"/>
     <use style="fill:#33a02c;fill-opacity:0.6;" x="150.915345" xlink:href="#md7c86ccd2c" y="70.877096"/>
     <use style="fill:#33a02c;fill-opacity:0.6;" x="161.6385" xlink:href="#md7c86ccd2c" y="64.270326"/>
     <use style="fill:#33a02c;fill-opacity:0.6;" x="149.621982" xlink:href="#md7c86ccd2c" y="63.194117"/>
     <use style="fill:#33a02c;fill-opacity:0.6;" x="156.378532" xlink:href="#md7c86ccd2c" y="76.456916"/>
     <use style="fill:#33a02c;fill-opacity:0.6;" x="151.639249" xlink:href="#md7c86ccd2c" y="110.194817"/>
     <use style="fill:#33a02c;fill-opacity:0.6;" x="152.857371" xlink:href="#md7c86ccd2c" y="82.039034"/>
     <use style="fill:#33a02c;fill-opacity:0.6;" x="155.038378" xlink:href="#md7c86ccd2c" y="39.693536"/>
     <use style="fill:#33a02c;fill-opacity:0.6;" x="156.825152" xlink:href="#md7c86ccd2c" y="87.820836"/>
     <use style="fill:#33a02c;fill-opacity:0.6;" x="155.360595" xlink:href="#md7c86ccd2c" y="65.857456"/>
     <use style="fill:#33a02c;fill-opacity:0.6;" x="155.927807" xlink:href="#md7c86ccd2c" y="65.435837"/>
     <use style="fill:#33a02c;fill-opacity:0.6;" x="152.518544" xlink:href="#md7c86ccd2c" y="79.899864"/>
     <use style="fill:#33a02c;fill-opacity:0.6;" x="154.798297" xlink:href="#md7c86ccd2c" y="88.670849"/>
     <use style="fill:#33a02c;fill-opacity:0.6;" x="161.960599" xlink:href="#md7c86ccd2c" y="86.368047"/>
     <use style="fill:#33a02c;fill-opacity:0.6;" x="154.279318" xlink:href="#md7c86ccd2c" y="76.364608"/>
     <use style="fill:#33a02c;fill-opacity:0.6;" x="160.773242" xlink:href="#md7c86ccd2c" y="97.410307"/>
     <use style="fill:#33a02c;fill-opacity:0.6;" x="149.740849" xlink:href="#md7c86ccd2c" y="61.041934"/>
     <use style="fill:#33a02c;fill-opacity:0.6;" x="152.645838" xlink:href="#md7c86ccd2c" y="95.450213"/>
     <use style="fill:#33a02c;fill-opacity:0.6;" x="149.638368" xlink:href="#md7c86ccd2c" y="76.781669"/>
     <use style="fill:#33a02c;fill-opacity:0.6;" x="154.209462" xlink:href="#md7c86ccd2c" y="76.418155"/>
     <use style="fill:#33a02c;fill-opacity:0.6;" x="156.435482" xlink:href="#md7c86ccd2c" y="92.319399"/>
     <use style="fill:#33a02c;fill-opacity:0.6;" x="151.10497" xlink:href="#md7c86ccd2c" y="62.531844"/>
     <use style="fill:#33a02c;fill-opacity:0.6;" x="146.311998" xlink:href="#md7c86ccd2c" y="66.781182"/>
     <use style="fill:#33a02c;fill-opacity:0.6;" x="154.236552" xlink:href="#md7c86ccd2c" y="67.16203"/>
     <use style="fill:#33a02c;fill-opacity:0.6;" x="158.343199" xlink:href="#md7c86ccd2c" y="42.085114"/>
     <use style="fill:#33a02c;fill-opacity:0.6;" x="152.704446" xlink:href="#md7c86ccd2c" y="75.914765"/>
     <use style="fill:#33a02c;fill-opacity:0.6;" x="154.927784" xlink:href="#md7c86ccd2c" y="71.795956"/>
     <use style="fill:#33a02c;fill-opacity:0.6;" x="150.265472" xlink:href="#md7c86ccd2c" y="102.354269"/>
     <use style="fill:#33a02c;fill-opacity:0.6;" x="158.652175" xlink:href="#md7c86ccd2c" y="77.057696"/>
     <use style="fill:#33a02c;fill-opacity:0.6;" x="153.254709" xlink:href="#md7c86ccd2c" y="80.313682"/>
     <use style="fill:#33a02c;fill-opacity:0.6;" x="156.240409" xlink:href="#md7c86ccd2c" y="158.912921"/>
     <use style="fill:#33a02c;fill-opacity:0.6;" x="157.683288" xlink:href="#md7c86ccd2c" y="89.415708"/>
    </g>
   </g>
   <g id="PathCollection_3">
    <defs>
     <path d="M 0 1.224745 
C 0.324806 1.224745 0.636353 1.095698 0.866025 0.866025 
C 1.095698 0.636353 1.224745 0.324806 1.224745 0 
C 1.224745 -0.324806 1.095698 -0.636353 0.866025 -0.866025 
C 0.636353 -1.095698 0.324806 -1.224745 0 -1.224745 
C -0.324806 -1.224745 -0.636353 -1.095698 -0.866025 -0.866025 
C -1.095698 -0.636353 -1.224745 -0.324806 -1.224745 0 
C -1.224745 0.324806 -1.095698 0.636353 -0.866025 0.866025 
C -0.636353 1.095698 -0.324806 1.224745 0 1.224745 
z
" id="mfbc3af6a01"/>
    </defs>
    <g clip-path="url(#p4ba2e69e8c)">
     <use style="fill:#e31a1c;fill-opacity:0.6;" x="247.259598" xlink:href="#mfbc3af6a01" y="41.807873"/>
     <use style="fill:#e31a1c;fill-opacity:0.6;" x="241.162876" xlink:href="#mfbc3af6a01" y="74.073758"/>
     <use style="fill:#e31a1c;fill-opacity:0.6;" x="244.548806" xlink:href="#mfbc3af6a01" y="118.154954"/>
     <use style="fill:#e31a1c;fill-opacity:0.6;" x="249.51759" xlink:href="#mfbc3af6a01" y="106.759406"/>
     <use style="fill:#e31a1c;fill-opacity:0.6;" x="249.100537" xlink:href="#mfbc3af6a01" y="79.431383"/>
     <use style="fill:#e31a1c;fill-opacity:0.6;" x="250.739626" xlink:href="#mfbc3af6a01" y="99.672592"/>
     <use style="fill:#e31a1c;fill-opacity:0.6;" x="248.41024" xlink:href="#mfbc3af6a01" y="70.375106"/>
     <use style="fill:#e31a1c;fill-opacity:0.6;" x="250.430282" xlink:href="#mfbc3af6a01" y="70.757591"/>
     <use style="fill:#e31a1c;fill-opacity:0.6;" x="247.766559" xlink:href="#mfbc3af6a01" y="90.445189"/>
     <use style="fill:#e31a1c;fill-opacity:0.6;" x="242.506862" xlink:href="#mfbc3af6a01" y="233.120149"/>
     <use style="fill:#e31a1c;fill-opacity:0.6;" x="248.912186" xlink:href="#mfbc3af6a01" y="119.973583"/>
     <use style="fill:#e31a1c;fill-opacity:0.6;" x="251.847793" xlink:href="#mfbc3af6a01" y="110.27117"/>
     <use style="fill:#e31a1c;fill-opacity:0.6;" x="252.22258" xlink:href="#mfbc3af6a01" y="109.68519"/>
     <use style="fill:#e31a1c;fill-opacity:0.6;" x="249.657082" xlink:href="#mfbc3af6a01" y="122.443687"/>
     <use style="fill:#e31a1c;fill-opacity:0.6;" x="247.602033" xlink:href="#mfbc3af6a01" y="63.625489"/>
     <use style="fill:#e31a1c;fill-opacity:0.6;" x="253.556759" xlink:href="#mfbc3af6a01" y="66.944792"/>
     <use style="fill:#e31a1c;fill-opacity:0.6;" x="239.381013" xlink:href="#mfbc3af6a01" y="72.353677"/>
     <use style="fill:#e31a1c;fill-opacity:0.6;" x="258.231177" xlink:href="#mfbc3af6a01" y="67.806465"/>
     <use style="fill:#e31a1c;fill-opacity:0.6;" x="246.422719" xlink:href="#mfbc3af6a01" y="100.446887"/>
     <use style="fill:#e31a1c;fill-opacity:0.6;" x="244.356519" xlink:href="#mfbc3af6a01" y="92.001767"/>
     <use style="fill:#e31a1c;fill-opacity:0.6;" x="246.200275" xlink:href="#mfbc3af6a01" y="116.680723"/>
     <use style="fill:#e31a1c;fill-opacity:0.6;" x="243.419312" xlink:href="#mfbc3af6a01" y="100.017115"/>
     <use style="fill:#e31a1c;fill-opacity:0.6;" x="250.748516" xlink:href="#mfbc3af6a01" y="43.349174"/>
     <use style="fill:#e31a1c;fill-opacity:0.6;" x="248.781892" xlink:href="#mfbc3af6a01" y="92.324353"/>
     <use style="fill:#e31a1c;fill-opacity:0.6;" x="249.906277" xlink:href="#mfbc3af6a01" y="73.759962"/>
     <use style="fill:#e31a1c;fill-opacity:0.6;" x="238.966551" xlink:href="#mfbc3af6a01" y="65.903055"/>
     <use style="fill:#e31a1c;fill-opacity:0.6;" x="248.435188" xlink:href="#mfbc3af6a01" y="96.696827"/>
     <use style="fill:#e31a1c;fill-opacity:0.6;" x="252.218008" xlink:href="#mfbc3af6a01" y="78.314564"/>
     <use style="fill:#e31a1c;fill-opacity:0.6;" x="246.95747" xlink:href="#mfbc3af6a01" y="87.676159"/>
     <use style="fill:#e31a1c;fill-opacity:0.6;" x="254.41363" xlink:href="#mfbc3af6a01" y="67.222641"/>
     <use style="fill:#e31a1c;fill-opacity:0.6;" x="244.518582" xlink:href="#mfbc3af6a01" y="72.039422"/>
     <use style="fill:#e31a1c;fill-opacity:0.6;" x="247.328438" xlink:href="#mfbc3af6a01" y="75.094903"/>
     <use style="fill:#e31a1c;fill-opacity:0.6;" x="251.753867" xlink:href="#mfbc3af6a01" y="72.059833"/>
     <use style="fill:#e31a1c;fill-opacity:0.6;" x="248.13363" xlink:href="#mfbc3af6a01" y="84.654935"/>
     <use style="fill:#e31a1c;fill-opacity:0.6;" x="248.763665" xlink:href="#mfbc3af6a01" y="75.522789"/>
     <use style="fill:#e31a1c;fill-opacity:0.6;" x="247.89403" xlink:href="#mfbc3af6a01" y="66.461242"/>
     <use style="fill:#e31a1c;fill-opacity:0.6;" x="244.786628" xlink:href="#mfbc3af6a01" y="79.592912"/>
     <use style="fill:#e31a1c;fill-opacity:0.6;" x="251.372289" xlink:href="#mfbc3af6a01" y="49.82232"/>
     <use style="fill:#e31a1c;fill-opacity:0.6;" x="251.281589" xlink:href="#mfbc3af6a01" y="80.033042"/>
     <use style="fill:#e31a1c;fill-opacity:0.6;" x="246.186569" xlink:href="#mfbc3af6a01" y="70.969102"/>
     <use style="fill:#e31a1c;fill-opacity:0.6;" x="254.558121" xlink:href="#mfbc3af6a01" y="75.368959"/>
     <use style="fill:#e31a1c;fill-opacity:0.6;" x="250.656662" xlink:href="#mfbc3af6a01" y="108.967486"/>
     <use style="fill:#e31a1c;fill-opacity:0.6;" x="249.345827" xlink:href="#mfbc3af6a01" y="126.565161"/>
     <use style="fill:#e31a1c;fill-opacity:0.6;" x="249.411587" xlink:href="#mfbc3af6a01" y="76.634315"/>
     <use style="fill:#e31a1c;fill-opacity:0.6;" x="244.326128" xlink:href="#mfbc3af6a01" y="62.772603"/>
     <use style="fill:#e31a1c;fill-opacity:0.6;" x="251.119479" xlink:href="#mfbc3af6a01" y="76.108262"/>
     <use style="fill:#e31a1c;fill-opacity:0.6;" x="249.462852" xlink:href="#mfbc3af6a01" y="78.8933"/>
    </g>
   </g>
   <g id="matplotlib.axis_1">
    <g id="xtick_1">
     <g id="line2d_1">
      <defs>
       <path d="M 0 0 
L 0 3.5 
" id="m94c70301fd" style="stroke:#000000;stroke-width:0.8;"/>
      </defs>
      <g>
       <use style="stroke:#000000;stroke-width:0.8;" x="90.28125" xlink:href="#m94c70301fd" y="244.078125"/>
      </g>
     </g>
     <g id="text_1">
      <!-- Validation set -->
      <defs>
       <path d="M 28.609375 0 
L 0.78125 72.90625 
L 11.078125 72.90625 
L 34.1875 11.53125 
L 57.328125 72.90625 
L 67.578125 72.90625 
L 39.796875 0 
z
" id="DejaVuSans-56"/>
       <path d="M 34.28125 27.484375 
Q 23.390625 27.484375 19.1875 25 
Q 14.984375 22.515625 14.984375 16.5 
Q 14.984375 11.71875 18.140625 8.90625 
Q 21.296875 6.109375 26.703125 6.109375 
Q 34.1875 6.109375 38.703125 11.40625 
Q 43.21875 16.703125 43.21875 25.484375 
L 43.21875 27.484375 
z
M 52.203125 31.203125 
L 52.203125 0 
L 43.21875 0 
L 43.21875 8.296875 
Q 40.140625 3.328125 35.546875 0.953125 
Q 30.953125 -1.421875 24.3125 -1.421875 
Q 15.921875 -1.421875 10.953125 3.296875 
Q 6 8.015625 6 15.921875 
Q 6 25.140625 12.171875 29.828125 
Q 18.359375 34.515625 30.609375 34.515625 
L 43.21875 34.515625 
L 43.21875 35.40625 
Q 43.21875 41.609375 39.140625 45 
Q 35.0625 48.390625 27.6875 48.390625 
Q 23 48.390625 18.546875 47.265625 
Q 14.109375 46.140625 10.015625 43.890625 
L 10.015625 52.203125 
Q 14.9375 54.109375 19.578125 55.046875 
Q 24.21875 56 28.609375 56 
Q 40.484375 56 46.34375 49.84375 
Q 52.203125 43.703125 52.203125 31.203125 
z
" id="DejaVuSans-61"/>
       <path d="M 9.421875 75.984375 
L 18.40625 75.984375 
L 18.40625 0 
L 9.421875 0 
z
" id="DejaVuSans-6c"/>
       <path d="M 9.421875 54.6875 
L 18.40625 54.6875 
L 18.40625 0 
L 9.421875 0 
z
M 9.421875 75.984375 
L 18.40625 75.984375 
L 18.40625 64.59375 
L 9.421875 64.59375 
z
" id="DejaVuSans-69"/>
       <path d="M 45.40625 46.390625 
L 45.40625 75.984375 
L 54.390625 75.984375 
L 54.390625 0 
L 45.40625 0 
L 45.40625 8.203125 
Q 42.578125 3.328125 38.25 0.953125 
Q 33.9375 -1.421875 27.875 -1.421875 
Q 17.96875 -1.421875 11.734375 6.484375 
Q 5.515625 14.40625 5.515625 27.296875 
Q 5.515625 40.1875 11.734375 48.09375 
Q 17.96875 56 27.875 56 
Q 33.9375 56 38.25 53.625 
Q 42.578125 51.265625 45.40625 46.390625 
z
M 14.796875 27.296875 
Q 14.796875 17.390625 18.875 11.75 
Q 22.953125 6.109375 30.078125 6.109375 
Q 37.203125 6.109375 41.296875 11.75 
Q 45.40625 17.390625 45.40625 27.296875 
Q 45.40625 37.203125 41.296875 42.84375 
Q 37.203125 48.484375 30.078125 48.484375 
Q 22.953125 48.484375 18.875 42.84375 
Q 14.796875 37.203125 14.796875 27.296875 
z
" id="DejaVuSans-64"/>
       <path d="M 18.3125 70.21875 
L 18.3125 54.6875 
L 36.8125 54.6875 
L 36.8125 47.703125 
L 18.3125 47.703125 
L 18.3125 18.015625 
Q 18.3125 11.328125 20.140625 9.421875 
Q 21.96875 7.515625 27.59375 7.515625 
L 36.8125 7.515625 
L 36.8125 0 
L 27.59375 0 
Q 17.1875 0 13.234375 3.875 
Q 9.28125 7.765625 9.28125 18.015625 
L 9.28125 47.703125 
L 2.6875 47.703125 
L 2.6875 54.6875 
L 9.28125 54.6875 
L 9.28125 70.21875 
z
" id="DejaVuSans-74"/>
       <path d="M 30.609375 48.390625 
Q 23.390625 48.390625 19.1875 42.75 
Q 14.984375 37.109375 14.984375 27.296875 
Q 14.984375 17.484375 19.15625 11.84375 
Q 23.34375 6.203125 30.609375 6.203125 
Q 37.796875 6.203125 41.984375 11.859375 
Q 46.1875 17.53125 46.1875 27.296875 
Q 46.1875 37.015625 41.984375 42.703125 
Q 37.796875 48.390625 30.609375 48.390625 
z
M 30.609375 56 
Q 42.328125 56 49.015625 48.375 
Q 55.71875 40.765625 55.71875 27.296875 
Q 55.71875 13.875 49.015625 6.21875 
Q 42.328125 -1.421875 30.609375 -1.421875 
Q 18.84375 -1.421875 12.171875 6.21875 
Q 5.515625 13.875 5.515625 27.296875 
Q 5.515625 40.765625 12.171875 48.375 
Q 18.84375 56 30.609375 56 
z
" id="DejaVuSans-6f"/>
       <path d="M 54.890625 33.015625 
L 54.890625 0 
L 45.90625 0 
L 45.90625 32.71875 
Q 45.90625 40.484375 42.875 44.328125 
Q 39.84375 48.1875 33.796875 48.1875 
Q 26.515625 48.1875 22.3125 43.546875 
Q 18.109375 38.921875 18.109375 30.90625 
L 18.109375 0 
L 9.078125 0 
L 9.078125 54.6875 
L 18.109375 54.6875 
L 18.109375 46.1875 
Q 21.34375 51.125 25.703125 53.5625 
Q 30.078125 56 35.796875 56 
Q 45.21875 56 50.046875 50.171875 
Q 54.890625 44.34375 54.890625 33.015625 
z
" id="DejaVuSans-6e"/>
       <path id="DejaVuSans-20"/>
       <path d="M 44.28125 53.078125 
L 44.28125 44.578125 
Q 40.484375 46.53125 36.375 47.5 
Q 32.28125 48.484375 27.875 48.484375 
Q 21.1875 48.484375 17.84375 46.4375 
Q 14.5 44.390625 14.5 40.28125 
Q 14.5 37.15625 16.890625 35.375 
Q 19.28125 33.59375 26.515625 31.984375 
L 29.59375 31.296875 
Q 39.15625 29.25 43.1875 25.515625 
Q 47.21875 21.78125 47.21875 15.09375 
Q 47.21875 7.46875 41.1875 3.015625 
Q 35.15625 -1.421875 24.609375 -1.421875 
Q 20.21875 -1.421875 15.453125 -0.5625 
Q 10.6875 0.296875 5.421875 2 
L 5.421875 11.28125 
Q 10.40625 8.6875 15.234375 7.390625 
Q 20.0625 6.109375 24.8125 6.109375 
Q 31.15625 6.109375 34.5625 8.28125 
Q 37.984375 10.453125 37.984375 14.40625 
Q 37.984375 18.0625 35.515625 20.015625 
Q 33.0625 21.96875 24.703125 23.78125 
L 21.578125 24.515625 
Q 13.234375 26.265625 9.515625 29.90625 
Q 5.8125 33.546875 5.8125 39.890625 
Q 5.8125 47.609375 11.28125 51.796875 
Q 16.75 56 26.8125 56 
Q 31.78125 56 36.171875 55.265625 
Q 40.578125 54.546875 44.28125 53.078125 
z
" id="DejaVuSans-73"/>
       <path d="M 56.203125 29.59375 
L 56.203125 25.203125 
L 14.890625 25.203125 
Q 15.484375 15.921875 20.484375 11.0625 
Q 25.484375 6.203125 34.421875 6.203125 
Q 39.59375 6.203125 44.453125 7.46875 
Q 49.3125 8.734375 54.109375 11.28125 
L 54.109375 2.78125 
Q 49.265625 0.734375 44.1875 -0.34375 
Q 39.109375 -1.421875 33.890625 -1.421875 
Q 20.796875 -1.421875 13.15625 6.1875 
Q 5.515625 13.8125 5.515625 26.8125 
Q 5.515625 40.234375 12.765625 48.109375 
Q 20.015625 56 32.328125 56 
Q 43.359375 56 49.78125 48.890625 
Q 56.203125 41.796875 56.203125 29.59375 
z
M 47.21875 32.234375 
Q 47.125 39.59375 43.09375 43.984375 
Q 39.0625 48.390625 32.421875 48.390625 
Q 24.90625 48.390625 20.390625 44.140625 
Q 15.875 39.890625 15.1875 32.171875 
z
" id="DejaVuSans-65"/>
      </defs>
      <g transform="translate(55.978125 258.676562)scale(0.1 -0.1)">
       <use xlink:href="#DejaVuSans-56"/>
       <use x="68.298828" xlink:href="#DejaVuSans-61"/>
       <use x="129.578125" xlink:href="#DejaVuSans-6c"/>
       <use x="157.361328" xlink:href="#DejaVuSans-69"/>
       <use x="185.144531" xlink:href="#DejaVuSans-64"/>
       <use x="248.621094" xlink:href="#DejaVuSans-61"/>
       <use x="309.900391" xlink:href="#DejaVuSans-74"/>
       <use x="349.109375" xlink:href="#DejaVuSans-69"/>
       <use x="376.892578" xlink:href="#DejaVuSans-6f"/>
       <use x="438.074219" xlink:href="#DejaVuSans-6e"/>
       <use x="501.453125" xlink:href="#DejaVuSans-20"/>
       <use x="533.240234" xlink:href="#DejaVuSans-73"/>
       <use x="585.339844" xlink:href="#DejaVuSans-65"/>
       <use x="646.863281" xlink:href="#DejaVuSans-74"/>
      </g>
     </g>
    </g>
    <g id="xtick_2">
     <g id="line2d_2">
      <g>
       <use style="stroke:#000000;stroke-width:0.8;" x="183.28125" xlink:href="#m94c70301fd" y="244.078125"/>
      </g>
     </g>
     <g id="text_2">
      <!-- Test set -->
      <defs>
       <path d="M -0.296875 72.90625 
L 61.375 72.90625 
L 61.375 64.59375 
L 35.5 64.59375 
L 35.5 0 
L 25.59375 0 
L 25.59375 64.59375 
L -0.296875 64.59375 
z
" id="DejaVuSans-54"/>
      </defs>
      <g transform="translate(163.36875 258.676562)scale(0.1 -0.1)">
       <use xlink:href="#DejaVuSans-54"/>
       <use x="60.818359" xlink:href="#DejaVuSans-65"/>
       <use x="122.341797" xlink:href="#DejaVuSans-73"/>
       <use x="174.441406" xlink:href="#DejaVuSans-74"/>
       <use x="213.650391" xlink:href="#DejaVuSans-20"/>
       <use x="245.4375" xlink:href="#DejaVuSans-73"/>
       <use x="297.537109" xlink:href="#DejaVuSans-65"/>
       <use x="359.060547" xlink:href="#DejaVuSans-74"/>
      </g>
     </g>
    </g>
    <g id="xtick_3">
     <g id="line2d_3">
      <g>
       <use style="stroke:#000000;stroke-width:0.8;" x="276.28125" xlink:href="#m94c70301fd" y="244.078125"/>
      </g>
     </g>
     <g id="text_3">
      <!-- SAC-SMA + Snow-17 -->
      <defs>
       <path d="M 53.515625 70.515625 
L 53.515625 60.890625 
Q 47.90625 63.578125 42.921875 64.890625 
Q 37.9375 66.21875 33.296875 66.21875 
Q 25.25 66.21875 20.875 63.09375 
Q 16.5 59.96875 16.5 54.203125 
Q 16.5 49.359375 19.40625 46.890625 
Q 22.3125 44.4375 30.421875 42.921875 
L 36.375 41.703125 
Q 47.40625 39.59375 52.65625 34.296875 
Q 57.90625 29 57.90625 20.125 
Q 57.90625 9.515625 50.796875 4.046875 
Q 43.703125 -1.421875 29.984375 -1.421875 
Q 24.8125 -1.421875 18.96875 -0.25 
Q 13.140625 0.921875 6.890625 3.21875 
L 6.890625 13.375 
Q 12.890625 10.015625 18.65625 8.296875 
Q 24.421875 6.59375 29.984375 6.59375 
Q 38.421875 6.59375 43.015625 9.90625 
Q 47.609375 13.234375 47.609375 19.390625 
Q 47.609375 24.75 44.3125 27.78125 
Q 41.015625 30.8125 33.5 32.328125 
L 27.484375 33.5 
Q 16.453125 35.6875 11.515625 40.375 
Q 6.59375 45.0625 6.59375 53.421875 
Q 6.59375 63.09375 13.40625 68.65625 
Q 20.21875 74.21875 32.171875 74.21875 
Q 37.3125 74.21875 42.625 73.28125 
Q 47.953125 72.359375 53.515625 70.515625 
z
" id="DejaVuSans-53"/>
       <path d="M 34.1875 63.1875 
L 20.796875 26.90625 
L 47.609375 26.90625 
z
M 28.609375 72.90625 
L 39.796875 72.90625 
L 67.578125 0 
L 57.328125 0 
L 50.6875 18.703125 
L 17.828125 18.703125 
L 11.1875 0 
L 0.78125 0 
z
" id="DejaVuSans-41"/>
       <path d="M 64.40625 67.28125 
L 64.40625 56.890625 
Q 59.421875 61.53125 53.78125 63.8125 
Q 48.140625 66.109375 41.796875 66.109375 
Q 29.296875 66.109375 22.65625 58.46875 
Q 16.015625 50.828125 16.015625 36.375 
Q 16.015625 21.96875 22.65625 14.328125 
Q 29.296875 6.6875 41.796875 6.6875 
Q 48.140625 6.6875 53.78125 8.984375 
Q 59.421875 11.28125 64.40625 15.921875 
L 64.40625 5.609375 
Q 59.234375 2.09375 53.4375 0.328125 
Q 47.65625 -1.421875 41.21875 -1.421875 
Q 24.65625 -1.421875 15.125 8.703125 
Q 5.609375 18.84375 5.609375 36.375 
Q 5.609375 53.953125 15.125 64.078125 
Q 24.65625 74.21875 41.21875 74.21875 
Q 47.75 74.21875 53.53125 72.484375 
Q 59.328125 70.75 64.40625 67.28125 
z
" id="DejaVuSans-43"/>
       <path d="M 4.890625 31.390625 
L 31.203125 31.390625 
L 31.203125 23.390625 
L 4.890625 23.390625 
z
" id="DejaVuSans-2d"/>
       <path d="M 9.8125 72.90625 
L 24.515625 72.90625 
L 43.109375 23.296875 
L 61.8125 72.90625 
L 76.515625 72.90625 
L 76.515625 0 
L 66.890625 0 
L 66.890625 64.015625 
L 48.09375 14.015625 
L 38.1875 14.015625 
L 19.390625 64.015625 
L 19.390625 0 
L 9.8125 0 
z
" id="DejaVuSans-4d"/>
       <path d="M 46 62.703125 
L 46 35.5 
L 73.1875 35.5 
L 73.1875 27.203125 
L 46 27.203125 
L 46 0 
L 37.796875 0 
L 37.796875 27.203125 
L 10.59375 27.203125 
L 10.59375 35.5 
L 37.796875 35.5 
L 37.796875 62.703125 
z
" id="DejaVuSans-2b"/>
       <path d="M 4.203125 54.6875 
L 13.1875 54.6875 
L 24.421875 12.015625 
L 35.59375 54.6875 
L 46.1875 54.6875 
L 57.421875 12.015625 
L 68.609375 54.6875 
L 77.59375 54.6875 
L 63.28125 0 
L 52.6875 0 
L 40.921875 44.828125 
L 29.109375 0 
L 18.5 0 
z
" id="DejaVuSans-77"/>
       <path d="M 12.40625 8.296875 
L 28.515625 8.296875 
L 28.515625 63.921875 
L 10.984375 60.40625 
L 10.984375 69.390625 
L 28.421875 72.90625 
L 38.28125 72.90625 
L 38.28125 8.296875 
L 54.390625 8.296875 
L 54.390625 0 
L 12.40625 0 
z
" id="DejaVuSans-31"/>
       <path d="M 8.203125 72.90625 
L 55.078125 72.90625 
L 55.078125 68.703125 
L 28.609375 0 
L 18.3125 0 
L 43.21875 64.59375 
L 8.203125 64.59375 
z
" id="DejaVuSans-37"/>
      </defs>
      <g transform="translate(224.457031 258.676562)scale(0.1 -0.1)">
       <use xlink:href="#DejaVuSans-53"/>
       <use x="63.492188" xlink:href="#DejaVuSans-41"/>
       <use x="131.884766" xlink:href="#DejaVuSans-43"/>
       <use x="201.708984" xlink:href="#DejaVuSans-2d"/>
       <use x="237.792969" xlink:href="#DejaVuSans-53"/>
       <use x="301.269531" xlink:href="#DejaVuSans-4d"/>
       <use x="387.548828" xlink:href="#DejaVuSans-41"/>
       <use x="455.957031" xlink:href="#DejaVuSans-20"/>
       <use x="487.744141" xlink:href="#DejaVuSans-2b"/>
       <use x="571.533203" xlink:href="#DejaVuSans-20"/>
       <use x="603.320312" xlink:href="#DejaVuSans-53"/>
       <use x="666.796875" xlink:href="#DejaVuSans-6e"/>
       <use x="730.175781" xlink:href="#DejaVuSans-6f"/>
       <use x="791.357422" xlink:href="#DejaVuSans-77"/>
       <use x="873.144531" xlink:href="#DejaVuSans-2d"/>
       <use x="909.228516" xlink:href="#DejaVuSans-31"/>
       <use x="972.851562" xlink:href="#DejaVuSans-37"/>
      </g>
      <!-- Test(*) -->
      <defs>
       <path d="M 31 75.875 
Q 24.46875 64.65625 21.28125 53.65625 
Q 18.109375 42.671875 18.109375 31.390625 
Q 18.109375 20.125 21.3125 9.0625 
Q 24.515625 -2 31 -13.1875 
L 23.1875 -13.1875 
Q 15.875 -1.703125 12.234375 9.375 
Q 8.59375 20.453125 8.59375 31.390625 
Q 8.59375 42.28125 12.203125 53.3125 
Q 15.828125 64.359375 23.1875 75.875 
z
" id="DejaVuSans-28"/>
       <path d="M 47.015625 60.890625 
L 29.5 51.421875 
L 47.015625 41.890625 
L 44.1875 37.109375 
L 27.78125 47.015625 
L 27.78125 28.609375 
L 22.21875 28.609375 
L 22.21875 47.015625 
L 5.8125 37.109375 
L 2.984375 41.890625 
L 20.515625 51.421875 
L 2.984375 60.890625 
L 5.8125 65.71875 
L 22.21875 55.8125 
L 22.21875 74.21875 
L 27.78125 74.21875 
L 27.78125 55.8125 
L 44.1875 65.71875 
z
" id="DejaVuSans-2a"/>
       <path d="M 8.015625 75.875 
L 15.828125 75.875 
Q 23.140625 64.359375 26.78125 53.3125 
Q 30.421875 42.28125 30.421875 31.390625 
Q 30.421875 20.453125 26.78125 9.375 
Q 23.140625 -1.703125 15.828125 -13.1875 
L 8.015625 -13.1875 
Q 14.5 -2 17.703125 9.0625 
Q 20.90625 20.125 20.90625 31.390625 
Q 20.90625 42.671875 17.703125 53.65625 
Q 14.5 64.65625 8.015625 75.875 
z
" id="DejaVuSans-29"/>
      </defs>
      <g transform="translate(259.197656 269.874375)scale(0.1 -0.1)">
       <use xlink:href="#DejaVuSans-54"/>
       <use x="60.818359" xlink:href="#DejaVuSans-65"/>
       <use x="122.341797" xlink:href="#DejaVuSans-73"/>
       <use x="174.441406" xlink:href="#DejaVuSans-74"/>
       <use x="213.650391" xlink:href="#DejaVuSans-28"/>
       <use x="252.664062" xlink:href="#DejaVuSans-2a"/>
       <use x="302.664062" xlink:href="#DejaVuSans-29"/>
      </g>
     </g>
    </g>
   </g>
   <g id="matplotlib.axis_2">
    <g id="ytick_1">
     <g id="line2d_4">
      <defs>
       <path d="M 0 0 
L -3.5 0 
" id="med414f40a1" style="stroke:#000000;stroke-width:0.8;"/>
      </defs>
      <g>
       <use style="stroke:#000000;stroke-width:0.8;" x="43.78125" xlink:href="#med414f40a1" y="243.105279"/>
      </g>
     </g>
     <g id="text_4">
      <!-- 0.0 -->
      <defs>
       <path d="M 31.78125 66.40625 
Q 24.171875 66.40625 20.328125 58.90625 
Q 16.5 51.421875 16.5 36.375 
Q 16.5 21.390625 20.328125 13.890625 
Q 24.171875 6.390625 31.78125 6.390625 
Q 39.453125 6.390625 43.28125 13.890625 
Q 47.125 21.390625 47.125 36.375 
Q 47.125 51.421875 43.28125 58.90625 
Q 39.453125 66.40625 31.78125 66.40625 
z
M 31.78125 74.21875 
Q 44.046875 74.21875 50.515625 64.515625 
Q 56.984375 54.828125 56.984375 36.375 
Q 56.984375 17.96875 50.515625 8.265625 
Q 44.046875 -1.421875 31.78125 -1.421875 
Q 19.53125 -1.421875 13.0625 8.265625 
Q 6.59375 17.96875 6.59375 36.375 
Q 6.59375 54.828125 13.0625 64.515625 
Q 19.53125 74.21875 31.78125 74.21875 
z
" id="DejaVuSans-30"/>
       <path d="M 10.6875 12.40625 
L 21 12.40625 
L 21 0 
L 10.6875 0 
z
" id="DejaVuSans-2e"/>
      </defs>
      <g transform="translate(20.878125 246.904498)scale(0.1 -0.1)">
       <use xlink:href="#DejaVuSans-30"/>
       <use x="63.623047" xlink:href="#DejaVuSans-2e"/>
       <use x="95.410156" xlink:href="#DejaVuSans-30"/>
      </g>
     </g>
    </g>
    <g id="ytick_2">
     <g id="line2d_5">
      <g>
       <use style="stroke:#000000;stroke-width:0.8;" x="43.78125" xlink:href="#med414f40a1" y="197.082127"/>
      </g>
     </g>
     <g id="text_5">
      <!-- 0.2 -->
      <defs>
       <path d="M 19.1875 8.296875 
L 53.609375 8.296875 
L 53.609375 0 
L 7.328125 0 
L 7.328125 8.296875 
Q 12.9375 14.109375 22.625 23.890625 
Q 32.328125 33.6875 34.8125 36.53125 
Q 39.546875 41.84375 41.421875 45.53125 
Q 43.3125 49.21875 43.3125 52.78125 
Q 43.3125 58.59375 39.234375 62.25 
Q 35.15625 65.921875 28.609375 65.921875 
Q 23.96875 65.921875 18.8125 64.3125 
Q 13.671875 62.703125 7.8125 59.421875 
L 7.8125 69.390625 
Q 13.765625 71.78125 18.9375 73 
Q 24.125 74.21875 28.421875 74.21875 
Q 39.75 74.21875 46.484375 68.546875 
Q 53.21875 62.890625 53.21875 53.421875 
Q 53.21875 48.921875 51.53125 44.890625 
Q 49.859375 40.875 45.40625 35.40625 
Q 44.1875 33.984375 37.640625 27.21875 
Q 31.109375 20.453125 19.1875 8.296875 
z
" id="DejaVuSans-32"/>
      </defs>
      <g transform="translate(20.878125 200.881345)scale(0.1 -0.1)">
       <use xlink:href="#DejaVuSans-30"/>
       <use x="63.623047" xlink:href="#DejaVuSans-2e"/>
       <use x="95.410156" xlink:href="#DejaVuSans-32"/>
      </g>
     </g>
    </g>
    <g id="ytick_3">
     <g id="line2d_6">
      <g>
       <use style="stroke:#000000;stroke-width:0.8;" x="43.78125" xlink:href="#med414f40a1" y="151.058974"/>
      </g>
     </g>
     <g id="text_6">
      <!-- 0.4 -->
      <defs>
       <path d="M 37.796875 64.3125 
L 12.890625 25.390625 
L 37.796875 25.390625 
z
M 35.203125 72.90625 
L 47.609375 72.90625 
L 47.609375 25.390625 
L 58.015625 25.390625 
L 58.015625 17.1875 
L 47.609375 17.1875 
L 47.609375 0 
L 37.796875 0 
L 37.796875 17.1875 
L 4.890625 17.1875 
L 4.890625 26.703125 
z
" id="DejaVuSans-34"/>
      </defs>
      <g transform="translate(20.878125 154.858193)scale(0.1 -0.1)">
       <use xlink:href="#DejaVuSans-30"/>
       <use x="63.623047" xlink:href="#DejaVuSans-2e"/>
       <use x="95.410156" xlink:href="#DejaVuSans-34"/>
      </g>
     </g>
    </g>
    <g id="ytick_4">
     <g id="line2d_7">
      <g>
       <use style="stroke:#000000;stroke-width:0.8;" x="43.78125" xlink:href="#med414f40a1" y="105.035822"/>
      </g>
     </g>
     <g id="text_7">
      <!-- 0.6 -->
      <defs>
       <path d="M 33.015625 40.375 
Q 26.375 40.375 22.484375 35.828125 
Q 18.609375 31.296875 18.609375 23.390625 
Q 18.609375 15.53125 22.484375 10.953125 
Q 26.375 6.390625 33.015625 6.390625 
Q 39.65625 6.390625 43.53125 10.953125 
Q 47.40625 15.53125 47.40625 23.390625 
Q 47.40625 31.296875 43.53125 35.828125 
Q 39.65625 40.375 33.015625 40.375 
z
M 52.59375 71.296875 
L 52.59375 62.3125 
Q 48.875 64.0625 45.09375 64.984375 
Q 41.3125 65.921875 37.59375 65.921875 
Q 27.828125 65.921875 22.671875 59.328125 
Q 17.53125 52.734375 16.796875 39.40625 
Q 19.671875 43.65625 24.015625 45.921875 
Q 28.375 48.1875 33.59375 48.1875 
Q 44.578125 48.1875 50.953125 41.515625 
Q 57.328125 34.859375 57.328125 23.390625 
Q 57.328125 12.15625 50.6875 5.359375 
Q 44.046875 -1.421875 33.015625 -1.421875 
Q 20.359375 -1.421875 13.671875 8.265625 
Q 6.984375 17.96875 6.984375 36.375 
Q 6.984375 53.65625 15.1875 63.9375 
Q 23.390625 74.21875 37.203125 74.21875 
Q 40.921875 74.21875 44.703125 73.484375 
Q 48.484375 72.75 52.59375 71.296875 
z
" id="DejaVuSans-36"/>
      </defs>
      <g transform="translate(20.878125 108.83504)scale(0.1 -0.1)">
       <use xlink:href="#DejaVuSans-30"/>
       <use x="63.623047" xlink:href="#DejaVuSans-2e"/>
       <use x="95.410156" xlink:href="#DejaVuSans-36"/>
      </g>
     </g>
    </g>
    <g id="ytick_5">
     <g id="line2d_8">
      <g>
       <use style="stroke:#000000;stroke-width:0.8;" x="43.78125" xlink:href="#med414f40a1" y="59.012669"/>
      </g>
     </g>
     <g id="text_8">
      <!-- 0.8 -->
      <defs>
       <path d="M 31.78125 34.625 
Q 24.75 34.625 20.71875 30.859375 
Q 16.703125 27.09375 16.703125 20.515625 
Q 16.703125 13.921875 20.71875 10.15625 
Q 24.75 6.390625 31.78125 6.390625 
Q 38.8125 6.390625 42.859375 10.171875 
Q 46.921875 13.96875 46.921875 20.515625 
Q 46.921875 27.09375 42.890625 30.859375 
Q 38.875 34.625 31.78125 34.625 
z
M 21.921875 38.8125 
Q 15.578125 40.375 12.03125 44.71875 
Q 8.5 49.078125 8.5 55.328125 
Q 8.5 64.0625 14.71875 69.140625 
Q 20.953125 74.21875 31.78125 74.21875 
Q 42.671875 74.21875 48.875 69.140625 
Q 55.078125 64.0625 55.078125 55.328125 
Q 55.078125 49.078125 51.53125 44.71875 
Q 48 40.375 41.703125 38.8125 
Q 48.828125 37.15625 52.796875 32.3125 
Q 56.78125 27.484375 56.78125 20.515625 
Q 56.78125 9.90625 50.3125 4.234375 
Q 43.84375 -1.421875 31.78125 -1.421875 
Q 19.734375 -1.421875 13.25 4.234375 
Q 6.78125 9.90625 6.78125 20.515625 
Q 6.78125 27.484375 10.78125 32.3125 
Q 14.796875 37.15625 21.921875 38.8125 
z
M 18.3125 54.390625 
Q 18.3125 48.734375 21.84375 45.5625 
Q 25.390625 42.390625 31.78125 42.390625 
Q 38.140625 42.390625 41.71875 45.5625 
Q 45.3125 48.734375 45.3125 54.390625 
Q 45.3125 60.0625 41.71875 63.234375 
Q 38.140625 66.40625 31.78125 66.40625 
Q 25.390625 66.40625 21.84375 63.234375 
Q 18.3125 60.0625 18.3125 54.390625 
z
" id="DejaVuSans-38"/>
      </defs>
      <g transform="translate(20.878125 62.811888)scale(0.1 -0.1)">
       <use xlink:href="#DejaVuSans-30"/>
       <use x="63.623047" xlink:href="#DejaVuSans-2e"/>
       <use x="95.410156" xlink:href="#DejaVuSans-38"/>
      </g>
     </g>
    </g>
    <g id="text_9">
     <!-- Nash-Sutcliffe efficiency -->
     <defs>
      <path d="M 9.8125 72.90625 
L 23.09375 72.90625 
L 55.421875 11.921875 
L 55.421875 72.90625 
L 64.984375 72.90625 
L 64.984375 0 
L 51.703125 0 
L 19.390625 60.984375 
L 19.390625 0 
L 9.8125 0 
z
" id="DejaVuSans-4e"/>
      <path d="M 54.890625 33.015625 
L 54.890625 0 
L 45.90625 0 
L 45.90625 32.71875 
Q 45.90625 40.484375 42.875 44.328125 
Q 39.84375 48.1875 33.796875 48.1875 
Q 26.515625 48.1875 22.3125 43.546875 
Q 18.109375 38.921875 18.109375 30.90625 
L 18.109375 0 
L 9.078125 0 
L 9.078125 75.984375 
L 18.109375 75.984375 
L 18.109375 46.1875 
Q 21.34375 51.125 25.703125 53.5625 
Q 30.078125 56 35.796875 56 
Q 45.21875 56 50.046875 50.171875 
Q 54.890625 44.34375 54.890625 33.015625 
z
" id="DejaVuSans-68"/>
      <path d="M 8.5 21.578125 
L 8.5 54.6875 
L 17.484375 54.6875 
L 17.484375 21.921875 
Q 17.484375 14.15625 20.5 10.265625 
Q 23.53125 6.390625 29.59375 6.390625 
Q 36.859375 6.390625 41.078125 11.03125 
Q 45.3125 15.671875 45.3125 23.6875 
L 45.3125 54.6875 
L 54.296875 54.6875 
L 54.296875 0 
L 45.3125 0 
L 45.3125 8.40625 
Q 42.046875 3.421875 37.71875 1 
Q 33.40625 -1.421875 27.6875 -1.421875 
Q 18.265625 -1.421875 13.375 4.4375 
Q 8.5 10.296875 8.5 21.578125 
z
M 31.109375 56 
z
" id="DejaVuSans-75"/>
      <path d="M 48.78125 52.59375 
L 48.78125 44.1875 
Q 44.96875 46.296875 41.140625 47.34375 
Q 37.3125 48.390625 33.40625 48.390625 
Q 24.65625 48.390625 19.8125 42.84375 
Q 14.984375 37.3125 14.984375 27.296875 
Q 14.984375 17.28125 19.8125 11.734375 
Q 24.65625 6.203125 33.40625 6.203125 
Q 37.3125 6.203125 41.140625 7.25 
Q 44.96875 8.296875 48.78125 10.40625 
L 48.78125 2.09375 
Q 45.015625 0.34375 40.984375 -0.53125 
Q 36.96875 -1.421875 32.421875 -1.421875 
Q 20.0625 -1.421875 12.78125 6.34375 
Q 5.515625 14.109375 5.515625 27.296875 
Q 5.515625 40.671875 12.859375 48.328125 
Q 20.21875 56 33.015625 56 
Q 37.15625 56 41.109375 55.140625 
Q 45.0625 54.296875 48.78125 52.59375 
z
" id="DejaVuSans-63"/>
      <path d="M 37.109375 75.984375 
L 37.109375 68.5 
L 28.515625 68.5 
Q 23.6875 68.5 21.796875 66.546875 
Q 19.921875 64.59375 19.921875 59.515625 
L 19.921875 54.6875 
L 34.71875 54.6875 
L 34.71875 47.703125 
L 19.921875 47.703125 
L 19.921875 0 
L 10.890625 0 
L 10.890625 47.703125 
L 2.296875 47.703125 
L 2.296875 54.6875 
L 10.890625 54.6875 
L 10.890625 58.5 
Q 10.890625 67.625 15.140625 71.796875 
Q 19.390625 75.984375 28.609375 75.984375 
z
" id="DejaVuSans-66"/>
      <path d="M 32.171875 -5.078125 
Q 28.375 -14.84375 24.75 -17.8125 
Q 21.140625 -20.796875 15.09375 -20.796875 
L 7.90625 -20.796875 
L 7.90625 -13.28125 
L 13.1875 -13.28125 
Q 16.890625 -13.28125 18.9375 -11.515625 
Q 21 -9.765625 23.484375 -3.21875 
L 25.09375 0.875 
L 2.984375 54.6875 
L 12.5 54.6875 
L 29.59375 11.921875 
L 46.6875 54.6875 
L 56.203125 54.6875 
z
" id="DejaVuSans-79"/>
     </defs>
     <g transform="translate(14.798438 193.674688)rotate(-90)scale(0.1 -0.1)">
      <use xlink:href="#DejaVuSans-4e"/>
      <use x="74.804688" xlink:href="#DejaVuSans-61"/>
      <use x="136.083984" xlink:href="#DejaVuSans-73"/>
      <use x="188.183594" xlink:href="#DejaVuSans-68"/>
      <use x="251.5625" xlink:href="#DejaVuSans-2d"/>
      <use x="287.646484" xlink:href="#DejaVuSans-53"/>
      <use x="351.123047" xlink:href="#DejaVuSans-75"/>
      <use x="414.501953" xlink:href="#DejaVuSans-74"/>
      <use x="453.710938" xlink:href="#DejaVuSans-63"/>
      <use x="508.691406" xlink:href="#DejaVuSans-6c"/>
      <use x="536.474609" xlink:href="#DejaVuSans-69"/>
      <use x="564.257812" xlink:href="#DejaVuSans-66"/>
      <use x="599.462891" xlink:href="#DejaVuSans-66"/>
      <use x="634.667969" xlink:href="#DejaVuSans-65"/>
      <use x="696.191406" xlink:href="#DejaVuSans-20"/>
      <use x="727.978516" xlink:href="#DejaVuSans-65"/>
      <use x="789.501953" xlink:href="#DejaVuSans-66"/>
      <use x="824.707031" xlink:href="#DejaVuSans-66"/>
      <use x="859.912109" xlink:href="#DejaVuSans-69"/>
      <use x="887.695312" xlink:href="#DejaVuSans-63"/>
      <use x="942.675781" xlink:href="#DejaVuSans-69"/>
      <use x="970.458984" xlink:href="#DejaVuSans-65"/>
      <use x="1031.982422" xlink:href="#DejaVuSans-6e"/>
      <use x="1095.361328" xlink:href="#DejaVuSans-63"/>
      <use x="1150.341797" xlink:href="#DejaVuSans-79"/>
     </g>
    </g>
   </g>
   <g id="line2d_9">
    <path clip-path="url(#p4ba2e69e8c)" d="M 90.28125 72.634865 
L 90.28125 82.704252 
" style="fill:none;stroke:#000000;stroke-linecap:square;stroke-width:0.5;"/>
   </g>
   <g id="line2d_10">
    <path clip-path="url(#p4ba2e69e8c)" d="M 90.28125 57.111824 
L 90.28125 37.541194 
" style="fill:none;stroke:#000000;stroke-linecap:square;stroke-width:0.5;"/>
   </g>
   <g id="line2d_11">
    <path clip-path="url(#p4ba2e69e8c)" d="M 83.30625 82.704252 
L 97.25625 82.704252 
" style="fill:none;stroke:#000000;stroke-linecap:square;stroke-width:0.5;"/>
   </g>
   <g id="line2d_12">
    <path clip-path="url(#p4ba2e69e8c)" d="M 83.30625 37.541194 
L 97.25625 37.541194 
" style="fill:none;stroke:#000000;stroke-linecap:square;stroke-width:0.5;"/>
   </g>
   <g id="line2d_13">
    <defs>
     <path d="M -1.5 0 
L 1.5 0 
M 0 1.5 
L 0 -1.5 
" id="mab0870e631" style="stroke:#000000;stroke-width:0.5;"/>
    </defs>
    <g clip-path="url(#p4ba2e69e8c)">
     <use style="opacity:0.3;stroke:#000000;stroke-width:0.5;" x="90.28125" xlink:href="#mab0870e631" y="99.608229"/>
     <use style="opacity:0.3;stroke:#000000;stroke-width:0.5;" x="90.28125" xlink:href="#mab0870e631" y="114.265648"/>
     <use style="opacity:0.3;stroke:#000000;stroke-width:0.5;" x="90.28125" xlink:href="#mab0870e631" y="92.871241"/>
     <use style="opacity:0.3;stroke:#000000;stroke-width:0.5;" x="90.28125" xlink:href="#mab0870e631" y="35.871868"/>
     <use style="opacity:0.3;stroke:#000000;stroke-width:0.5;" x="90.28125" xlink:href="#mab0870e631" y="33.272277"/>
     <use style="opacity:0.3;stroke:#000000;stroke-width:0.5;" x="90.28125" xlink:href="#mab0870e631" y="36.878521"/>
    </g>
   </g>
   <g id="line2d_14">
    <path clip-path="url(#p4ba2e69e8c)" d="M 183.28125 94.147981 
L 183.28125 110.834646 
" style="fill:none;stroke:#000000;stroke-linecap:square;stroke-width:0.5;"/>
   </g>
   <g id="line2d_15">
    <path clip-path="url(#p4ba2e69e8c)" d="M 183.28125 66.319319 
L 183.28125 55.879812 
" style="fill:none;stroke:#000000;stroke-linecap:square;stroke-width:0.5;"/>
   </g>
   <g id="line2d_16">
    <path clip-path="url(#p4ba2e69e8c)" d="M 176.30625 110.834646 
L 190.25625 110.834646 
" style="fill:none;stroke:#000000;stroke-linecap:square;stroke-width:0.5;"/>
   </g>
   <g id="line2d_17">
    <path clip-path="url(#p4ba2e69e8c)" d="M 176.30625 55.879812 
L 190.25625 55.879812 
" style="fill:none;stroke:#000000;stroke-linecap:square;stroke-width:0.5;"/>
   </g>
   <g id="line2d_18">
    <g clip-path="url(#p4ba2e69e8c)">
     <use style="opacity:0.3;stroke:#000000;stroke-width:0.5;" x="183.28125" xlink:href="#mab0870e631" y="136.544962"/>
     <use style="opacity:0.3;stroke:#000000;stroke-width:0.5;" x="183.28125" xlink:href="#mab0870e631" y="173.640977"/>
     <use style="opacity:0.3;stroke:#000000;stroke-width:0.5;" x="183.28125" xlink:href="#mab0870e631" y="158.912921"/>
     <use style="opacity:0.3;stroke:#000000;stroke-width:0.5;" x="183.28125" xlink:href="#mab0870e631" y="54.109972"/>
     <use style="opacity:0.3;stroke:#000000;stroke-width:0.5;" x="183.28125" xlink:href="#mab0870e631" y="39.693536"/>
     <use style="opacity:0.3;stroke:#000000;stroke-width:0.5;" x="183.28125" xlink:href="#mab0870e631" y="42.085114"/>
    </g>
   </g>
   <g id="line2d_19">
    <path clip-path="url(#p4ba2e69e8c)" d="M 276.28125 99.844853 
L 276.28125 119.973583 
" style="fill:none;stroke:#000000;stroke-linecap:square;stroke-width:0.5;"/>
   </g>
   <g id="line2d_20">
    <path clip-path="url(#p4ba2e69e8c)" d="M 276.28125 70.863346 
L 276.28125 62.772603 
" style="fill:none;stroke:#000000;stroke-linecap:square;stroke-width:0.5;"/>
   </g>
   <g id="line2d_21">
    <path clip-path="url(#p4ba2e69e8c)" d="M 269.30625 119.973583 
L 283.25625 119.973583 
" style="fill:none;stroke:#000000;stroke-linecap:square;stroke-width:0.5;"/>
   </g>
   <g id="line2d_22">
    <path clip-path="url(#p4ba2e69e8c)" d="M 269.30625 62.772603 
L 283.25625 62.772603 
" style="fill:none;stroke:#000000;stroke-linecap:square;stroke-width:0.5;"/>
   </g>
   <g id="line2d_23">
    <g clip-path="url(#p4ba2e69e8c)">
     <use style="opacity:0.3;stroke:#000000;stroke-width:0.5;" x="276.28125" xlink:href="#mab0870e631" y="233.120149"/>
     <use style="opacity:0.3;stroke:#000000;stroke-width:0.5;" x="276.28125" xlink:href="#mab0870e631" y="122.443687"/>
     <use style="opacity:0.3;stroke:#000000;stroke-width:0.5;" x="276.28125" xlink:href="#mab0870e631" y="126.565161"/>
     <use style="opacity:0.3;stroke:#000000;stroke-width:0.5;" x="276.28125" xlink:href="#mab0870e631" y="41.807873"/>
     <use style="opacity:0.3;stroke:#000000;stroke-width:0.5;" x="276.28125" xlink:href="#mab0870e631" y="43.349174"/>
     <use style="opacity:0.3;stroke:#000000;stroke-width:0.5;" x="276.28125" xlink:href="#mab0870e631" y="49.82232"/>
    </g>
   </g>
   <g id="patch_3">
    <path clip-path="url(#p4ba2e69e8c)" d="M 76.33125 72.634865 
L 104.23125 72.634865 
L 104.23125 57.111824 
L 76.33125 57.111824 
L 76.33125 72.634865 
z
" style="fill:#1f78b4;opacity:0.2;stroke:#1f78b4;stroke-linejoin:miter;stroke-width:0.5;"/>
   </g>
   <g id="patch_4">
    <path clip-path="url(#p4ba2e69e8c)" d="M 169.33125 94.147981 
L 197.23125 94.147981 
L 197.23125 66.319319 
L 169.33125 66.319319 
L 169.33125 94.147981 
z
" style="fill:#33a02c;opacity:0.2;stroke:#33a02c;stroke-linejoin:miter;stroke-width:0.5;"/>
   </g>
   <g id="patch_5">
    <path clip-path="url(#p4ba2e69e8c)" d="M 262.33125 99.844853 
L 290.23125 99.844853 
L 290.23125 70.863346 
L 262.33125 70.863346 
L 262.33125 99.844853 
z
" style="fill:#e31a1c;opacity:0.2;stroke:#e31a1c;stroke-linejoin:miter;stroke-width:0.5;"/>
   </g>
   <g id="line2d_24">
    <path clip-path="url(#p4ba2e69e8c)" d="M 76.33125 64.188723 
L 104.23125 64.188723 
" style="fill:none;stroke:#1f78b4;stroke-linecap:square;stroke-width:0.5;"/>
   </g>
   <g id="line2d_25">
    <path clip-path="url(#p4ba2e69e8c)" d="M 90.28125 64.587444 
" style="fill:none;stroke:#2ca02c;stroke-dasharray:3.7,1.6;stroke-dashoffset:0;"/>
    <defs>
     <path d="M -0 2.12132 
L 2.12132 0 
L 0 -2.12132 
L -2.12132 -0 
z
" id="m09fb2c8a2a" style="stroke:#000000;stroke-linejoin:miter;stroke-width:0.3;"/>
    </defs>
    <g clip-path="url(#p4ba2e69e8c)">
     <use style="fill:#a6cee3;stroke:#000000;stroke-linejoin:miter;stroke-width:0.3;" x="90.28125" xlink:href="#m09fb2c8a2a" y="64.587444"/>
    </g>
   </g>
   <g id="line2d_26">
    <path clip-path="url(#p4ba2e69e8c)" d="M 169.33125 79.899864 
L 197.23125 79.899864 
" style="fill:none;stroke:#33a02c;stroke-linecap:square;stroke-width:0.5;"/>
   </g>
   <g id="line2d_27">
    <path clip-path="url(#p4ba2e69e8c)" d="M 183.28125 84.013481 
" style="fill:none;stroke:#2ca02c;stroke-dasharray:3.7,1.6;stroke-dashoffset:0;"/>
    <defs>
     <path d="M -0 2.12132 
L 2.12132 0 
L 0 -2.12132 
L -2.12132 -0 
z
" id="mc20f37334b" style="stroke:#000000;stroke-linejoin:miter;stroke-width:0.3;"/>
    </defs>
    <g clip-path="url(#p4ba2e69e8c)">
     <use style="fill:#b2df8a;stroke:#000000;stroke-linejoin:miter;stroke-width:0.3;" x="183.28125" xlink:href="#mc20f37334b" y="84.013481"/>
    </g>
   </g>
   <g id="line2d_28">
    <path clip-path="url(#p4ba2e69e8c)" d="M 262.33125 78.314564 
L 290.23125 78.314564 
" style="fill:none;stroke:#e31a1c;stroke-linecap:square;stroke-width:0.5;"/>
   </g>
   <g id="line2d_29">
    <path clip-path="url(#p4ba2e69e8c)" d="M 276.28125 86.460763 
" style="fill:none;stroke:#2ca02c;stroke-dasharray:3.7,1.6;stroke-dashoffset:0;"/>
    <defs>
     <path d="M -0 2.12132 
L 2.12132 0 
L 0 -2.12132 
L -2.12132 -0 
z
" id="m81f25e5776" style="stroke:#000000;stroke-linejoin:miter;stroke-width:0.3;"/>
    </defs>
    <g clip-path="url(#p4ba2e69e8c)">
     <use style="fill:#fb9a99;stroke:#000000;stroke-linejoin:miter;stroke-width:0.3;" x="276.28125" xlink:href="#m81f25e5776" y="86.460763"/>
    </g>
   </g>
   <g id="patch_6">
    <path d="M 43.78125 244.078125 
L 43.78125 22.318125 
" style="fill:none;stroke:#000000;stroke-linecap:square;stroke-linejoin:miter;stroke-width:0.8;"/>
   </g>
   <g id="patch_7">
    <path d="M 322.78125 244.078125 
L 322.78125 22.318125 
" style="fill:none;stroke:#000000;stroke-linecap:square;stroke-linejoin:miter;stroke-width:0.8;"/>
   </g>
   <g id="patch_8">
    <path d="M 43.78125 244.078125 
L 322.78125 244.078125 
" style="fill:none;stroke:#000000;stroke-linecap:square;stroke-linejoin:miter;stroke-width:0.8;"/>
   </g>
   <g id="patch_9">
    <path d="M 43.78125 22.318125 
L 322.78125 22.318125 
" style="fill:none;stroke:#000000;stroke-linecap:square;stroke-linejoin:miter;stroke-width:0.8;"/>
   </g>
   <g id="text_10">
    <!-- Model accuracies -->
    <defs>
     <path d="M 41.109375 46.296875 
Q 39.59375 47.171875 37.8125 47.578125 
Q 36.03125 48 33.890625 48 
Q 26.265625 48 22.1875 43.046875 
Q 18.109375 38.09375 18.109375 28.8125 
L 18.109375 0 
L 9.078125 0 
L 9.078125 54.6875 
L 18.109375 54.6875 
L 18.109375 46.1875 
Q 20.953125 51.171875 25.484375 53.578125 
Q 30.03125 56 36.53125 56 
Q 37.453125 56 38.578125 55.875 
Q 39.703125 55.765625 41.0625 55.515625 
z
" id="DejaVuSans-72"/>
    </defs>
    <g transform="translate(131.354062 16.318125)scale(0.12 -0.12)">
     <use xlink:href="#DejaVuSans-4d"/>
     <use x="86.279297" xlink:href="#DejaVuSans-6f"/>
     <use x="147.460938" xlink:href="#DejaVuSans-64"/>
     <use x="210.9375" xlink:href="#DejaVuSans-65"/>
     <use x="272.460938" xlink:href="#DejaVuSans-6c"/>
     <use x="300.244141" xlink:href="#DejaVuSans-20"/>
     <use x="332.03125" xlink:href="#DejaVuSans-61"/>
     <use x="393.310547" xlink:href="#DejaVuSans-63"/>
     <use x="448.291016" xlink:href="#DejaVuSans-63"/>
     <use x="503.271484" xlink:href="#DejaVuSans-75"/>
     <use x="566.650391" xlink:href="#DejaVuSans-72"/>
     <use x="607.763672" xlink:href="#DejaVuSans-61"/>
     <use x="669.042969" xlink:href="#DejaVuSans-63"/>
     <use x="724.023438" xlink:href="#DejaVuSans-69"/>
     <use x="751.806641" xlink:href="#DejaVuSans-65"/>
     <use x="813.330078" xlink:href="#DejaVuSans-73"/>
    </g>
   </g>
  </g>
 </g>
 <defs>
  <clipPath id="p4ba2e69e8c">
   <rect height="221.76" width="279" x="43.78125" y="22.318125"/>
  </clipPath>
 </defs>
</svg>
