<?xml version="1.0" encoding="utf-8" standalone="no"?>
<!DOCTYPE svg PUBLIC "-//W3C//DTD SVG 1.1//EN"
  "http://www.w3.org/Graphics/SVG/1.1/DTD/svg11.dtd">
<!-- Created with matplotlib (http://matplotlib.org/) -->
<svg height="267.95625pt" version="1.1" viewBox="0 0 507.24375 267.95625" width="507.24375pt" xmlns="http://www.w3.org/2000/svg" xmlns:xlink="http://www.w3.org/1999/xlink">
 <defs>
  <style type="text/css">
*{stroke-linecap:butt;stroke-linejoin:round;}
  </style>
 </defs>
 <g id="figure_1">
  <g id="patch_1">
   <path d="M 0 267.95625 
L 507.24375 267.95625 
L 507.24375 0 
L 0 0 
z
" style="fill:#ffffff;"/>
  </g>
  <g id="axes_1">
   <g id="patch_2">
    <path d="M 50.14375 244.078125 
L 496.54375 244.078125 
L 496.54375 22.318125 
L 50.14375 22.318125 
z
" style="fill:#ffffff;"/>
   </g>
   <g id="PathCollection_1">
    <defs>
     <path d="M 0 1.224745 
C 0.324806 1.224745 0.636353 1.095698 0.866025 0.866025 
C 1.095698 0.636353 1.224745 0.324806 1.224745 0 
C 1.224745 -0.324806 1.095698 -0.636353 0.866025 -0.866025 
C 0.636353 -1.095698 0.324806 -1.224745 0 -1.224745 
C -0.324806 -1.224745 -0.636353 -1.095698 -0.866025 -0.866025 
C -1.095698 -0.636353 -1.224745 -0.324806 -1.224745 0 
C -1.224745 0.324806 -1.095698 0.636353 -0.866025 0.866025 
C -0.636353 1.095698 -0.324806 1.224745 0 1.224745 
z
" id="mc35989e674"/>
    </defs>
    <g clip-path="url(#p1c9beff62f)">
     <use style="fill:#1f78b4;fill-opacity:0.6;" x="80.118025" xlink:href="#mc35989e674" y="151.8545"/>
     <use style="fill:#1f78b4;fill-opacity:0.6;" x="85.617035" xlink:href="#mc35989e674" y="38.779735"/>
     <use style="fill:#1f78b4;fill-opacity:0.6;" x="75.323792" xlink:href="#mc35989e674" y="44.224733"/>
     <use style="fill:#1f78b4;fill-opacity:0.6;" x="77.921206" xlink:href="#mc35989e674" y="69.759528"/>
     <use style="fill:#1f78b4;fill-opacity:0.6;" x="81.501928" xlink:href="#mc35989e674" y="73.532739"/>
     <use style="fill:#1f78b4;fill-opacity:0.6;" x="75.458182" xlink:href="#mc35989e674" y="49.181537"/>
     <use style="fill:#1f78b4;fill-opacity:0.6;" x="81.181713" xlink:href="#mc35989e674" y="161.334603"/>
     <use style="fill:#1f78b4;fill-opacity:0.6;" x="87.045477" xlink:href="#mc35989e674" y="59.756073"/>
     <use style="fill:#1f78b4;fill-opacity:0.6;" x="79.477946" xlink:href="#mc35989e674" y="69.42466"/>
     <use style="fill:#1f78b4;fill-opacity:0.6;" x="76.309667" xlink:href="#mc35989e674" y="161.831723"/>
     <use style="fill:#1f78b4;fill-opacity:0.6;" x="81.413397" xlink:href="#mc35989e674" y="91.885447"/>
     <use style="fill:#1f78b4;fill-opacity:0.6;" x="73.947661" xlink:href="#mc35989e674" y="100.334417"/>
     <use style="fill:#1f78b4;fill-opacity:0.6;" x="58.684007" xlink:href="#mc35989e674" y="165.598583"/>
     <use style="fill:#1f78b4;fill-opacity:0.6;" x="80.640221" xlink:href="#mc35989e674" y="186.570605"/>
     <use style="fill:#1f78b4;fill-opacity:0.6;" x="76.416298" xlink:href="#mc35989e674" y="85.882584"/>
     <use style="fill:#1f78b4;fill-opacity:0.6;" x="75.451401" xlink:href="#mc35989e674" y="160.968302"/>
     <use style="fill:#1f78b4;fill-opacity:0.6;" x="70.307647" xlink:href="#mc35989e674" y="219.154615"/>
     <use style="fill:#1f78b4;fill-opacity:0.6;" x="81.012359" xlink:href="#mc35989e674" y="93.56848"/>
     <use style="fill:#1f78b4;fill-opacity:0.6;" x="73.677355" xlink:href="#mc35989e674" y="68.944592"/>
     <use style="fill:#1f78b4;fill-opacity:0.6;" x="77.187151" xlink:href="#mc35989e674" y="104.820612"/>
     <use style="fill:#1f78b4;fill-opacity:0.6;" x="83.991424" xlink:href="#mc35989e674" y="97.430432"/>
     <use style="fill:#1f78b4;fill-opacity:0.6;" x="81.715463" xlink:href="#mc35989e674" y="115.82688"/>
     <use style="fill:#1f78b4;fill-opacity:0.6;" x="83.814625" xlink:href="#mc35989e674" y="90.535972"/>
     <use style="fill:#1f78b4;fill-opacity:0.6;" x="75.63154" xlink:href="#mc35989e674" y="71.653316"/>
     <use style="fill:#1f78b4;fill-opacity:0.6;" x="85.405656" xlink:href="#mc35989e674" y="87.414892"/>
     <use style="fill:#1f78b4;fill-opacity:0.6;" x="90.789937" xlink:href="#mc35989e674" y="109.431769"/>
     <use style="fill:#1f78b4;fill-opacity:0.6;" x="82.434981" xlink:href="#mc35989e674" y="156.679475"/>
     <use style="fill:#1f78b4;fill-opacity:0.6;" x="85.822439" xlink:href="#mc35989e674" y="131.791563"/>
     <use style="fill:#1f78b4;fill-opacity:0.6;" x="85.25297" xlink:href="#mc35989e674" y="87.327634"/>
     <use style="fill:#1f78b4;fill-opacity:0.6;" x="82.195091" xlink:href="#mc35989e674" y="95.948819"/>
     <use style="fill:#1f78b4;fill-opacity:0.6;" x="81.262056" xlink:href="#mc35989e674" y="33.272277"/>
     <use style="fill:#1f78b4;fill-opacity:0.6;" x="81.884329" xlink:href="#mc35989e674" y="42.844113"/>
     <use style="fill:#1f78b4;fill-opacity:0.6;" x="79.660593" xlink:href="#mc35989e674" y="91.100967"/>
     <use style="fill:#1f78b4;fill-opacity:0.6;" x="85.578189" xlink:href="#mc35989e674" y="65.241508"/>
     <use style="fill:#1f78b4;fill-opacity:0.6;" x="84.576158" xlink:href="#mc35989e674" y="61.188998"/>
     <use style="fill:#1f78b4;fill-opacity:0.6;" x="81.023751" xlink:href="#mc35989e674" y="70.352652"/>
     <use style="fill:#1f78b4;fill-opacity:0.6;" x="67.639278" xlink:href="#mc35989e674" y="45.632055"/>
     <use style="fill:#1f78b4;fill-opacity:0.6;" x="84.421684" xlink:href="#mc35989e674" y="54.634214"/>
     <use style="fill:#1f78b4;fill-opacity:0.6;" x="78.993123" xlink:href="#mc35989e674" y="97.242223"/>
     <use style="fill:#1f78b4;fill-opacity:0.6;" x="90.394319" xlink:href="#mc35989e674" y="62.029667"/>
     <use style="fill:#1f78b4;fill-opacity:0.6;" x="78.576283" xlink:href="#mc35989e674" y="80.257135"/>
     <use style="fill:#1f78b4;fill-opacity:0.6;" x="70.275002" xlink:href="#mc35989e674" y="114.485437"/>
     <use style="fill:#1f78b4;fill-opacity:0.6;" x="88.87282" xlink:href="#mc35989e674" y="114.439974"/>
     <use style="fill:#1f78b4;fill-opacity:0.6;" x="76.518391" xlink:href="#mc35989e674" y="186.371504"/>
     <use style="fill:#1f78b4;fill-opacity:0.6;" x="75.228805" xlink:href="#mc35989e674" y="116.503995"/>
     <use style="fill:#1f78b4;fill-opacity:0.6;" x="73.059104" xlink:href="#mc35989e674" y="161.535775"/>
     <use style="fill:#1f78b4;fill-opacity:0.6;" x="76.357118" xlink:href="#mc35989e674" y="181.234023"/>
    </g>
   </g>
   <g id="PathCollection_2">
    <defs>
     <path d="M 0 1.224745 
C 0.324806 1.224745 0.636353 1.095698 0.866025 0.866025 
C 1.095698 0.636353 1.224745 0.324806 1.224745 0 
C 1.224745 -0.324806 1.095698 -0.636353 0.866025 -0.866025 
C 0.636353 -1.095698 0.324806 -1.224745 0 -1.224745 
C -0.324806 -1.224745 -0.636353 -1.095698 -0.866025 -0.866025 
C -1.095698 -0.636353 -1.224745 -0.324806 -1.224745 0 
C -1.224745 0.324806 -1.095698 0.636353 -0.866025 0.866025 
C -0.636353 1.095698 -0.324806 1.224745 0 1.224745 
z
" id="md027bec637"/>
    </defs>
    <g clip-path="url(#p1c9beff62f)">
     <use style="fill:#33a02c;fill-opacity:0.6;" x="231.512433" xlink:href="#md027bec637" y="88.088092"/>
     <use style="fill:#33a02c;fill-opacity:0.6;" x="225.795839" xlink:href="#md027bec637" y="109.017548"/>
     <use style="fill:#33a02c;fill-opacity:0.6;" x="229.19616" xlink:href="#md027bec637" y="93.298865"/>
     <use style="fill:#33a02c;fill-opacity:0.6;" x="223.089261" xlink:href="#md027bec637" y="72.347956"/>
     <use style="fill:#33a02c;fill-opacity:0.6;" x="227.198616" xlink:href="#md027bec637" y="162.651968"/>
     <use style="fill:#33a02c;fill-opacity:0.6;" x="225.997869" xlink:href="#md027bec637" y="91.578575"/>
     <use style="fill:#33a02c;fill-opacity:0.6;" x="226.247193" xlink:href="#md027bec637" y="89.420576"/>
     <use style="fill:#33a02c;fill-opacity:0.6;" x="227.974977" xlink:href="#md027bec637" y="78.91975"/>
     <use style="fill:#33a02c;fill-opacity:0.6;" x="226.193131" xlink:href="#md027bec637" y="103.171204"/>
     <use style="fill:#33a02c;fill-opacity:0.6;" x="241.422101" xlink:href="#md027bec637" y="120.011934"/>
     <use style="fill:#33a02c;fill-opacity:0.6;" x="225.666897" xlink:href="#md027bec637" y="50.713109"/>
     <use style="fill:#33a02c;fill-opacity:0.6;" x="221.073161" xlink:href="#md027bec637" y="107.063904"/>
     <use style="fill:#33a02c;fill-opacity:0.6;" x="210.948506" xlink:href="#md027bec637" y="95.301704"/>
     <use style="fill:#33a02c;fill-opacity:0.6;" x="235.395848" xlink:href="#md027bec637" y="78.008666"/>
     <use style="fill:#33a02c;fill-opacity:0.6;" x="230.537069" xlink:href="#md027bec637" y="55.850942"/>
     <use style="fill:#33a02c;fill-opacity:0.6;" x="226.459378" xlink:href="#md027bec637" y="75.673009"/>
     <use style="fill:#33a02c;fill-opacity:0.6;" x="232.793998" xlink:href="#md027bec637" y="69.006323"/>
     <use style="fill:#33a02c;fill-opacity:0.6;" x="235.371788" xlink:href="#md027bec637" y="69.13255"/>
     <use style="fill:#33a02c;fill-opacity:0.6;" x="239.175795" xlink:href="#md027bec637" y="96.868822"/>
     <use style="fill:#33a02c;fill-opacity:0.6;" x="225.915188" xlink:href="#md027bec637" y="82.305567"/>
     <use style="fill:#33a02c;fill-opacity:0.6;" x="231.863882" xlink:href="#md027bec637" y="101.475442"/>
     <use style="fill:#33a02c;fill-opacity:0.6;" x="214.762748" xlink:href="#md027bec637" y="63.014025"/>
     <use style="fill:#33a02c;fill-opacity:0.6;" x="228.289191" xlink:href="#md027bec637" y="54.369618"/>
     <use style="fill:#33a02c;fill-opacity:0.6;" x="219.774011" xlink:href="#md027bec637" y="91.030973"/>
     <use style="fill:#33a02c;fill-opacity:0.6;" x="233.009085" xlink:href="#md027bec637" y="105.101324"/>
     <use style="fill:#33a02c;fill-opacity:0.6;" x="235.404851" xlink:href="#md027bec637" y="141.907455"/>
     <use style="fill:#33a02c;fill-opacity:0.6;" x="235.199795" xlink:href="#md027bec637" y="103.123785"/>
     <use style="fill:#33a02c;fill-opacity:0.6;" x="235.701039" xlink:href="#md027bec637" y="67.059809"/>
     <use style="fill:#33a02c;fill-opacity:0.6;" x="223.321604" xlink:href="#md027bec637" y="92.348665"/>
     <use style="fill:#33a02c;fill-opacity:0.6;" x="228.606431" xlink:href="#md027bec637" y="102.261976"/>
     <use style="fill:#33a02c;fill-opacity:0.6;" x="237.121473" xlink:href="#md027bec637" y="89.002861"/>
     <use style="fill:#33a02c;fill-opacity:0.6;" x="235.703413" xlink:href="#md027bec637" y="93.602967"/>
     <use style="fill:#33a02c;fill-opacity:0.6;" x="230.206354" xlink:href="#md027bec637" y="105.479747"/>
     <use style="fill:#33a02c;fill-opacity:0.6;" x="228.074063" xlink:href="#md027bec637" y="55.024867"/>
     <use style="fill:#33a02c;fill-opacity:0.6;" x="238.402772" xlink:href="#md027bec637" y="98.239115"/>
     <use style="fill:#33a02c;fill-opacity:0.6;" x="226.866317" xlink:href="#md027bec637" y="118.410751"/>
     <use style="fill:#33a02c;fill-opacity:0.6;" x="224.108534" xlink:href="#md027bec637" y="126.682578"/>
     <use style="fill:#33a02c;fill-opacity:0.6;" x="228.97496" xlink:href="#md027bec637" y="85.7837"/>
     <use style="fill:#33a02c;fill-opacity:0.6;" x="225.539003" xlink:href="#md027bec637" y="101.988735"/>
     <use style="fill:#33a02c;fill-opacity:0.6;" x="223.890173" xlink:href="#md027bec637" y="93.712128"/>
     <use style="fill:#33a02c;fill-opacity:0.6;" x="231.547178" xlink:href="#md027bec637" y="91.421233"/>
     <use style="fill:#33a02c;fill-opacity:0.6;" x="218.263674" xlink:href="#md027bec637" y="68.139707"/>
     <use style="fill:#33a02c;fill-opacity:0.6;" x="218.921372" xlink:href="#md027bec637" y="117.066665"/>
     <use style="fill:#33a02c;fill-opacity:0.6;" x="222.948841" xlink:href="#md027bec637" y="73.734967"/>
     <use style="fill:#33a02c;fill-opacity:0.6;" x="228.040388" xlink:href="#md027bec637" y="101.990415"/>
     <use style="fill:#33a02c;fill-opacity:0.6;" x="227.989801" xlink:href="#md027bec637" y="103.051767"/>
     <use style="fill:#33a02c;fill-opacity:0.6;" x="225.312239" xlink:href="#md027bec637" y="92.017392"/>
    </g>
   </g>
   <g id="PathCollection_3">
    <defs>
     <path d="M 0 1.224745 
C 0.324806 1.224745 0.636353 1.095698 0.866025 0.866025 
C 1.095698 0.636353 1.224745 0.324806 1.224745 0 
C 1.224745 -0.324806 1.095698 -0.636353 0.866025 -0.866025 
C 0.636353 -1.095698 0.324806 -1.224745 0 -1.224745 
C -0.324806 -1.224745 -0.636353 -1.095698 -0.866025 -0.866025 
C -1.095698 -0.636353 -1.224745 -0.324806 -1.224745 0 
C -1.224745 0.324806 -1.095698 0.636353 -0.866025 0.866025 
C -0.636353 1.095698 -0.324806 1.224745 0 1.224745 
z
" id="me7652d67bb"/>
    </defs>
    <g clip-path="url(#p1c9beff62f)">
     <use style="fill:#e31a1c;fill-opacity:0.6;" x="384.085759" xlink:href="#me7652d67bb" y="120.18046"/>
     <use style="fill:#e31a1c;fill-opacity:0.6;" x="375.357626" xlink:href="#me7652d67bb" y="124.641328"/>
     <use style="fill:#e31a1c;fill-opacity:0.6;" x="382.492207" xlink:href="#me7652d67bb" y="97.224696"/>
     <use style="fill:#e31a1c;fill-opacity:0.6;" x="378.234328" xlink:href="#me7652d67bb" y="149.80711"/>
     <use style="fill:#e31a1c;fill-opacity:0.6;" x="371.709614" xlink:href="#me7652d67bb" y="107.459575"/>
     <use style="fill:#e31a1c;fill-opacity:0.6;" x="378.146408" xlink:href="#me7652d67bb" y="108.489326"/>
     <use style="fill:#e31a1c;fill-opacity:0.6;" x="381.863101" xlink:href="#me7652d67bb" y="195.100557"/>
     <use style="fill:#e31a1c;fill-opacity:0.6;" x="370.812156" xlink:href="#me7652d67bb" y="233.120149"/>
     <use style="fill:#e31a1c;fill-opacity:0.6;" x="377.018284" xlink:href="#me7652d67bb" y="213.391942"/>
     <use style="fill:#e31a1c;fill-opacity:0.6;" x="375.148487" xlink:href="#me7652d67bb" y="86.255668"/>
     <use style="fill:#e31a1c;fill-opacity:0.6;" x="372.378391" xlink:href="#me7652d67bb" y="100.619927"/>
     <use style="fill:#e31a1c;fill-opacity:0.6;" x="375.458492" xlink:href="#me7652d67bb" y="102.097462"/>
     <use style="fill:#e31a1c;fill-opacity:0.6;" x="383.707266" xlink:href="#me7652d67bb" y="130.878022"/>
     <use style="fill:#e31a1c;fill-opacity:0.6;" x="383.523443" xlink:href="#me7652d67bb" y="111.306512"/>
     <use style="fill:#e31a1c;fill-opacity:0.6;" x="371.441277" xlink:href="#me7652d67bb" y="156.671569"/>
     <use style="fill:#e31a1c;fill-opacity:0.6;" x="372.99218" xlink:href="#me7652d67bb" y="137.1308"/>
     <use style="fill:#e31a1c;fill-opacity:0.6;" x="375.005503" xlink:href="#me7652d67bb" y="132.861421"/>
     <use style="fill:#e31a1c;fill-opacity:0.6;" x="371.985935" xlink:href="#me7652d67bb" y="131.135212"/>
     <use style="fill:#e31a1c;fill-opacity:0.6;" x="382.692751" xlink:href="#me7652d67bb" y="139.404608"/>
     <use style="fill:#e31a1c;fill-opacity:0.6;" x="368.63667" xlink:href="#me7652d67bb" y="97.332899"/>
     <use style="fill:#e31a1c;fill-opacity:0.6;" x="380.857324" xlink:href="#me7652d67bb" y="74.13391"/>
     <use style="fill:#e31a1c;fill-opacity:0.6;" x="372.090711" xlink:href="#me7652d67bb" y="132.061064"/>
     <use style="fill:#e31a1c;fill-opacity:0.6;" x="382.384963" xlink:href="#me7652d67bb" y="72.634834"/>
     <use style="fill:#e31a1c;fill-opacity:0.6;" x="375.54581" xlink:href="#me7652d67bb" y="152.255749"/>
     <use style="fill:#e31a1c;fill-opacity:0.6;" x="378.047664" xlink:href="#me7652d67bb" y="139.880124"/>
     <use style="fill:#e31a1c;fill-opacity:0.6;" x="370.981243" xlink:href="#me7652d67bb" y="139.636449"/>
     <use style="fill:#e31a1c;fill-opacity:0.6;" x="376.930791" xlink:href="#me7652d67bb" y="128.211635"/>
     <use style="fill:#e31a1c;fill-opacity:0.6;" x="379.197911" xlink:href="#me7652d67bb" y="138.620423"/>
     <use style="fill:#e31a1c;fill-opacity:0.6;" x="374.864284" xlink:href="#me7652d67bb" y="143.954079"/>
     <use style="fill:#e31a1c;fill-opacity:0.6;" x="375.588687" xlink:href="#me7652d67bb" y="150.444828"/>
     <use style="fill:#e31a1c;fill-opacity:0.6;" x="374.471666" xlink:href="#me7652d67bb" y="133.111563"/>
     <use style="fill:#e31a1c;fill-opacity:0.6;" x="386.812542" xlink:href="#me7652d67bb" y="216.707526"/>
     <use style="fill:#e31a1c;fill-opacity:0.6;" x="372.985618" xlink:href="#me7652d67bb" y="175.138922"/>
     <use style="fill:#e31a1c;fill-opacity:0.6;" x="369.158181" xlink:href="#me7652d67bb" y="180.446665"/>
     <use style="fill:#e31a1c;fill-opacity:0.6;" x="372.9683" xlink:href="#me7652d67bb" y="95.318613"/>
     <use style="fill:#e31a1c;fill-opacity:0.6;" x="378.971225" xlink:href="#me7652d67bb" y="146.01684"/>
     <use style="fill:#e31a1c;fill-opacity:0.6;" x="372.991747" xlink:href="#me7652d67bb" y="48.853474"/>
     <use style="fill:#e31a1c;fill-opacity:0.6;" x="374.177184" xlink:href="#me7652d67bb" y="113.744175"/>
     <use style="fill:#e31a1c;fill-opacity:0.6;" x="380.3138" xlink:href="#me7652d67bb" y="96.459383"/>
     <use style="fill:#e31a1c;fill-opacity:0.6;" x="381.738646" xlink:href="#me7652d67bb" y="109.165343"/>
     <use style="fill:#e31a1c;fill-opacity:0.6;" x="380.824367" xlink:href="#me7652d67bb" y="207.775818"/>
     <use style="fill:#e31a1c;fill-opacity:0.6;" x="381.335506" xlink:href="#me7652d67bb" y="132.507331"/>
     <use style="fill:#e31a1c;fill-opacity:0.6;" x="380.111794" xlink:href="#me7652d67bb" y="130.548289"/>
     <use style="fill:#e31a1c;fill-opacity:0.6;" x="375.311815" xlink:href="#me7652d67bb" y="104.186788"/>
     <use style="fill:#e31a1c;fill-opacity:0.6;" x="377.768774" xlink:href="#me7652d67bb" y="90.64731"/>
     <use style="fill:#e31a1c;fill-opacity:0.6;" x="383.126345" xlink:href="#me7652d67bb" y="113.45514"/>
     <use style="fill:#e31a1c;fill-opacity:0.6;" x="375.040152" xlink:href="#me7652d67bb" y="172.977649"/>
    </g>
   </g>
   <g id="matplotlib.axis_1">
    <g id="xtick_1">
     <g id="line2d_1">
      <defs>
       <path d="M 0 0 
L 0 3.5 
" id="m94090ad13a" style="stroke:#000000;stroke-width:0.8;"/>
      </defs>
      <g>
       <use style="stroke:#000000;stroke-width:0.8;" x="124.54375" xlink:href="#m94090ad13a" y="244.078125"/>
      </g>
     </g>
     <g id="text_1">
      <!-- Snow Water Equivalent -->
      <defs>
       <path d="M 53.515625 70.515625 
L 53.515625 60.890625 
Q 47.90625 63.578125 42.921875 64.890625 
Q 37.9375 66.21875 33.296875 66.21875 
Q 25.25 66.21875 20.875 63.09375 
Q 16.5 59.96875 16.5 54.203125 
Q 16.5 49.359375 19.40625 46.890625 
Q 22.3125 44.4375 30.421875 42.921875 
L 36.375 41.703125 
Q 47.40625 39.59375 52.65625 34.296875 
Q 57.90625 29 57.90625 20.125 
Q 57.90625 9.515625 50.796875 4.046875 
Q 43.703125 -1.421875 29.984375 -1.421875 
Q 24.8125 -1.421875 18.96875 -0.25 
Q 13.140625 0.921875 6.890625 3.21875 
L 6.890625 13.375 
Q 12.890625 10.015625 18.65625 8.296875 
Q 24.421875 6.59375 29.984375 6.59375 
Q 38.421875 6.59375 43.015625 9.90625 
Q 47.609375 13.234375 47.609375 19.390625 
Q 47.609375 24.75 44.3125 27.78125 
Q 41.015625 30.8125 33.5 32.328125 
L 27.484375 33.5 
Q 16.453125 35.6875 11.515625 40.375 
Q 6.59375 45.0625 6.59375 53.421875 
Q 6.59375 63.09375 13.40625 68.65625 
Q 20.21875 74.21875 32.171875 74.21875 
Q 37.3125 74.21875 42.625 73.28125 
Q 47.953125 72.359375 53.515625 70.515625 
z
" id="DejaVuSans-53"/>
       <path d="M 54.890625 33.015625 
L 54.890625 0 
L 45.90625 0 
L 45.90625 32.71875 
Q 45.90625 40.484375 42.875 44.328125 
Q 39.84375 48.1875 33.796875 48.1875 
Q 26.515625 48.1875 22.3125 43.546875 
Q 18.109375 38.921875 18.109375 30.90625 
L 18.109375 0 
L 9.078125 0 
L 9.078125 54.6875 
L 18.109375 54.6875 
L 18.109375 46.1875 
Q 21.34375 51.125 25.703125 53.5625 
Q 30.078125 56 35.796875 56 
Q 45.21875 56 50.046875 50.171875 
Q 54.890625 44.34375 54.890625 33.015625 
z
" id="DejaVuSans-6e"/>
       <path d="M 30.609375 48.390625 
Q 23.390625 48.390625 19.1875 42.75 
Q 14.984375 37.109375 14.984375 27.296875 
Q 14.984375 17.484375 19.15625 11.84375 
Q 23.34375 6.203125 30.609375 6.203125 
Q 37.796875 6.203125 41.984375 11.859375 
Q 46.1875 17.53125 46.1875 27.296875 
Q 46.1875 37.015625 41.984375 42.703125 
Q 37.796875 48.390625 30.609375 48.390625 
z
M 30.609375 56 
Q 42.328125 56 49.015625 48.375 
Q 55.71875 40.765625 55.71875 27.296875 
Q 55.71875 13.875 49.015625 6.21875 
Q 42.328125 -1.421875 30.609375 -1.421875 
Q 18.84375 -1.421875 12.171875 6.21875 
Q 5.515625 13.875 5.515625 27.296875 
Q 5.515625 40.765625 12.171875 48.375 
Q 18.84375 56 30.609375 56 
z
" id="DejaVuSans-6f"/>
       <path d="M 4.203125 54.6875 
L 13.1875 54.6875 
L 24.421875 12.015625 
L 35.59375 54.6875 
L 46.1875 54.6875 
L 57.421875 12.015625 
L 68.609375 54.6875 
L 77.59375 54.6875 
L 63.28125 0 
L 52.6875 0 
L 40.921875 44.828125 
L 29.109375 0 
L 18.5 0 
z
" id="DejaVuSans-77"/>
       <path id="DejaVuSans-20"/>
       <path d="M 3.328125 72.90625 
L 13.28125 72.90625 
L 28.609375 11.28125 
L 43.890625 72.90625 
L 54.984375 72.90625 
L 70.3125 11.28125 
L 85.59375 72.90625 
L 95.609375 72.90625 
L 77.296875 0 
L 64.890625 0 
L 49.515625 63.28125 
L 33.984375 0 
L 21.578125 0 
z
" id="DejaVuSans-57"/>
       <path d="M 34.28125 27.484375 
Q 23.390625 27.484375 19.1875 25 
Q 14.984375 22.515625 14.984375 16.5 
Q 14.984375 11.71875 18.140625 8.90625 
Q 21.296875 6.109375 26.703125 6.109375 
Q 34.1875 6.109375 38.703125 11.40625 
Q 43.21875 16.703125 43.21875 25.484375 
L 43.21875 27.484375 
z
M 52.203125 31.203125 
L 52.203125 0 
L 43.21875 0 
L 43.21875 8.296875 
Q 40.140625 3.328125 35.546875 0.953125 
Q 30.953125 -1.421875 24.3125 -1.421875 
Q 15.921875 -1.421875 10.953125 3.296875 
Q 6 8.015625 6 15.921875 
Q 6 25.140625 12.171875 29.828125 
Q 18.359375 34.515625 30.609375 34.515625 
L 43.21875 34.515625 
L 43.21875 35.40625 
Q 43.21875 41.609375 39.140625 45 
Q 35.0625 48.390625 27.6875 48.390625 
Q 23 48.390625 18.546875 47.265625 
Q 14.109375 46.140625 10.015625 43.890625 
L 10.015625 52.203125 
Q 14.9375 54.109375 19.578125 55.046875 
Q 24.21875 56 28.609375 56 
Q 40.484375 56 46.34375 49.84375 
Q 52.203125 43.703125 52.203125 31.203125 
z
" id="DejaVuSans-61"/>
       <path d="M 18.3125 70.21875 
L 18.3125 54.6875 
L 36.8125 54.6875 
L 36.8125 47.703125 
L 18.3125 47.703125 
L 18.3125 18.015625 
Q 18.3125 11.328125 20.140625 9.421875 
Q 21.96875 7.515625 27.59375 7.515625 
L 36.8125 7.515625 
L 36.8125 0 
L 27.59375 0 
Q 17.1875 0 13.234375 3.875 
Q 9.28125 7.765625 9.28125 18.015625 
L 9.28125 47.703125 
L 2.6875 47.703125 
L 2.6875 54.6875 
L 9.28125 54.6875 
L 9.28125 70.21875 
z
" id="DejaVuSans-74"/>
       <path d="M 56.203125 29.59375 
L 56.203125 25.203125 
L 14.890625 25.203125 
Q 15.484375 15.921875 20.484375 11.0625 
Q 25.484375 6.203125 34.421875 6.203125 
Q 39.59375 6.203125 44.453125 7.46875 
Q 49.3125 8.734375 54.109375 11.28125 
L 54.109375 2.78125 
Q 49.265625 0.734375 44.1875 -0.34375 
Q 39.109375 -1.421875 33.890625 -1.421875 
Q 20.796875 -1.421875 13.15625 6.1875 
Q 5.515625 13.8125 5.515625 26.8125 
Q 5.515625 40.234375 12.765625 48.109375 
Q 20.015625 56 32.328125 56 
Q 43.359375 56 49.78125 48.890625 
Q 56.203125 41.796875 56.203125 29.59375 
z
M 47.21875 32.234375 
Q 47.125 39.59375 43.09375 43.984375 
Q 39.0625 48.390625 32.421875 48.390625 
Q 24.90625 48.390625 20.390625 44.140625 
Q 15.875 39.890625 15.1875 32.171875 
z
" id="DejaVuSans-65"/>
       <path d="M 41.109375 46.296875 
Q 39.59375 47.171875 37.8125 47.578125 
Q 36.03125 48 33.890625 48 
Q 26.265625 48 22.1875 43.046875 
Q 18.109375 38.09375 18.109375 28.8125 
L 18.109375 0 
L 9.078125 0 
L 9.078125 54.6875 
L 18.109375 54.6875 
L 18.109375 46.1875 
Q 20.953125 51.171875 25.484375 53.578125 
Q 30.03125 56 36.53125 56 
Q 37.453125 56 38.578125 55.875 
Q 39.703125 55.765625 41.0625 55.515625 
z
" id="DejaVuSans-72"/>
       <path d="M 9.8125 72.90625 
L 55.90625 72.90625 
L 55.90625 64.59375 
L 19.671875 64.59375 
L 19.671875 43.015625 
L 54.390625 43.015625 
L 54.390625 34.71875 
L 19.671875 34.71875 
L 19.671875 8.296875 
L 56.78125 8.296875 
L 56.78125 0 
L 9.8125 0 
z
" id="DejaVuSans-45"/>
       <path d="M 14.796875 27.296875 
Q 14.796875 17.390625 18.875 11.75 
Q 22.953125 6.109375 30.078125 6.109375 
Q 37.203125 6.109375 41.296875 11.75 
Q 45.40625 17.390625 45.40625 27.296875 
Q 45.40625 37.203125 41.296875 42.84375 
Q 37.203125 48.484375 30.078125 48.484375 
Q 22.953125 48.484375 18.875 42.84375 
Q 14.796875 37.203125 14.796875 27.296875 
z
M 45.40625 8.203125 
Q 42.578125 3.328125 38.25 0.953125 
Q 33.9375 -1.421875 27.875 -1.421875 
Q 17.96875 -1.421875 11.734375 6.484375 
Q 5.515625 14.40625 5.515625 27.296875 
Q 5.515625 40.1875 11.734375 48.09375 
Q 17.96875 56 27.875 56 
Q 33.9375 56 38.25 53.625 
Q 42.578125 51.265625 45.40625 46.390625 
L 45.40625 54.6875 
L 54.390625 54.6875 
L 54.390625 -20.796875 
L 45.40625 -20.796875 
z
" id="DejaVuSans-71"/>
       <path d="M 8.5 21.578125 
L 8.5 54.6875 
L 17.484375 54.6875 
L 17.484375 21.921875 
Q 17.484375 14.15625 20.5 10.265625 
Q 23.53125 6.390625 29.59375 6.390625 
Q 36.859375 6.390625 41.078125 11.03125 
Q 45.3125 15.671875 45.3125 23.6875 
L 45.3125 54.6875 
L 54.296875 54.6875 
L 54.296875 0 
L 45.3125 0 
L 45.3125 8.40625 
Q 42.046875 3.421875 37.71875 1 
Q 33.40625 -1.421875 27.6875 -1.421875 
Q 18.265625 -1.421875 13.375 4.4375 
Q 8.5 10.296875 8.5 21.578125 
z
M 31.109375 56 
z
" id="DejaVuSans-75"/>
       <path d="M 9.421875 54.6875 
L 18.40625 54.6875 
L 18.40625 0 
L 9.421875 0 
z
M 9.421875 75.984375 
L 18.40625 75.984375 
L 18.40625 64.59375 
L 9.421875 64.59375 
z
" id="DejaVuSans-69"/>
       <path d="M 2.984375 54.6875 
L 12.5 54.6875 
L 29.59375 8.796875 
L 46.6875 54.6875 
L 56.203125 54.6875 
L 35.6875 0 
L 23.484375 0 
z
" id="DejaVuSans-76"/>
       <path d="M 9.421875 75.984375 
L 18.40625 75.984375 
L 18.40625 0 
L 9.421875 0 
z
" id="DejaVuSans-6c"/>
      </defs>
      <g transform="translate(66.269531 258.676562)scale(0.1 -0.1)">
       <use xlink:href="#DejaVuSans-53"/>
       <use x="63.476562" xlink:href="#DejaVuSans-6e"/>
       <use x="126.855469" xlink:href="#DejaVuSans-6f"/>
       <use x="188.037109" xlink:href="#DejaVuSans-77"/>
       <use x="269.824219" xlink:href="#DejaVuSans-20"/>
       <use x="301.611328" xlink:href="#DejaVuSans-57"/>
       <use x="400.394531" xlink:href="#DejaVuSans-61"/>
       <use x="461.673828" xlink:href="#DejaVuSans-74"/>
       <use x="500.882812" xlink:href="#DejaVuSans-65"/>
       <use x="562.40625" xlink:href="#DejaVuSans-72"/>
       <use x="603.519531" xlink:href="#DejaVuSans-20"/>
       <use x="635.306641" xlink:href="#DejaVuSans-45"/>
       <use x="698.490234" xlink:href="#DejaVuSans-71"/>
       <use x="761.966797" xlink:href="#DejaVuSans-75"/>
       <use x="825.345703" xlink:href="#DejaVuSans-69"/>
       <use x="853.128906" xlink:href="#DejaVuSans-76"/>
       <use x="912.308594" xlink:href="#DejaVuSans-61"/>
       <use x="973.587891" xlink:href="#DejaVuSans-6c"/>
       <use x="1001.371094" xlink:href="#DejaVuSans-65"/>
       <use x="1062.894531" xlink:href="#DejaVuSans-6e"/>
       <use x="1126.273438" xlink:href="#DejaVuSans-74"/>
      </g>
     </g>
    </g>
    <g id="xtick_2">
     <g id="line2d_2">
      <g>
       <use style="stroke:#000000;stroke-width:0.8;" x="273.34375" xlink:href="#m94090ad13a" y="244.078125"/>
      </g>
     </g>
     <g id="text_2">
      <!-- Snow Cover Fraction -->
      <defs>
       <path d="M 64.40625 67.28125 
L 64.40625 56.890625 
Q 59.421875 61.53125 53.78125 63.8125 
Q 48.140625 66.109375 41.796875 66.109375 
Q 29.296875 66.109375 22.65625 58.46875 
Q 16.015625 50.828125 16.015625 36.375 
Q 16.015625 21.96875 22.65625 14.328125 
Q 29.296875 6.6875 41.796875 6.6875 
Q 48.140625 6.6875 53.78125 8.984375 
Q 59.421875 11.28125 64.40625 15.921875 
L 64.40625 5.609375 
Q 59.234375 2.09375 53.4375 0.328125 
Q 47.65625 -1.421875 41.21875 -1.421875 
Q 24.65625 -1.421875 15.125 8.703125 
Q 5.609375 18.84375 5.609375 36.375 
Q 5.609375 53.953125 15.125 64.078125 
Q 24.65625 74.21875 41.21875 74.21875 
Q 47.75 74.21875 53.53125 72.484375 
Q 59.328125 70.75 64.40625 67.28125 
z
" id="DejaVuSans-43"/>
       <path d="M 9.8125 72.90625 
L 51.703125 72.90625 
L 51.703125 64.59375 
L 19.671875 64.59375 
L 19.671875 43.109375 
L 48.578125 43.109375 
L 48.578125 34.8125 
L 19.671875 34.8125 
L 19.671875 0 
L 9.8125 0 
z
" id="DejaVuSans-46"/>
       <path d="M 48.78125 52.59375 
L 48.78125 44.1875 
Q 44.96875 46.296875 41.140625 47.34375 
Q 37.3125 48.390625 33.40625 48.390625 
Q 24.65625 48.390625 19.8125 42.84375 
Q 14.984375 37.3125 14.984375 27.296875 
Q 14.984375 17.28125 19.8125 11.734375 
Q 24.65625 6.203125 33.40625 6.203125 
Q 37.3125 6.203125 41.140625 7.25 
Q 44.96875 8.296875 48.78125 10.40625 
L 48.78125 2.09375 
Q 45.015625 0.34375 40.984375 -0.53125 
Q 36.96875 -1.421875 32.421875 -1.421875 
Q 20.0625 -1.421875 12.78125 6.34375 
Q 5.515625 14.109375 5.515625 27.296875 
Q 5.515625 40.671875 12.859375 48.328125 
Q 20.21875 56 33.015625 56 
Q 37.15625 56 41.109375 55.140625 
Q 45.0625 54.296875 48.78125 52.59375 
z
" id="DejaVuSans-63"/>
      </defs>
      <g transform="translate(221.715625 258.676562)scale(0.1 -0.1)">
       <use xlink:href="#DejaVuSans-53"/>
       <use x="63.476562" xlink:href="#DejaVuSans-6e"/>
       <use x="126.855469" xlink:href="#DejaVuSans-6f"/>
       <use x="188.037109" xlink:href="#DejaVuSans-77"/>
       <use x="269.824219" xlink:href="#DejaVuSans-20"/>
       <use x="301.611328" xlink:href="#DejaVuSans-43"/>
       <use x="371.435547" xlink:href="#DejaVuSans-6f"/>
       <use x="432.617188" xlink:href="#DejaVuSans-76"/>
       <use x="491.796875" xlink:href="#DejaVuSans-65"/>
       <use x="553.320312" xlink:href="#DejaVuSans-72"/>
       <use x="594.433594" xlink:href="#DejaVuSans-20"/>
       <use x="626.220703" xlink:href="#DejaVuSans-46"/>
       <use x="683.630859" xlink:href="#DejaVuSans-72"/>
       <use x="724.744141" xlink:href="#DejaVuSans-61"/>
       <use x="786.023438" xlink:href="#DejaVuSans-63"/>
       <use x="841.003906" xlink:href="#DejaVuSans-74"/>
       <use x="880.212891" xlink:href="#DejaVuSans-69"/>
       <use x="907.996094" xlink:href="#DejaVuSans-6f"/>
       <use x="969.177734" xlink:href="#DejaVuSans-6e"/>
      </g>
     </g>
    </g>
    <g id="xtick_3">
     <g id="line2d_3">
      <g>
       <use style="stroke:#000000;stroke-width:0.8;" x="422.14375" xlink:href="#m94090ad13a" y="244.078125"/>
      </g>
     </g>
     <g id="text_3">
      <!-- Evapotranspiration -->
      <defs>
       <path d="M 18.109375 8.203125 
L 18.109375 -20.796875 
L 9.078125 -20.796875 
L 9.078125 54.6875 
L 18.109375 54.6875 
L 18.109375 46.390625 
Q 20.953125 51.265625 25.265625 53.625 
Q 29.59375 56 35.59375 56 
Q 45.5625 56 51.78125 48.09375 
Q 58.015625 40.1875 58.015625 27.296875 
Q 58.015625 14.40625 51.78125 6.484375 
Q 45.5625 -1.421875 35.59375 -1.421875 
Q 29.59375 -1.421875 25.265625 0.953125 
Q 20.953125 3.328125 18.109375 8.203125 
z
M 48.6875 27.296875 
Q 48.6875 37.203125 44.609375 42.84375 
Q 40.53125 48.484375 33.40625 48.484375 
Q 26.265625 48.484375 22.1875 42.84375 
Q 18.109375 37.203125 18.109375 27.296875 
Q 18.109375 17.390625 22.1875 11.75 
Q 26.265625 6.109375 33.40625 6.109375 
Q 40.53125 6.109375 44.609375 11.75 
Q 48.6875 17.390625 48.6875 27.296875 
z
" id="DejaVuSans-70"/>
       <path d="M 44.28125 53.078125 
L 44.28125 44.578125 
Q 40.484375 46.53125 36.375 47.5 
Q 32.28125 48.484375 27.875 48.484375 
Q 21.1875 48.484375 17.84375 46.4375 
Q 14.5 44.390625 14.5 40.28125 
Q 14.5 37.15625 16.890625 35.375 
Q 19.28125 33.59375 26.515625 31.984375 
L 29.59375 31.296875 
Q 39.15625 29.25 43.1875 25.515625 
Q 47.21875 21.78125 47.21875 15.09375 
Q 47.21875 7.46875 41.1875 3.015625 
Q 35.15625 -1.421875 24.609375 -1.421875 
Q 20.21875 -1.421875 15.453125 -0.5625 
Q 10.6875 0.296875 5.421875 2 
L 5.421875 11.28125 
Q 10.40625 8.6875 15.234375 7.390625 
Q 20.0625 6.109375 24.8125 6.109375 
Q 31.15625 6.109375 34.5625 8.28125 
Q 37.984375 10.453125 37.984375 14.40625 
Q 37.984375 18.0625 35.515625 20.015625 
Q 33.0625 21.96875 24.703125 23.78125 
L 21.578125 24.515625 
Q 13.234375 26.265625 9.515625 29.90625 
Q 5.8125 33.546875 5.8125 39.890625 
Q 5.8125 47.609375 11.28125 51.796875 
Q 16.75 56 26.8125 56 
Q 31.78125 56 36.171875 55.265625 
Q 40.578125 54.546875 44.28125 53.078125 
z
" id="DejaVuSans-73"/>
      </defs>
      <g transform="translate(374.614062 258.676562)scale(0.1 -0.1)">
       <use xlink:href="#DejaVuSans-45"/>
       <use x="63.183594" xlink:href="#DejaVuSans-76"/>
       <use x="122.363281" xlink:href="#DejaVuSans-61"/>
       <use x="183.642578" xlink:href="#DejaVuSans-70"/>
       <use x="247.119141" xlink:href="#DejaVuSans-6f"/>
       <use x="308.300781" xlink:href="#DejaVuSans-74"/>
       <use x="347.509766" xlink:href="#DejaVuSans-72"/>
       <use x="388.623047" xlink:href="#DejaVuSans-61"/>
       <use x="449.902344" xlink:href="#DejaVuSans-6e"/>
       <use x="513.28125" xlink:href="#DejaVuSans-73"/>
       <use x="565.380859" xlink:href="#DejaVuSans-70"/>
       <use x="628.857422" xlink:href="#DejaVuSans-69"/>
       <use x="656.640625" xlink:href="#DejaVuSans-72"/>
       <use x="697.753906" xlink:href="#DejaVuSans-61"/>
       <use x="759.033203" xlink:href="#DejaVuSans-74"/>
       <use x="798.242188" xlink:href="#DejaVuSans-69"/>
       <use x="826.025391" xlink:href="#DejaVuSans-6f"/>
       <use x="887.207031" xlink:href="#DejaVuSans-6e"/>
      </g>
     </g>
    </g>
   </g>
   <g id="matplotlib.axis_2">
    <g id="ytick_1">
     <g id="line2d_4">
      <defs>
       <path d="M 0 0 
L -3.5 0 
" id="m9c43b02ef1" style="stroke:#000000;stroke-width:0.8;"/>
      </defs>
      <g>
       <use style="stroke:#000000;stroke-width:0.8;" x="50.14375" xlink:href="#m9c43b02ef1" y="217.654953"/>
      </g>
     </g>
     <g id="text_4">
      <!-- 0.60 -->
      <defs>
       <path d="M 31.78125 66.40625 
Q 24.171875 66.40625 20.328125 58.90625 
Q 16.5 51.421875 16.5 36.375 
Q 16.5 21.390625 20.328125 13.890625 
Q 24.171875 6.390625 31.78125 6.390625 
Q 39.453125 6.390625 43.28125 13.890625 
Q 47.125 21.390625 47.125 36.375 
Q 47.125 51.421875 43.28125 58.90625 
Q 39.453125 66.40625 31.78125 66.40625 
z
M 31.78125 74.21875 
Q 44.046875 74.21875 50.515625 64.515625 
Q 56.984375 54.828125 56.984375 36.375 
Q 56.984375 17.96875 50.515625 8.265625 
Q 44.046875 -1.421875 31.78125 -1.421875 
Q 19.53125 -1.421875 13.0625 8.265625 
Q 6.59375 17.96875 6.59375 36.375 
Q 6.59375 54.828125 13.0625 64.515625 
Q 19.53125 74.21875 31.78125 74.21875 
z
" id="DejaVuSans-30"/>
       <path d="M 10.6875 12.40625 
L 21 12.40625 
L 21 0 
L 10.6875 0 
z
" id="DejaVuSans-2e"/>
       <path d="M 33.015625 40.375 
Q 26.375 40.375 22.484375 35.828125 
Q 18.609375 31.296875 18.609375 23.390625 
Q 18.609375 15.53125 22.484375 10.953125 
Q 26.375 6.390625 33.015625 6.390625 
Q 39.65625 6.390625 43.53125 10.953125 
Q 47.40625 15.53125 47.40625 23.390625 
Q 47.40625 31.296875 43.53125 35.828125 
Q 39.65625 40.375 33.015625 40.375 
z
M 52.59375 71.296875 
L 52.59375 62.3125 
Q 48.875 64.0625 45.09375 64.984375 
Q 41.3125 65.921875 37.59375 65.921875 
Q 27.828125 65.921875 22.671875 59.328125 
Q 17.53125 52.734375 16.796875 39.40625 
Q 19.671875 43.65625 24.015625 45.921875 
Q 28.375 48.1875 33.59375 48.1875 
Q 44.578125 48.1875 50.953125 41.515625 
Q 57.328125 34.859375 57.328125 23.390625 
Q 57.328125 12.15625 50.6875 5.359375 
Q 44.046875 -1.421875 33.015625 -1.421875 
Q 20.359375 -1.421875 13.671875 8.265625 
Q 6.984375 17.96875 6.984375 36.375 
Q 6.984375 53.65625 15.1875 63.9375 
Q 23.390625 74.21875 37.203125 74.21875 
Q 40.921875 74.21875 44.703125 73.484375 
Q 48.484375 72.75 52.59375 71.296875 
z
" id="DejaVuSans-36"/>
      </defs>
      <g transform="translate(20.878125 221.454172)scale(0.1 -0.1)">
       <use xlink:href="#DejaVuSans-30"/>
       <use x="63.623047" xlink:href="#DejaVuSans-2e"/>
       <use x="95.410156" xlink:href="#DejaVuSans-36"/>
       <use x="159.033203" xlink:href="#DejaVuSans-30"/>
      </g>
     </g>
    </g>
    <g id="ytick_2">
     <g id="line2d_5">
      <g>
       <use style="stroke:#000000;stroke-width:0.8;" x="50.14375" xlink:href="#m9c43b02ef1" y="186.503955"/>
      </g>
     </g>
     <g id="text_5">
      <!-- 0.65 -->
      <defs>
       <path d="M 10.796875 72.90625 
L 49.515625 72.90625 
L 49.515625 64.59375 
L 19.828125 64.59375 
L 19.828125 46.734375 
Q 21.96875 47.46875 24.109375 47.828125 
Q 26.265625 48.1875 28.421875 48.1875 
Q 40.625 48.1875 47.75 41.5 
Q 54.890625 34.8125 54.890625 23.390625 
Q 54.890625 11.625 47.5625 5.09375 
Q 40.234375 -1.421875 26.90625 -1.421875 
Q 22.3125 -1.421875 17.546875 -0.640625 
Q 12.796875 0.140625 7.71875 1.703125 
L 7.71875 11.625 
Q 12.109375 9.234375 16.796875 8.0625 
Q 21.484375 6.890625 26.703125 6.890625 
Q 35.15625 6.890625 40.078125 11.328125 
Q 45.015625 15.765625 45.015625 23.390625 
Q 45.015625 31 40.078125 35.4375 
Q 35.15625 39.890625 26.703125 39.890625 
Q 22.75 39.890625 18.8125 39.015625 
Q 14.890625 38.140625 10.796875 36.28125 
z
" id="DejaVuSans-35"/>
      </defs>
      <g transform="translate(20.878125 190.303173)scale(0.1 -0.1)">
       <use xlink:href="#DejaVuSans-30"/>
       <use x="63.623047" xlink:href="#DejaVuSans-2e"/>
       <use x="95.410156" xlink:href="#DejaVuSans-36"/>
       <use x="159.033203" xlink:href="#DejaVuSans-35"/>
      </g>
     </g>
    </g>
    <g id="ytick_3">
     <g id="line2d_6">
      <g>
       <use style="stroke:#000000;stroke-width:0.8;" x="50.14375" xlink:href="#m9c43b02ef1" y="155.352956"/>
      </g>
     </g>
     <g id="text_6">
      <!-- 0.70 -->
      <defs>
       <path d="M 8.203125 72.90625 
L 55.078125 72.90625 
L 55.078125 68.703125 
L 28.609375 0 
L 18.3125 0 
L 43.21875 64.59375 
L 8.203125 64.59375 
z
" id="DejaVuSans-37"/>
      </defs>
      <g transform="translate(20.878125 159.152175)scale(0.1 -0.1)">
       <use xlink:href="#DejaVuSans-30"/>
       <use x="63.623047" xlink:href="#DejaVuSans-2e"/>
       <use x="95.410156" xlink:href="#DejaVuSans-37"/>
       <use x="159.033203" xlink:href="#DejaVuSans-30"/>
      </g>
     </g>
    </g>
    <g id="ytick_4">
     <g id="line2d_7">
      <g>
       <use style="stroke:#000000;stroke-width:0.8;" x="50.14375" xlink:href="#m9c43b02ef1" y="124.201958"/>
      </g>
     </g>
     <g id="text_7">
      <!-- 0.75 -->
      <g transform="translate(20.878125 128.001177)scale(0.1 -0.1)">
       <use xlink:href="#DejaVuSans-30"/>
       <use x="63.623047" xlink:href="#DejaVuSans-2e"/>
       <use x="95.410156" xlink:href="#DejaVuSans-37"/>
       <use x="159.033203" xlink:href="#DejaVuSans-35"/>
      </g>
     </g>
    </g>
    <g id="ytick_5">
     <g id="line2d_8">
      <g>
       <use style="stroke:#000000;stroke-width:0.8;" x="50.14375" xlink:href="#m9c43b02ef1" y="93.050959"/>
      </g>
     </g>
     <g id="text_8">
      <!-- 0.80 -->
      <defs>
       <path d="M 31.78125 34.625 
Q 24.75 34.625 20.71875 30.859375 
Q 16.703125 27.09375 16.703125 20.515625 
Q 16.703125 13.921875 20.71875 10.15625 
Q 24.75 6.390625 31.78125 6.390625 
Q 38.8125 6.390625 42.859375 10.171875 
Q 46.921875 13.96875 46.921875 20.515625 
Q 46.921875 27.09375 42.890625 30.859375 
Q 38.875 34.625 31.78125 34.625 
z
M 21.921875 38.8125 
Q 15.578125 40.375 12.03125 44.71875 
Q 8.5 49.078125 8.5 55.328125 
Q 8.5 64.0625 14.71875 69.140625 
Q 20.953125 74.21875 31.78125 74.21875 
Q 42.671875 74.21875 48.875 69.140625 
Q 55.078125 64.0625 55.078125 55.328125 
Q 55.078125 49.078125 51.53125 44.71875 
Q 48 40.375 41.703125 38.8125 
Q 48.828125 37.15625 52.796875 32.3125 
Q 56.78125 27.484375 56.78125 20.515625 
Q 56.78125 9.90625 50.3125 4.234375 
Q 43.84375 -1.421875 31.78125 -1.421875 
Q 19.734375 -1.421875 13.25 4.234375 
Q 6.78125 9.90625 6.78125 20.515625 
Q 6.78125 27.484375 10.78125 32.3125 
Q 14.796875 37.15625 21.921875 38.8125 
z
M 18.3125 54.390625 
Q 18.3125 48.734375 21.84375 45.5625 
Q 25.390625 42.390625 31.78125 42.390625 
Q 38.140625 42.390625 41.71875 45.5625 
Q 45.3125 48.734375 45.3125 54.390625 
Q 45.3125 60.0625 41.71875 63.234375 
Q 38.140625 66.40625 31.78125 66.40625 
Q 25.390625 66.40625 21.84375 63.234375 
Q 18.3125 60.0625 18.3125 54.390625 
z
" id="DejaVuSans-38"/>
      </defs>
      <g transform="translate(20.878125 96.850178)scale(0.1 -0.1)">
       <use xlink:href="#DejaVuSans-30"/>
       <use x="63.623047" xlink:href="#DejaVuSans-2e"/>
       <use x="95.410156" xlink:href="#DejaVuSans-38"/>
       <use x="159.033203" xlink:href="#DejaVuSans-30"/>
      </g>
     </g>
    </g>
    <g id="ytick_6">
     <g id="line2d_9">
      <g>
       <use style="stroke:#000000;stroke-width:0.8;" x="50.14375" xlink:href="#m9c43b02ef1" y="61.899961"/>
      </g>
     </g>
     <g id="text_9">
      <!-- 0.85 -->
      <g transform="translate(20.878125 65.69918)scale(0.1 -0.1)">
       <use xlink:href="#DejaVuSans-30"/>
       <use x="63.623047" xlink:href="#DejaVuSans-2e"/>
       <use x="95.410156" xlink:href="#DejaVuSans-38"/>
       <use x="159.033203" xlink:href="#DejaVuSans-35"/>
      </g>
     </g>
    </g>
    <g id="ytick_7">
     <g id="line2d_10">
      <g>
       <use style="stroke:#000000;stroke-width:0.8;" x="50.14375" xlink:href="#m9c43b02ef1" y="30.748963"/>
      </g>
     </g>
     <g id="text_10">
      <!-- 0.90 -->
      <defs>
       <path d="M 10.984375 1.515625 
L 10.984375 10.5 
Q 14.703125 8.734375 18.5 7.8125 
Q 22.3125 6.890625 25.984375 6.890625 
Q 35.75 6.890625 40.890625 13.453125 
Q 46.046875 20.015625 46.78125 33.40625 
Q 43.953125 29.203125 39.59375 26.953125 
Q 35.25 24.703125 29.984375 24.703125 
Q 19.046875 24.703125 12.671875 31.3125 
Q 6.296875 37.9375 6.296875 49.421875 
Q 6.296875 60.640625 12.9375 67.421875 
Q 19.578125 74.21875 30.609375 74.21875 
Q 43.265625 74.21875 49.921875 64.515625 
Q 56.59375 54.828125 56.59375 36.375 
Q 56.59375 19.140625 48.40625 8.859375 
Q 40.234375 -1.421875 26.421875 -1.421875 
Q 22.703125 -1.421875 18.890625 -0.6875 
Q 15.09375 0.046875 10.984375 1.515625 
z
M 30.609375 32.421875 
Q 37.25 32.421875 41.125 36.953125 
Q 45.015625 41.5 45.015625 49.421875 
Q 45.015625 57.28125 41.125 61.84375 
Q 37.25 66.40625 30.609375 66.40625 
Q 23.96875 66.40625 20.09375 61.84375 
Q 16.21875 57.28125 16.21875 49.421875 
Q 16.21875 41.5 20.09375 36.953125 
Q 23.96875 32.421875 30.609375 32.421875 
z
" id="DejaVuSans-39"/>
      </defs>
      <g transform="translate(20.878125 34.548181)scale(0.1 -0.1)">
       <use xlink:href="#DejaVuSans-30"/>
       <use x="63.623047" xlink:href="#DejaVuSans-2e"/>
       <use x="95.410156" xlink:href="#DejaVuSans-39"/>
       <use x="159.033203" xlink:href="#DejaVuSans-30"/>
      </g>
     </g>
    </g>
    <g id="text_11">
     <!-- Correlation [-] -->
     <defs>
      <path d="M 8.59375 75.984375 
L 29.296875 75.984375 
L 29.296875 69 
L 17.578125 69 
L 17.578125 -6.203125 
L 29.296875 -6.203125 
L 29.296875 -13.1875 
L 8.59375 -13.1875 
z
" id="DejaVuSans-5b"/>
      <path d="M 4.890625 31.390625 
L 31.203125 31.390625 
L 31.203125 23.390625 
L 4.890625 23.390625 
z
" id="DejaVuSans-2d"/>
      <path d="M 30.421875 75.984375 
L 30.421875 -13.1875 
L 9.71875 -13.1875 
L 9.71875 -6.203125 
L 21.390625 -6.203125 
L 21.390625 69 
L 9.71875 69 
L 9.71875 75.984375 
z
" id="DejaVuSans-5d"/>
     </defs>
     <g transform="translate(14.798437 168.259062)rotate(-90)scale(0.1 -0.1)">
      <use xlink:href="#DejaVuSans-43"/>
      <use x="69.824219" xlink:href="#DejaVuSans-6f"/>
      <use x="131.005859" xlink:href="#DejaVuSans-72"/>
      <use x="172.103516" xlink:href="#DejaVuSans-72"/>
      <use x="213.185547" xlink:href="#DejaVuSans-65"/>
      <use x="274.708984" xlink:href="#DejaVuSans-6c"/>
      <use x="302.492188" xlink:href="#DejaVuSans-61"/>
      <use x="363.771484" xlink:href="#DejaVuSans-74"/>
      <use x="402.980469" xlink:href="#DejaVuSans-69"/>
      <use x="430.763672" xlink:href="#DejaVuSans-6f"/>
      <use x="491.945312" xlink:href="#DejaVuSans-6e"/>
      <use x="555.324219" xlink:href="#DejaVuSans-20"/>
      <use x="587.111328" xlink:href="#DejaVuSans-5b"/>
      <use x="626.125" xlink:href="#DejaVuSans-2d"/>
      <use x="662.208984" xlink:href="#DejaVuSans-5d"/>
     </g>
    </g>
   </g>
   <g id="line2d_11">
    <path clip-path="url(#p1c9beff62f)" d="M 124.54375 124.147779 
L 124.54375 181.234023 
" style="fill:none;stroke:#000000;stroke-linecap:square;stroke-width:0.5;"/>
   </g>
   <g id="line2d_12">
    <path clip-path="url(#p1c9beff62f)" d="M 124.54375 69.184626 
L 124.54375 44.224733 
" style="fill:none;stroke:#000000;stroke-linecap:square;stroke-width:0.5;"/>
   </g>
   <g id="line2d_13">
    <path clip-path="url(#p1c9beff62f)" d="M 113.38375 181.234023 
L 135.70375 181.234023 
" style="fill:none;stroke:#000000;stroke-linecap:square;stroke-width:0.5;"/>
   </g>
   <g id="line2d_14">
    <path clip-path="url(#p1c9beff62f)" d="M 113.38375 44.224733 
L 135.70375 44.224733 
" style="fill:none;stroke:#000000;stroke-linecap:square;stroke-width:0.5;"/>
   </g>
   <g id="line2d_15">
    <defs>
     <path d="M -1.5 0 
L 1.5 0 
M 0 1.5 
L 0 -1.5 
" id="mcad84f8bde" style="stroke:#000000;stroke-width:0.5;"/>
    </defs>
    <g clip-path="url(#p1c9beff62f)">
     <use style="opacity:0.3;stroke:#000000;stroke-width:0.5;" x="124.54375" xlink:href="#mcad84f8bde" y="186.570605"/>
     <use style="opacity:0.3;stroke:#000000;stroke-width:0.5;" x="124.54375" xlink:href="#mcad84f8bde" y="219.154615"/>
     <use style="opacity:0.3;stroke:#000000;stroke-width:0.5;" x="124.54375" xlink:href="#mcad84f8bde" y="186.371504"/>
     <use style="opacity:0.3;stroke:#000000;stroke-width:0.5;" x="124.54375" xlink:href="#mcad84f8bde" y="38.779735"/>
     <use style="opacity:0.3;stroke:#000000;stroke-width:0.5;" x="124.54375" xlink:href="#mcad84f8bde" y="33.272277"/>
     <use style="opacity:0.3;stroke:#000000;stroke-width:0.5;" x="124.54375" xlink:href="#mcad84f8bde" y="42.844113"/>
    </g>
   </g>
   <g id="line2d_16">
    <path clip-path="url(#p1c9beff62f)" d="M 273.34375 103.087776 
L 273.34375 120.011934 
" style="fill:none;stroke:#000000;stroke-linecap:square;stroke-width:0.5;"/>
   </g>
   <g id="line2d_17">
    <path clip-path="url(#p1c9beff62f)" d="M 273.34375 76.840838 
L 273.34375 55.850942 
" style="fill:none;stroke:#000000;stroke-linecap:square;stroke-width:0.5;"/>
   </g>
   <g id="line2d_18">
    <path clip-path="url(#p1c9beff62f)" d="M 262.18375 120.011934 
L 284.50375 120.011934 
" style="fill:none;stroke:#000000;stroke-linecap:square;stroke-width:0.5;"/>
   </g>
   <g id="line2d_19">
    <path clip-path="url(#p1c9beff62f)" d="M 262.18375 55.850942 
L 284.50375 55.850942 
" style="fill:none;stroke:#000000;stroke-linecap:square;stroke-width:0.5;"/>
   </g>
   <g id="line2d_20">
    <g clip-path="url(#p1c9beff62f)">
     <use style="opacity:0.3;stroke:#000000;stroke-width:0.5;" x="273.34375" xlink:href="#mcad84f8bde" y="162.651968"/>
     <use style="opacity:0.3;stroke:#000000;stroke-width:0.5;" x="273.34375" xlink:href="#mcad84f8bde" y="141.907455"/>
     <use style="opacity:0.3;stroke:#000000;stroke-width:0.5;" x="273.34375" xlink:href="#mcad84f8bde" y="126.682578"/>
     <use style="opacity:0.3;stroke:#000000;stroke-width:0.5;" x="273.34375" xlink:href="#mcad84f8bde" y="50.713109"/>
     <use style="opacity:0.3;stroke:#000000;stroke-width:0.5;" x="273.34375" xlink:href="#mcad84f8bde" y="54.369618"/>
     <use style="opacity:0.3;stroke:#000000;stroke-width:0.5;" x="273.34375" xlink:href="#mcad84f8bde" y="55.024867"/>
    </g>
   </g>
   <g id="line2d_21">
    <path clip-path="url(#p1c9beff62f)" d="M 422.14375 147.911975 
L 422.14375 207.775818 
" style="fill:none;stroke:#000000;stroke-linecap:square;stroke-width:0.5;"/>
   </g>
   <g id="line2d_22">
    <path clip-path="url(#p1c9beff62f)" d="M 422.14375 105.823181 
L 422.14375 86.255668 
" style="fill:none;stroke:#000000;stroke-linecap:square;stroke-width:0.5;"/>
   </g>
   <g id="line2d_23">
    <path clip-path="url(#p1c9beff62f)" d="M 410.98375 207.775818 
L 433.30375 207.775818 
" style="fill:none;stroke:#000000;stroke-linecap:square;stroke-width:0.5;"/>
   </g>
   <g id="line2d_24">
    <path clip-path="url(#p1c9beff62f)" d="M 410.98375 86.255668 
L 433.30375 86.255668 
" style="fill:none;stroke:#000000;stroke-linecap:square;stroke-width:0.5;"/>
   </g>
   <g id="line2d_25">
    <g clip-path="url(#p1c9beff62f)">
     <use style="opacity:0.3;stroke:#000000;stroke-width:0.5;" x="422.14375" xlink:href="#mcad84f8bde" y="233.120149"/>
     <use style="opacity:0.3;stroke:#000000;stroke-width:0.5;" x="422.14375" xlink:href="#mcad84f8bde" y="213.391942"/>
     <use style="opacity:0.3;stroke:#000000;stroke-width:0.5;" x="422.14375" xlink:href="#mcad84f8bde" y="216.707526"/>
     <use style="opacity:0.3;stroke:#000000;stroke-width:0.5;" x="422.14375" xlink:href="#mcad84f8bde" y="74.13391"/>
     <use style="opacity:0.3;stroke:#000000;stroke-width:0.5;" x="422.14375" xlink:href="#mcad84f8bde" y="72.634834"/>
     <use style="opacity:0.3;stroke:#000000;stroke-width:0.5;" x="422.14375" xlink:href="#mcad84f8bde" y="48.853474"/>
    </g>
   </g>
   <g id="patch_3">
    <path clip-path="url(#p1c9beff62f)" d="M 102.22375 124.147779 
L 146.86375 124.147779 
L 146.86375 69.184626 
L 102.22375 69.184626 
L 102.22375 124.147779 
z
" style="fill:#1f78b4;opacity:0.2;stroke:#1f78b4;stroke-linejoin:miter;stroke-width:0.5;"/>
   </g>
   <g id="patch_4">
    <path clip-path="url(#p1c9beff62f)" d="M 251.02375 103.087776 
L 295.66375 103.087776 
L 295.66375 76.840838 
L 251.02375 76.840838 
L 251.02375 103.087776 
z
" style="fill:#33a02c;opacity:0.2;stroke:#33a02c;stroke-linejoin:miter;stroke-width:0.5;"/>
   </g>
   <g id="patch_5">
    <path clip-path="url(#p1c9beff62f)" d="M 399.82375 147.911975 
L 444.46375 147.911975 
L 444.46375 105.823181 
L 399.82375 105.823181 
L 399.82375 147.911975 
z
" style="fill:#e31a1c;opacity:0.2;stroke:#e31a1c;stroke-linejoin:miter;stroke-width:0.5;"/>
   </g>
   <g id="line2d_26">
    <path clip-path="url(#p1c9beff62f)" d="M 102.22375 91.885447 
L 146.86375 91.885447 
" style="fill:none;stroke:#1f78b4;stroke-linecap:square;stroke-width:0.5;"/>
   </g>
   <g id="line2d_27">
    <path clip-path="url(#p1c9beff62f)" d="M 124.54375 101.698199 
" style="fill:none;stroke:#2ca02c;stroke-dasharray:3.7,1.6;stroke-dashoffset:0;"/>
    <defs>
     <path d="M -0 2.12132 
L 2.12132 0 
L 0 -2.12132 
L -2.12132 -0 
z
" id="m8a6d46bdde" style="stroke:#000000;stroke-linejoin:miter;stroke-width:0.3;"/>
    </defs>
    <g clip-path="url(#p1c9beff62f)">
     <use style="fill:#a6cee3;stroke:#000000;stroke-linejoin:miter;stroke-width:0.3;" x="124.54375" xlink:href="#m8a6d46bdde" y="101.698199"/>
    </g>
   </g>
   <g id="line2d_28">
    <path clip-path="url(#p1c9beff62f)" d="M 251.02375 92.348665 
L 295.66375 92.348665 
" style="fill:none;stroke:#33a02c;stroke-linecap:square;stroke-width:0.5;"/>
   </g>
   <g id="line2d_29">
    <path clip-path="url(#p1c9beff62f)" d="M 273.34375 92.031356 
" style="fill:none;stroke:#2ca02c;stroke-dasharray:3.7,1.6;stroke-dashoffset:0;"/>
    <defs>
     <path d="M -0 2.12132 
L 2.12132 0 
L 0 -2.12132 
L -2.12132 -0 
z
" id="mb757c2cecb" style="stroke:#000000;stroke-linejoin:miter;stroke-width:0.3;"/>
    </defs>
    <g clip-path="url(#p1c9beff62f)">
     <use style="fill:#b2df8a;stroke:#000000;stroke-linejoin:miter;stroke-width:0.3;" x="273.34375" xlink:href="#mb757c2cecb" y="92.031356"/>
    </g>
   </g>
   <g id="line2d_30">
    <path clip-path="url(#p1c9beff62f)" d="M 399.82375 131.135212 
L 444.46375 131.135212 
" style="fill:none;stroke:#e31a1c;stroke-linecap:square;stroke-width:0.5;"/>
   </g>
   <g id="line2d_31">
    <path clip-path="url(#p1c9beff62f)" d="M 422.14375 132.212833 
" style="fill:none;stroke:#2ca02c;stroke-dasharray:3.7,1.6;stroke-dashoffset:0;"/>
    <defs>
     <path d="M -0 2.12132 
L 2.12132 0 
L 0 -2.12132 
L -2.12132 -0 
z
" id="me3e6d919fd" style="stroke:#000000;stroke-linejoin:miter;stroke-width:0.3;"/>
    </defs>
    <g clip-path="url(#p1c9beff62f)">
     <use style="fill:#fb9a99;stroke:#000000;stroke-linejoin:miter;stroke-width:0.3;" x="422.14375" xlink:href="#me3e6d919fd" y="132.212833"/>
    </g>
   </g>
   <g id="patch_6">
    <path d="M 50.14375 244.078125 
L 50.14375 22.318125 
" style="fill:none;stroke:#000000;stroke-linecap:square;stroke-linejoin:miter;stroke-width:0.8;"/>
   </g>
   <g id="patch_7">
    <path d="M 496.54375 244.078125 
L 496.54375 22.318125 
" style="fill:none;stroke:#000000;stroke-linecap:square;stroke-linejoin:miter;stroke-width:0.8;"/>
   </g>
   <g id="patch_8">
    <path d="M 50.14375 244.078125 
L 496.54375 244.078125 
" style="fill:none;stroke:#000000;stroke-linecap:square;stroke-linejoin:miter;stroke-width:0.8;"/>
   </g>
   <g id="patch_9">
    <path d="M 50.14375 22.318125 
L 496.54375 22.318125 
" style="fill:none;stroke:#000000;stroke-linecap:square;stroke-linejoin:miter;stroke-width:0.8;"/>
   </g>
   <g id="text_12">
    <!-- Correlation of cell states with hydrological system states/fluxes -->
    <defs>
     <path d="M 37.109375 75.984375 
L 37.109375 68.5 
L 28.515625 68.5 
Q 23.6875 68.5 21.796875 66.546875 
Q 19.921875 64.59375 19.921875 59.515625 
L 19.921875 54.6875 
L 34.71875 54.6875 
L 34.71875 47.703125 
L 19.921875 47.703125 
L 19.921875 0 
L 10.890625 0 
L 10.890625 47.703125 
L 2.296875 47.703125 
L 2.296875 54.6875 
L 10.890625 54.6875 
L 10.890625 58.5 
Q 10.890625 67.625 15.140625 71.796875 
Q 19.390625 75.984375 28.609375 75.984375 
z
" id="DejaVuSans-66"/>
     <path d="M 54.890625 33.015625 
L 54.890625 0 
L 45.90625 0 
L 45.90625 32.71875 
Q 45.90625 40.484375 42.875 44.328125 
Q 39.84375 48.1875 33.796875 48.1875 
Q 26.515625 48.1875 22.3125 43.546875 
Q 18.109375 38.921875 18.109375 30.90625 
L 18.109375 0 
L 9.078125 0 
L 9.078125 75.984375 
L 18.109375 75.984375 
L 18.109375 46.1875 
Q 21.34375 51.125 25.703125 53.5625 
Q 30.078125 56 35.796875 56 
Q 45.21875 56 50.046875 50.171875 
Q 54.890625 44.34375 54.890625 33.015625 
z
" id="DejaVuSans-68"/>
     <path d="M 32.171875 -5.078125 
Q 28.375 -14.84375 24.75 -17.8125 
Q 21.140625 -20.796875 15.09375 -20.796875 
L 7.90625 -20.796875 
L 7.90625 -13.28125 
L 13.1875 -13.28125 
Q 16.890625 -13.28125 18.9375 -11.515625 
Q 21 -9.765625 23.484375 -3.21875 
L 25.09375 0.875 
L 2.984375 54.6875 
L 12.5 54.6875 
L 29.59375 11.921875 
L 46.6875 54.6875 
L 56.203125 54.6875 
z
" id="DejaVuSans-79"/>
     <path d="M 45.40625 46.390625 
L 45.40625 75.984375 
L 54.390625 75.984375 
L 54.390625 0 
L 45.40625 0 
L 45.40625 8.203125 
Q 42.578125 3.328125 38.25 0.953125 
Q 33.9375 -1.421875 27.875 -1.421875 
Q 17.96875 -1.421875 11.734375 6.484375 
Q 5.515625 14.40625 5.515625 27.296875 
Q 5.515625 40.1875 11.734375 48.09375 
Q 17.96875 56 27.875 56 
Q 33.9375 56 38.25 53.625 
Q 42.578125 51.265625 45.40625 46.390625 
z
M 14.796875 27.296875 
Q 14.796875 17.390625 18.875 11.75 
Q 22.953125 6.109375 30.078125 6.109375 
Q 37.203125 6.109375 41.296875 11.75 
Q 45.40625 17.390625 45.40625 27.296875 
Q 45.40625 37.203125 41.296875 42.84375 
Q 37.203125 48.484375 30.078125 48.484375 
Q 22.953125 48.484375 18.875 42.84375 
Q 14.796875 37.203125 14.796875 27.296875 
z
" id="DejaVuSans-64"/>
     <path d="M 45.40625 27.984375 
Q 45.40625 37.75 41.375 43.109375 
Q 37.359375 48.484375 30.078125 48.484375 
Q 22.859375 48.484375 18.828125 43.109375 
Q 14.796875 37.75 14.796875 27.984375 
Q 14.796875 18.265625 18.828125 12.890625 
Q 22.859375 7.515625 30.078125 7.515625 
Q 37.359375 7.515625 41.375 12.890625 
Q 45.40625 18.265625 45.40625 27.984375 
z
M 54.390625 6.78125 
Q 54.390625 -7.171875 48.1875 -13.984375 
Q 42 -20.796875 29.203125 -20.796875 
Q 24.46875 -20.796875 20.265625 -20.09375 
Q 16.0625 -19.390625 12.109375 -17.921875 
L 12.109375 -9.1875 
Q 16.0625 -11.328125 19.921875 -12.34375 
Q 23.78125 -13.375 27.78125 -13.375 
Q 36.625 -13.375 41.015625 -8.765625 
Q 45.40625 -4.15625 45.40625 5.171875 
L 45.40625 9.625 
Q 42.625 4.78125 38.28125 2.390625 
Q 33.9375 0 27.875 0 
Q 17.828125 0 11.671875 7.65625 
Q 5.515625 15.328125 5.515625 27.984375 
Q 5.515625 40.671875 11.671875 48.328125 
Q 17.828125 56 27.875 56 
Q 33.9375 56 38.28125 53.609375 
Q 42.625 51.21875 45.40625 46.390625 
L 45.40625 54.6875 
L 54.390625 54.6875 
z
" id="DejaVuSans-67"/>
     <path d="M 52 44.1875 
Q 55.375 50.25 60.0625 53.125 
Q 64.75 56 71.09375 56 
Q 79.640625 56 84.28125 50.015625 
Q 88.921875 44.046875 88.921875 33.015625 
L 88.921875 0 
L 79.890625 0 
L 79.890625 32.71875 
Q 79.890625 40.578125 77.09375 44.375 
Q 74.3125 48.1875 68.609375 48.1875 
Q 61.625 48.1875 57.5625 43.546875 
Q 53.515625 38.921875 53.515625 30.90625 
L 53.515625 0 
L 44.484375 0 
L 44.484375 32.71875 
Q 44.484375 40.625 41.703125 44.40625 
Q 38.921875 48.1875 33.109375 48.1875 
Q 26.21875 48.1875 22.15625 43.53125 
Q 18.109375 38.875 18.109375 30.90625 
L 18.109375 0 
L 9.078125 0 
L 9.078125 54.6875 
L 18.109375 54.6875 
L 18.109375 46.1875 
Q 21.1875 51.21875 25.484375 53.609375 
Q 29.78125 56 35.6875 56 
Q 41.65625 56 45.828125 52.96875 
Q 50 49.953125 52 44.1875 
z
" id="DejaVuSans-6d"/>
     <path d="M 25.390625 72.90625 
L 33.6875 72.90625 
L 8.296875 -9.28125 
L 0 -9.28125 
z
" id="DejaVuSans-2f"/>
     <path d="M 54.890625 54.6875 
L 35.109375 28.078125 
L 55.90625 0 
L 45.3125 0 
L 29.390625 21.484375 
L 13.484375 0 
L 2.875 0 
L 24.125 28.609375 
L 4.6875 54.6875 
L 15.28125 54.6875 
L 29.78125 35.203125 
L 44.28125 54.6875 
z
" id="DejaVuSans-78"/>
    </defs>
    <g transform="translate(82.775313 16.318125)scale(0.12 -0.12)">
     <use xlink:href="#DejaVuSans-43"/>
     <use x="69.824219" xlink:href="#DejaVuSans-6f"/>
     <use x="131.005859" xlink:href="#DejaVuSans-72"/>
     <use x="172.103516" xlink:href="#DejaVuSans-72"/>
     <use x="213.185547" xlink:href="#DejaVuSans-65"/>
     <use x="274.708984" xlink:href="#DejaVuSans-6c"/>
     <use x="302.492188" xlink:href="#DejaVuSans-61"/>
     <use x="363.771484" xlink:href="#DejaVuSans-74"/>
     <use x="402.980469" xlink:href="#DejaVuSans-69"/>
     <use x="430.763672" xlink:href="#DejaVuSans-6f"/>
     <use x="491.945312" xlink:href="#DejaVuSans-6e"/>
     <use x="555.324219" xlink:href="#DejaVuSans-20"/>
     <use x="587.111328" xlink:href="#DejaVuSans-6f"/>
     <use x="648.292969" xlink:href="#DejaVuSans-66"/>
     <use x="683.498047" xlink:href="#DejaVuSans-20"/>
     <use x="715.285156" xlink:href="#DejaVuSans-63"/>
     <use x="770.265625" xlink:href="#DejaVuSans-65"/>
     <use x="831.789062" xlink:href="#DejaVuSans-6c"/>
     <use x="859.572266" xlink:href="#DejaVuSans-6c"/>
     <use x="887.355469" xlink:href="#DejaVuSans-20"/>
     <use x="919.142578" xlink:href="#DejaVuSans-73"/>
     <use x="971.242188" xlink:href="#DejaVuSans-74"/>
     <use x="1010.451172" xlink:href="#DejaVuSans-61"/>
     <use x="1071.730469" xlink:href="#DejaVuSans-74"/>
     <use x="1110.939453" xlink:href="#DejaVuSans-65"/>
     <use x="1172.462891" xlink:href="#DejaVuSans-73"/>
     <use x="1224.5625" xlink:href="#DejaVuSans-20"/>
     <use x="1256.349609" xlink:href="#DejaVuSans-77"/>
     <use x="1338.136719" xlink:href="#DejaVuSans-69"/>
     <use x="1365.919922" xlink:href="#DejaVuSans-74"/>
     <use x="1405.128906" xlink:href="#DejaVuSans-68"/>
     <use x="1468.507812" xlink:href="#DejaVuSans-20"/>
     <use x="1500.294922" xlink:href="#DejaVuSans-68"/>
     <use x="1563.673828" xlink:href="#DejaVuSans-79"/>
     <use x="1622.853516" xlink:href="#DejaVuSans-64"/>
     <use x="1686.330078" xlink:href="#DejaVuSans-72"/>
     <use x="1727.412109" xlink:href="#DejaVuSans-6f"/>
     <use x="1788.59375" xlink:href="#DejaVuSans-6c"/>
     <use x="1816.376953" xlink:href="#DejaVuSans-6f"/>
     <use x="1877.558594" xlink:href="#DejaVuSans-67"/>
     <use x="1941.035156" xlink:href="#DejaVuSans-69"/>
     <use x="1968.818359" xlink:href="#DejaVuSans-63"/>
     <use x="2023.798828" xlink:href="#DejaVuSans-61"/>
     <use x="2085.078125" xlink:href="#DejaVuSans-6c"/>
     <use x="2112.861328" xlink:href="#DejaVuSans-20"/>
     <use x="2144.648438" xlink:href="#DejaVuSans-73"/>
     <use x="2196.748047" xlink:href="#DejaVuSans-79"/>
     <use x="2255.927734" xlink:href="#DejaVuSans-73"/>
     <use x="2308.027344" xlink:href="#DejaVuSans-74"/>
     <use x="2347.236328" xlink:href="#DejaVuSans-65"/>
     <use x="2408.759766" xlink:href="#DejaVuSans-6d"/>
     <use x="2506.171875" xlink:href="#DejaVuSans-20"/>
     <use x="2537.958984" xlink:href="#DejaVuSans-73"/>
     <use x="2590.058594" xlink:href="#DejaVuSans-74"/>
     <use x="2629.267578" xlink:href="#DejaVuSans-61"/>
     <use x="2690.546875" xlink:href="#DejaVuSans-74"/>
     <use x="2729.755859" xlink:href="#DejaVuSans-65"/>
     <use x="2791.279297" xlink:href="#DejaVuSans-73"/>
     <use x="2843.378906" xlink:href="#DejaVuSans-2f"/>
     <use x="2877.070312" xlink:href="#DejaVuSans-66"/>
     <use x="2912.275391" xlink:href="#DejaVuSans-6c"/>
     <use x="2940.058594" xlink:href="#DejaVuSans-75"/>
     <use x="3003.4375" xlink:href="#DejaVuSans-78"/>
     <use x="3062.570312" xlink:href="#DejaVuSans-65"/>
     <use x="3124.09375" xlink:href="#DejaVuSans-73"/>
    </g>
   </g>
  </g>
 </g>
 <defs>
  <clipPath id="p1c9beff62f">
   <rect height="221.76" width="446.4" x="50.14375" y="22.318125"/>
  </clipPath>
 </defs>
</svg>
