<?xml version="1.0" encoding="utf-8" standalone="no"?>
<!DOCTYPE svg PUBLIC "-//W3C//DTD SVG 1.1//EN"
  "http://www.w3.org/Graphics/SVG/1.1/DTD/svg11.dtd">
<!-- Created with matplotlib (http://matplotlib.org/) -->
<svg height="281.634375pt" version="1.1" viewBox="0 0 596.578125 281.634375" width="596.578125pt" xmlns="http://www.w3.org/2000/svg" xmlns:xlink="http://www.w3.org/1999/xlink">
 <defs>
  <style type="text/css">
*{stroke-linecap:butt;stroke-linejoin:round;}
  </style>
 </defs>
 <g id="figure_1">
  <g id="patch_1">
   <path d="M 0 281.634375 
L 596.578125 281.634375 
L 596.578125 0 
L 0 0 
z
" style="fill:#ffffff;"/>
  </g>
  <g id="axes_1">
   <g id="patch_2">
    <path d="M 27.878125 244.078125 
L 585.878125 244.078125 
L 585.878125 22.318125 
L 27.878125 22.318125 
z
" style="fill:#ffffff;"/>
   </g>
   <g id="matplotlib.axis_1">
    <g id="xtick_1">
     <g id="line2d_1">
      <defs>
       <path d="M 0 0 
L 0 3.5 
" id="mbf1ec66cce" style="stroke:#000000;stroke-width:0.8;"/>
      </defs>
      <g>
       <use style="stroke:#000000;stroke-width:0.8;" x="45.350852" xlink:href="#mbf1ec66cce" y="244.078125"/>
      </g>
     </g>
     <g id="text_1">
      <!-- 2007 -->
      <defs>
       <path d="M 19.1875 8.296875 
L 53.609375 8.296875 
L 53.609375 0 
L 7.328125 0 
L 7.328125 8.296875 
Q 12.9375 14.109375 22.625 23.890625 
Q 32.328125 33.6875 34.8125 36.53125 
Q 39.546875 41.84375 41.421875 45.53125 
Q 43.3125 49.21875 43.3125 52.78125 
Q 43.3125 58.59375 39.234375 62.25 
Q 35.15625 65.921875 28.609375 65.921875 
Q 23.96875 65.921875 18.8125 64.3125 
Q 13.671875 62.703125 7.8125 59.421875 
L 7.8125 69.390625 
Q 13.765625 71.78125 18.9375 73 
Q 24.125 74.21875 28.421875 74.21875 
Q 39.75 74.21875 46.484375 68.546875 
Q 53.21875 62.890625 53.21875 53.421875 
Q 53.21875 48.921875 51.53125 44.890625 
Q 49.859375 40.875 45.40625 35.40625 
Q 44.1875 33.984375 37.640625 27.21875 
Q 31.109375 20.453125 19.1875 8.296875 
z
" id="DejaVuSans-32"/>
       <path d="M 31.78125 66.40625 
Q 24.171875 66.40625 20.328125 58.90625 
Q 16.5 51.421875 16.5 36.375 
Q 16.5 21.390625 20.328125 13.890625 
Q 24.171875 6.390625 31.78125 6.390625 
Q 39.453125 6.390625 43.28125 13.890625 
Q 47.125 21.390625 47.125 36.375 
Q 47.125 51.421875 43.28125 58.90625 
Q 39.453125 66.40625 31.78125 66.40625 
z
M 31.78125 74.21875 
Q 44.046875 74.21875 50.515625 64.515625 
Q 56.984375 54.828125 56.984375 36.375 
Q 56.984375 17.96875 50.515625 8.265625 
Q 44.046875 -1.421875 31.78125 -1.421875 
Q 19.53125 -1.421875 13.0625 8.265625 
Q 6.59375 17.96875 6.59375 36.375 
Q 6.59375 54.828125 13.0625 64.515625 
Q 19.53125 74.21875 31.78125 74.21875 
z
" id="DejaVuSans-30"/>
       <path d="M 8.203125 72.90625 
L 55.078125 72.90625 
L 55.078125 68.703125 
L 28.609375 0 
L 18.3125 0 
L 43.21875 64.59375 
L 8.203125 64.59375 
z
" id="DejaVuSans-37"/>
      </defs>
      <g transform="translate(32.625852 258.676562)scale(0.1 -0.1)">
       <use xlink:href="#DejaVuSans-32"/>
       <use x="63.623047" xlink:href="#DejaVuSans-30"/>
       <use x="127.246094" xlink:href="#DejaVuSans-30"/>
       <use x="190.869141" xlink:href="#DejaVuSans-37"/>
      </g>
     </g>
    </g>
    <g id="xtick_2">
     <g id="line2d_2">
      <g>
       <use style="stroke:#000000;stroke-width:0.8;" x="113.92661" xlink:href="#mbf1ec66cce" y="244.078125"/>
      </g>
     </g>
     <g id="text_2">
      <!-- 2008 -->
      <defs>
       <path d="M 31.78125 34.625 
Q 24.75 34.625 20.71875 30.859375 
Q 16.703125 27.09375 16.703125 20.515625 
Q 16.703125 13.921875 20.71875 10.15625 
Q 24.75 6.390625 31.78125 6.390625 
Q 38.8125 6.390625 42.859375 10.171875 
Q 46.921875 13.96875 46.921875 20.515625 
Q 46.921875 27.09375 42.890625 30.859375 
Q 38.875 34.625 31.78125 34.625 
z
M 21.921875 38.8125 
Q 15.578125 40.375 12.03125 44.71875 
Q 8.5 49.078125 8.5 55.328125 
Q 8.5 64.0625 14.71875 69.140625 
Q 20.953125 74.21875 31.78125 74.21875 
Q 42.671875 74.21875 48.875 69.140625 
Q 55.078125 64.0625 55.078125 55.328125 
Q 55.078125 49.078125 51.53125 44.71875 
Q 48 40.375 41.703125 38.8125 
Q 48.828125 37.15625 52.796875 32.3125 
Q 56.78125 27.484375 56.78125 20.515625 
Q 56.78125 9.90625 50.3125 4.234375 
Q 43.84375 -1.421875 31.78125 -1.421875 
Q 19.734375 -1.421875 13.25 4.234375 
Q 6.78125 9.90625 6.78125 20.515625 
Q 6.78125 27.484375 10.78125 32.3125 
Q 14.796875 37.15625 21.921875 38.8125 
z
M 18.3125 54.390625 
Q 18.3125 48.734375 21.84375 45.5625 
Q 25.390625 42.390625 31.78125 42.390625 
Q 38.140625 42.390625 41.71875 45.5625 
Q 45.3125 48.734375 45.3125 54.390625 
Q 45.3125 60.0625 41.71875 63.234375 
Q 38.140625 66.40625 31.78125 66.40625 
Q 25.390625 66.40625 21.84375 63.234375 
Q 18.3125 60.0625 18.3125 54.390625 
z
" id="DejaVuSans-38"/>
      </defs>
      <g transform="translate(101.20161 258.676562)scale(0.1 -0.1)">
       <use xlink:href="#DejaVuSans-32"/>
       <use x="63.623047" xlink:href="#DejaVuSans-30"/>
       <use x="127.246094" xlink:href="#DejaVuSans-30"/>
       <use x="190.869141" xlink:href="#DejaVuSans-38"/>
      </g>
     </g>
    </g>
    <g id="xtick_3">
     <g id="line2d_3">
      <g>
       <use style="stroke:#000000;stroke-width:0.8;" x="182.690246" xlink:href="#mbf1ec66cce" y="244.078125"/>
      </g>
     </g>
     <g id="text_3">
      <!-- 2009 -->
      <defs>
       <path d="M 10.984375 1.515625 
L 10.984375 10.5 
Q 14.703125 8.734375 18.5 7.8125 
Q 22.3125 6.890625 25.984375 6.890625 
Q 35.75 6.890625 40.890625 13.453125 
Q 46.046875 20.015625 46.78125 33.40625 
Q 43.953125 29.203125 39.59375 26.953125 
Q 35.25 24.703125 29.984375 24.703125 
Q 19.046875 24.703125 12.671875 31.3125 
Q 6.296875 37.9375 6.296875 49.421875 
Q 6.296875 60.640625 12.9375 67.421875 
Q 19.578125 74.21875 30.609375 74.21875 
Q 43.265625 74.21875 49.921875 64.515625 
Q 56.59375 54.828125 56.59375 36.375 
Q 56.59375 19.140625 48.40625 8.859375 
Q 40.234375 -1.421875 26.421875 -1.421875 
Q 22.703125 -1.421875 18.890625 -0.6875 
Q 15.09375 0.046875 10.984375 1.515625 
z
M 30.609375 32.421875 
Q 37.25 32.421875 41.125 36.953125 
Q 45.015625 41.5 45.015625 49.421875 
Q 45.015625 57.28125 41.125 61.84375 
Q 37.25 66.40625 30.609375 66.40625 
Q 23.96875 66.40625 20.09375 61.84375 
Q 16.21875 57.28125 16.21875 49.421875 
Q 16.21875 41.5 20.09375 36.953125 
Q 23.96875 32.421875 30.609375 32.421875 
z
" id="DejaVuSans-39"/>
      </defs>
      <g transform="translate(169.965246 258.676562)scale(0.1 -0.1)">
       <use xlink:href="#DejaVuSans-32"/>
       <use x="63.623047" xlink:href="#DejaVuSans-30"/>
       <use x="127.246094" xlink:href="#DejaVuSans-30"/>
       <use x="190.869141" xlink:href="#DejaVuSans-39"/>
      </g>
     </g>
    </g>
    <g id="xtick_4">
     <g id="line2d_4">
      <g>
       <use style="stroke:#000000;stroke-width:0.8;" x="251.266004" xlink:href="#mbf1ec66cce" y="244.078125"/>
      </g>
     </g>
     <g id="text_4">
      <!-- 2010 -->
      <defs>
       <path d="M 12.40625 8.296875 
L 28.515625 8.296875 
L 28.515625 63.921875 
L 10.984375 60.40625 
L 10.984375 69.390625 
L 28.421875 72.90625 
L 38.28125 72.90625 
L 38.28125 8.296875 
L 54.390625 8.296875 
L 54.390625 0 
L 12.40625 0 
z
" id="DejaVuSans-31"/>
      </defs>
      <g transform="translate(238.541004 258.676562)scale(0.1 -0.1)">
       <use xlink:href="#DejaVuSans-32"/>
       <use x="63.623047" xlink:href="#DejaVuSans-30"/>
       <use x="127.246094" xlink:href="#DejaVuSans-31"/>
       <use x="190.869141" xlink:href="#DejaVuSans-30"/>
      </g>
     </g>
    </g>
    <g id="xtick_5">
     <g id="line2d_5">
      <g>
       <use style="stroke:#000000;stroke-width:0.8;" x="319.841761" xlink:href="#mbf1ec66cce" y="244.078125"/>
      </g>
     </g>
     <g id="text_5">
      <!-- 2011 -->
      <g transform="translate(307.116761 258.676562)scale(0.1 -0.1)">
       <use xlink:href="#DejaVuSans-32"/>
       <use x="63.623047" xlink:href="#DejaVuSans-30"/>
       <use x="127.246094" xlink:href="#DejaVuSans-31"/>
       <use x="190.869141" xlink:href="#DejaVuSans-31"/>
      </g>
     </g>
    </g>
    <g id="xtick_6">
     <g id="line2d_6">
      <g>
       <use style="stroke:#000000;stroke-width:0.8;" x="388.417519" xlink:href="#mbf1ec66cce" y="244.078125"/>
      </g>
     </g>
     <g id="text_6">
      <!-- 2012 -->
      <g transform="translate(375.692519 258.676562)scale(0.1 -0.1)">
       <use xlink:href="#DejaVuSans-32"/>
       <use x="63.623047" xlink:href="#DejaVuSans-30"/>
       <use x="127.246094" xlink:href="#DejaVuSans-31"/>
       <use x="190.869141" xlink:href="#DejaVuSans-32"/>
      </g>
     </g>
    </g>
    <g id="xtick_7">
     <g id="line2d_7">
      <g>
       <use style="stroke:#000000;stroke-width:0.8;" x="457.181155" xlink:href="#mbf1ec66cce" y="244.078125"/>
      </g>
     </g>
     <g id="text_7">
      <!-- 2013 -->
      <defs>
       <path d="M 40.578125 39.3125 
Q 47.65625 37.796875 51.625 33 
Q 55.609375 28.21875 55.609375 21.1875 
Q 55.609375 10.40625 48.1875 4.484375 
Q 40.765625 -1.421875 27.09375 -1.421875 
Q 22.515625 -1.421875 17.65625 -0.515625 
Q 12.796875 0.390625 7.625 2.203125 
L 7.625 11.71875 
Q 11.71875 9.328125 16.59375 8.109375 
Q 21.484375 6.890625 26.8125 6.890625 
Q 36.078125 6.890625 40.9375 10.546875 
Q 45.796875 14.203125 45.796875 21.1875 
Q 45.796875 27.640625 41.28125 31.265625 
Q 36.765625 34.90625 28.71875 34.90625 
L 20.21875 34.90625 
L 20.21875 43.015625 
L 29.109375 43.015625 
Q 36.375 43.015625 40.234375 45.921875 
Q 44.09375 48.828125 44.09375 54.296875 
Q 44.09375 59.90625 40.109375 62.90625 
Q 36.140625 65.921875 28.71875 65.921875 
Q 24.65625 65.921875 20.015625 65.03125 
Q 15.375 64.15625 9.8125 62.3125 
L 9.8125 71.09375 
Q 15.4375 72.65625 20.34375 73.4375 
Q 25.25 74.21875 29.59375 74.21875 
Q 40.828125 74.21875 47.359375 69.109375 
Q 53.90625 64.015625 53.90625 55.328125 
Q 53.90625 49.265625 50.4375 45.09375 
Q 46.96875 40.921875 40.578125 39.3125 
z
" id="DejaVuSans-33"/>
      </defs>
      <g transform="translate(444.456155 258.676562)scale(0.1 -0.1)">
       <use xlink:href="#DejaVuSans-32"/>
       <use x="63.623047" xlink:href="#DejaVuSans-30"/>
       <use x="127.246094" xlink:href="#DejaVuSans-31"/>
       <use x="190.869141" xlink:href="#DejaVuSans-33"/>
      </g>
     </g>
    </g>
    <g id="xtick_8">
     <g id="line2d_8">
      <g>
       <use style="stroke:#000000;stroke-width:0.8;" x="525.756913" xlink:href="#mbf1ec66cce" y="244.078125"/>
      </g>
     </g>
     <g id="text_8">
      <!-- 2014 -->
      <defs>
       <path d="M 37.796875 64.3125 
L 12.890625 25.390625 
L 37.796875 25.390625 
z
M 35.203125 72.90625 
L 47.609375 72.90625 
L 47.609375 25.390625 
L 58.015625 25.390625 
L 58.015625 17.1875 
L 47.609375 17.1875 
L 47.609375 0 
L 37.796875 0 
L 37.796875 17.1875 
L 4.890625 17.1875 
L 4.890625 26.703125 
z
" id="DejaVuSans-34"/>
      </defs>
      <g transform="translate(513.031913 258.676562)scale(0.1 -0.1)">
       <use xlink:href="#DejaVuSans-32"/>
       <use x="63.623047" xlink:href="#DejaVuSans-30"/>
       <use x="127.246094" xlink:href="#DejaVuSans-31"/>
       <use x="190.869141" xlink:href="#DejaVuSans-34"/>
      </g>
     </g>
    </g>
    <g id="text_9">
     <!-- Date -->
     <defs>
      <path d="M 19.671875 64.796875 
L 19.671875 8.109375 
L 31.59375 8.109375 
Q 46.6875 8.109375 53.6875 14.9375 
Q 60.6875 21.78125 60.6875 36.53125 
Q 60.6875 51.171875 53.6875 57.984375 
Q 46.6875 64.796875 31.59375 64.796875 
z
M 9.8125 72.90625 
L 30.078125 72.90625 
Q 51.265625 72.90625 61.171875 64.09375 
Q 71.09375 55.28125 71.09375 36.53125 
Q 71.09375 17.671875 61.125 8.828125 
Q 51.171875 0 30.078125 0 
L 9.8125 0 
z
" id="DejaVuSans-44"/>
      <path d="M 34.28125 27.484375 
Q 23.390625 27.484375 19.1875 25 
Q 14.984375 22.515625 14.984375 16.5 
Q 14.984375 11.71875 18.140625 8.90625 
Q 21.296875 6.109375 26.703125 6.109375 
Q 34.1875 6.109375 38.703125 11.40625 
Q 43.21875 16.703125 43.21875 25.484375 
L 43.21875 27.484375 
z
M 52.203125 31.203125 
L 52.203125 0 
L 43.21875 0 
L 43.21875 8.296875 
Q 40.140625 3.328125 35.546875 0.953125 
Q 30.953125 -1.421875 24.3125 -1.421875 
Q 15.921875 -1.421875 10.953125 3.296875 
Q 6 8.015625 6 15.921875 
Q 6 25.140625 12.171875 29.828125 
Q 18.359375 34.515625 30.609375 34.515625 
L 43.21875 34.515625 
L 43.21875 35.40625 
Q 43.21875 41.609375 39.140625 45 
Q 35.0625 48.390625 27.6875 48.390625 
Q 23 48.390625 18.546875 47.265625 
Q 14.109375 46.140625 10.015625 43.890625 
L 10.015625 52.203125 
Q 14.9375 54.109375 19.578125 55.046875 
Q 24.21875 56 28.609375 56 
Q 40.484375 56 46.34375 49.84375 
Q 52.203125 43.703125 52.203125 31.203125 
z
" id="DejaVuSans-61"/>
      <path d="M 18.3125 70.21875 
L 18.3125 54.6875 
L 36.8125 54.6875 
L 36.8125 47.703125 
L 18.3125 47.703125 
L 18.3125 18.015625 
Q 18.3125 11.328125 20.140625 9.421875 
Q 21.96875 7.515625 27.59375 7.515625 
L 36.8125 7.515625 
L 36.8125 0 
L 27.59375 0 
Q 17.1875 0 13.234375 3.875 
Q 9.28125 7.765625 9.28125 18.015625 
L 9.28125 47.703125 
L 2.6875 47.703125 
L 2.6875 54.6875 
L 9.28125 54.6875 
L 9.28125 70.21875 
z
" id="DejaVuSans-74"/>
      <path d="M 56.203125 29.59375 
L 56.203125 25.203125 
L 14.890625 25.203125 
Q 15.484375 15.921875 20.484375 11.0625 
Q 25.484375 6.203125 34.421875 6.203125 
Q 39.59375 6.203125 44.453125 7.46875 
Q 49.3125 8.734375 54.109375 11.28125 
L 54.109375 2.78125 
Q 49.265625 0.734375 44.1875 -0.34375 
Q 39.109375 -1.421875 33.890625 -1.421875 
Q 20.796875 -1.421875 13.15625 6.1875 
Q 5.515625 13.8125 5.515625 26.8125 
Q 5.515625 40.234375 12.765625 48.109375 
Q 20.015625 56 32.328125 56 
Q 43.359375 56 49.78125 48.890625 
Q 56.203125 41.796875 56.203125 29.59375 
z
M 47.21875 32.234375 
Q 47.125 39.59375 43.09375 43.984375 
Q 39.0625 48.390625 32.421875 48.390625 
Q 24.90625 48.390625 20.390625 44.140625 
Q 15.875 39.890625 15.1875 32.171875 
z
" id="DejaVuSans-65"/>
     </defs>
     <g transform="translate(294.927344 272.354687)scale(0.1 -0.1)">
      <use xlink:href="#DejaVuSans-44"/>
      <use x="77.001953" xlink:href="#DejaVuSans-61"/>
      <use x="138.28125" xlink:href="#DejaVuSans-74"/>
      <use x="177.490234" xlink:href="#DejaVuSans-65"/>
     </g>
    </g>
   </g>
   <g id="matplotlib.axis_2">
    <g id="ytick_1">
     <g id="line2d_9">
      <defs>
       <path d="M 0 0 
L -3.5 0 
" id="md50c6a0f9f" style="stroke:#000000;stroke-width:0.8;"/>
      </defs>
      <g>
       <use style="stroke:#000000;stroke-width:0.8;" x="27.878125" xlink:href="#md50c6a0f9f" y="231.682553"/>
      </g>
     </g>
    </g>
    <g id="ytick_2">
     <g id="line2d_10">
      <g>
       <use style="stroke:#000000;stroke-width:0.8;" x="27.878125" xlink:href="#md50c6a0f9f" y="187.149293"/>
      </g>
     </g>
    </g>
    <g id="ytick_3">
     <g id="line2d_11">
      <g>
       <use style="stroke:#000000;stroke-width:0.8;" x="27.878125" xlink:href="#md50c6a0f9f" y="142.616033"/>
      </g>
     </g>
    </g>
    <g id="ytick_4">
     <g id="line2d_12">
      <g>
       <use style="stroke:#000000;stroke-width:0.8;" x="27.878125" xlink:href="#md50c6a0f9f" y="98.082773"/>
      </g>
     </g>
    </g>
    <g id="ytick_5">
     <g id="line2d_13">
      <g>
       <use style="stroke:#000000;stroke-width:0.8;" x="27.878125" xlink:href="#md50c6a0f9f" y="53.549513"/>
      </g>
     </g>
    </g>
    <g id="text_10">
     <!-- Normalized et/cell output -->
     <defs>
      <path d="M 9.8125 72.90625 
L 23.09375 72.90625 
L 55.421875 11.921875 
L 55.421875 72.90625 
L 64.984375 72.90625 
L 64.984375 0 
L 51.703125 0 
L 19.390625 60.984375 
L 19.390625 0 
L 9.8125 0 
z
" id="DejaVuSans-4e"/>
      <path d="M 30.609375 48.390625 
Q 23.390625 48.390625 19.1875 42.75 
Q 14.984375 37.109375 14.984375 27.296875 
Q 14.984375 17.484375 19.15625 11.84375 
Q 23.34375 6.203125 30.609375 6.203125 
Q 37.796875 6.203125 41.984375 11.859375 
Q 46.1875 17.53125 46.1875 27.296875 
Q 46.1875 37.015625 41.984375 42.703125 
Q 37.796875 48.390625 30.609375 48.390625 
z
M 30.609375 56 
Q 42.328125 56 49.015625 48.375 
Q 55.71875 40.765625 55.71875 27.296875 
Q 55.71875 13.875 49.015625 6.21875 
Q 42.328125 -1.421875 30.609375 -1.421875 
Q 18.84375 -1.421875 12.171875 6.21875 
Q 5.515625 13.875 5.515625 27.296875 
Q 5.515625 40.765625 12.171875 48.375 
Q 18.84375 56 30.609375 56 
z
" id="DejaVuSans-6f"/>
      <path d="M 41.109375 46.296875 
Q 39.59375 47.171875 37.8125 47.578125 
Q 36.03125 48 33.890625 48 
Q 26.265625 48 22.1875 43.046875 
Q 18.109375 38.09375 18.109375 28.8125 
L 18.109375 0 
L 9.078125 0 
L 9.078125 54.6875 
L 18.109375 54.6875 
L 18.109375 46.1875 
Q 20.953125 51.171875 25.484375 53.578125 
Q 30.03125 56 36.53125 56 
Q 37.453125 56 38.578125 55.875 
Q 39.703125 55.765625 41.0625 55.515625 
z
" id="DejaVuSans-72"/>
      <path d="M 52 44.1875 
Q 55.375 50.25 60.0625 53.125 
Q 64.75 56 71.09375 56 
Q 79.640625 56 84.28125 50.015625 
Q 88.921875 44.046875 88.921875 33.015625 
L 88.921875 0 
L 79.890625 0 
L 79.890625 32.71875 
Q 79.890625 40.578125 77.09375 44.375 
Q 74.3125 48.1875 68.609375 48.1875 
Q 61.625 48.1875 57.5625 43.546875 
Q 53.515625 38.921875 53.515625 30.90625 
L 53.515625 0 
L 44.484375 0 
L 44.484375 32.71875 
Q 44.484375 40.625 41.703125 44.40625 
Q 38.921875 48.1875 33.109375 48.1875 
Q 26.21875 48.1875 22.15625 43.53125 
Q 18.109375 38.875 18.109375 30.90625 
L 18.109375 0 
L 9.078125 0 
L 9.078125 54.6875 
L 18.109375 54.6875 
L 18.109375 46.1875 
Q 21.1875 51.21875 25.484375 53.609375 
Q 29.78125 56 35.6875 56 
Q 41.65625 56 45.828125 52.96875 
Q 50 49.953125 52 44.1875 
z
" id="DejaVuSans-6d"/>
      <path d="M 9.421875 75.984375 
L 18.40625 75.984375 
L 18.40625 0 
L 9.421875 0 
z
" id="DejaVuSans-6c"/>
      <path d="M 9.421875 54.6875 
L 18.40625 54.6875 
L 18.40625 0 
L 9.421875 0 
z
M 9.421875 75.984375 
L 18.40625 75.984375 
L 18.40625 64.59375 
L 9.421875 64.59375 
z
" id="DejaVuSans-69"/>
      <path d="M 5.515625 54.6875 
L 48.1875 54.6875 
L 48.1875 46.484375 
L 14.40625 7.171875 
L 48.1875 7.171875 
L 48.1875 0 
L 4.296875 0 
L 4.296875 8.203125 
L 38.09375 47.515625 
L 5.515625 47.515625 
z
" id="DejaVuSans-7a"/>
      <path d="M 45.40625 46.390625 
L 45.40625 75.984375 
L 54.390625 75.984375 
L 54.390625 0 
L 45.40625 0 
L 45.40625 8.203125 
Q 42.578125 3.328125 38.25 0.953125 
Q 33.9375 -1.421875 27.875 -1.421875 
Q 17.96875 -1.421875 11.734375 6.484375 
Q 5.515625 14.40625 5.515625 27.296875 
Q 5.515625 40.1875 11.734375 48.09375 
Q 17.96875 56 27.875 56 
Q 33.9375 56 38.25 53.625 
Q 42.578125 51.265625 45.40625 46.390625 
z
M 14.796875 27.296875 
Q 14.796875 17.390625 18.875 11.75 
Q 22.953125 6.109375 30.078125 6.109375 
Q 37.203125 6.109375 41.296875 11.75 
Q 45.40625 17.390625 45.40625 27.296875 
Q 45.40625 37.203125 41.296875 42.84375 
Q 37.203125 48.484375 30.078125 48.484375 
Q 22.953125 48.484375 18.875 42.84375 
Q 14.796875 37.203125 14.796875 27.296875 
z
" id="DejaVuSans-64"/>
      <path id="DejaVuSans-20"/>
      <path d="M 25.390625 72.90625 
L 33.6875 72.90625 
L 8.296875 -9.28125 
L 0 -9.28125 
z
" id="DejaVuSans-2f"/>
      <path d="M 48.78125 52.59375 
L 48.78125 44.1875 
Q 44.96875 46.296875 41.140625 47.34375 
Q 37.3125 48.390625 33.40625 48.390625 
Q 24.65625 48.390625 19.8125 42.84375 
Q 14.984375 37.3125 14.984375 27.296875 
Q 14.984375 17.28125 19.8125 11.734375 
Q 24.65625 6.203125 33.40625 6.203125 
Q 37.3125 6.203125 41.140625 7.25 
Q 44.96875 8.296875 48.78125 10.40625 
L 48.78125 2.09375 
Q 45.015625 0.34375 40.984375 -0.53125 
Q 36.96875 -1.421875 32.421875 -1.421875 
Q 20.0625 -1.421875 12.78125 6.34375 
Q 5.515625 14.109375 5.515625 27.296875 
Q 5.515625 40.671875 12.859375 48.328125 
Q 20.21875 56 33.015625 56 
Q 37.15625 56 41.109375 55.140625 
Q 45.0625 54.296875 48.78125 52.59375 
z
" id="DejaVuSans-63"/>
      <path d="M 8.5 21.578125 
L 8.5 54.6875 
L 17.484375 54.6875 
L 17.484375 21.921875 
Q 17.484375 14.15625 20.5 10.265625 
Q 23.53125 6.390625 29.59375 6.390625 
Q 36.859375 6.390625 41.078125 11.03125 
Q 45.3125 15.671875 45.3125 23.6875 
L 45.3125 54.6875 
L 54.296875 54.6875 
L 54.296875 0 
L 45.3125 0 
L 45.3125 8.40625 
Q 42.046875 3.421875 37.71875 1 
Q 33.40625 -1.421875 27.6875 -1.421875 
Q 18.265625 -1.421875 13.375 4.4375 
Q 8.5 10.296875 8.5 21.578125 
z
M 31.109375 56 
z
" id="DejaVuSans-75"/>
      <path d="M 18.109375 8.203125 
L 18.109375 -20.796875 
L 9.078125 -20.796875 
L 9.078125 54.6875 
L 18.109375 54.6875 
L 18.109375 46.390625 
Q 20.953125 51.265625 25.265625 53.625 
Q 29.59375 56 35.59375 56 
Q 45.5625 56 51.78125 48.09375 
Q 58.015625 40.1875 58.015625 27.296875 
Q 58.015625 14.40625 51.78125 6.484375 
Q 45.5625 -1.421875 35.59375 -1.421875 
Q 29.59375 -1.421875 25.265625 0.953125 
Q 20.953125 3.328125 18.109375 8.203125 
z
M 48.6875 27.296875 
Q 48.6875 37.203125 44.609375 42.84375 
Q 40.53125 48.484375 33.40625 48.484375 
Q 26.265625 48.484375 22.1875 42.84375 
Q 18.109375 37.203125 18.109375 27.296875 
Q 18.109375 17.390625 22.1875 11.75 
Q 26.265625 6.109375 33.40625 6.109375 
Q 40.53125 6.109375 44.609375 11.75 
Q 48.6875 17.390625 48.6875 27.296875 
z
" id="DejaVuSans-70"/>
     </defs>
     <g transform="translate(14.798438 196.634844)rotate(-90)scale(0.1 -0.1)">
      <use xlink:href="#DejaVuSans-4e"/>
      <use x="74.804688" xlink:href="#DejaVuSans-6f"/>
      <use x="135.986328" xlink:href="#DejaVuSans-72"/>
      <use x="177.083984" xlink:href="#DejaVuSans-6d"/>
      <use x="274.496094" xlink:href="#DejaVuSans-61"/>
      <use x="335.775391" xlink:href="#DejaVuSans-6c"/>
      <use x="363.558594" xlink:href="#DejaVuSans-69"/>
      <use x="391.341797" xlink:href="#DejaVuSans-7a"/>
      <use x="443.832031" xlink:href="#DejaVuSans-65"/>
      <use x="505.355469" xlink:href="#DejaVuSans-64"/>
      <use x="568.832031" xlink:href="#DejaVuSans-20"/>
      <use x="600.619141" xlink:href="#DejaVuSans-65"/>
      <use x="662.142578" xlink:href="#DejaVuSans-74"/>
      <use x="701.351562" xlink:href="#DejaVuSans-2f"/>
      <use x="735.042969" xlink:href="#DejaVuSans-63"/>
      <use x="790.023438" xlink:href="#DejaVuSans-65"/>
      <use x="851.546875" xlink:href="#DejaVuSans-6c"/>
      <use x="879.330078" xlink:href="#DejaVuSans-6c"/>
      <use x="907.113281" xlink:href="#DejaVuSans-20"/>
      <use x="938.900391" xlink:href="#DejaVuSans-6f"/>
      <use x="1000.082031" xlink:href="#DejaVuSans-75"/>
      <use x="1063.460938" xlink:href="#DejaVuSans-74"/>
      <use x="1102.669922" xlink:href="#DejaVuSans-70"/>
      <use x="1166.146484" xlink:href="#DejaVuSans-75"/>
      <use x="1229.525391" xlink:href="#DejaVuSans-74"/>
     </g>
    </g>
   </g>
   <g id="line2d_14">
    <path clip-path="url(#pe366d031e3)" d="M 27.878125 162.783986 
L 29.381155 179.712151 
L 30.884186 187.187802 
L 32.387216 187.474798 
L 33.890246 192.623686 
L 35.393277 193.797224 
L 36.896307 191.409523 
L 38.399337 198.403572 
L 45.350852 201.688298 
L 46.853883 199.617734 
L 48.356913 192.670208 
L 49.859943 190.65534 
L 51.362973 193.510228 
L 52.866004 193.494502 
L 54.369034 187.004334 
L 55.872064 176.935893 
L 57.375095 161.024662 
L 58.878125 156.924161 
L 60.381155 156.693516 
L 61.884186 162.376426 
L 63.387216 160.577132 
L 64.890246 155.428244 
L 66.393277 145.067565 
L 67.896307 132.747713 
L 69.399337 125.64424 
L 70.902367 121.554877 
L 72.405398 109.757253 
L 73.908428 124.064452 
L 75.411458 107.674895 
L 76.914489 66.709849 
L 78.417519 117.303015 
L 79.920549 48.715605 
L 81.42358 86.038819 
L 82.92661 70.182629 
L 84.42964 85.983779 
L 85.93267 90.970167 
L 87.435701 119.562943 
L 88.938731 110.135327 
L 90.441761 124.601095 
L 91.944792 128.567927 
L 93.447822 157.795632 
L 94.950852 165.809891 
L 97.956913 178.767948 
L 99.459943 177.786396 
L 100.962973 188.500906 
L 102.466004 188.078931 
L 103.969034 188.339062 
L 105.472064 186.657056 
L 115.42964 201.749235 
L 116.93267 195.56441 
L 118.435701 198.999842 
L 119.938731 198.839963 
L 122.944792 175.903232 
L 124.447822 180.487957 
L 125.950852 163.648905 
L 128.956913 171.1239 
L 130.459943 159.247647 
L 131.962973 146.089086 
L 133.466004 146.689288 
L 134.969034 129.272312 
L 136.472064 122.313647 
L 137.975095 128.422464 
L 139.478125 117.256492 
L 140.981155 126.780428 
L 142.484186 122.645199 
L 143.987216 105.755038 
L 145.490246 81.003943 
L 146.993277 73.370379 
L 148.496307 42.613996 
L 149.999337 72.852083 
L 151.502367 67.071542 
L 153.005398 56.781629 
L 154.508428 81.70112 
L 156.011458 103.373234 
L 157.514489 117.972016 
L 159.017519 135.829969 
L 160.520549 129.303108 
L 162.02358 140.794735 
L 163.52661 166.070677 
L 165.02964 162.607726 
L 166.53267 181.101919 
L 168.035701 181.929489 
L 169.538731 187.347681 
L 171.041761 178.408876 
L 172.544792 191.177568 
L 174.047822 180.227171 
L 175.550852 193.900097 
L 184.193277 197.653975 
L 185.696307 186.171522 
L 187.199337 197.293593 
L 188.702367 182.987704 
L 190.205398 185.465827 
L 191.708428 185.540525 
L 193.211458 175.223091 
L 194.714489 177.323796 
L 197.720549 174.299201 
L 199.22358 146.066808 
L 200.72661 133.800031 
L 202.22964 114.908107 
L 203.73267 134.856936 
L 205.235701 135.269083 
L 206.738731 131.6397 
L 208.241761 114.221414 
L 209.744792 99.994154 
L 211.247822 111.239409 
L 212.750852 95.465779 
L 214.253883 73.941095 
L 215.756913 50.645947 
L 217.259943 93.753633 
L 218.762973 67.965292 
L 220.266004 65.557279 
L 221.769034 67.982328 
L 223.272064 95.290175 
L 224.775095 98.594558 
L 226.278125 103.434827 
L 227.781155 122.925642 
L 229.284186 136.884253 
L 230.787216 139.669685 
L 232.290246 152.54125 
L 233.793277 176.91558 
L 235.296307 185.552319 
L 236.799337 181.274247 
L 238.302367 184.075405 
L 239.805398 189.811389 
L 241.308428 191.318445 
L 242.811458 177.753634 
L 244.314489 193.563958 
L 245.817519 192.568646 
L 254.272064 191.56285 
L 255.775095 193.565268 
L 257.278125 188.206703 
L 258.781155 181.724398 
L 260.284186 179.136849 
L 261.787216 162.65949 
L 263.290246 173.028032 
L 264.793277 169.654849 
L 266.296307 165.103541 
L 267.799337 164.870275 
L 269.302367 156.196843 
L 270.805398 148.573107 
L 272.308428 152.895736 
L 273.811458 155.352236 
L 275.314489 151.806069 
L 276.817519 136.002953 
L 278.320549 127.422565 
L 279.82358 104.801006 
L 281.32661 101.739717 
L 282.82964 91.382969 
L 284.33267 73.71307 
L 285.835701 69.43893 
L 287.338731 55.241156 
L 288.841761 71.027235 
L 290.344792 69.327539 
L 291.847822 87.344716 
L 293.350852 83.738266 
L 294.853883 120.279777 
L 296.356913 130.746605 
L 297.859943 143.023211 
L 299.362973 141.765147 
L 300.866004 153.238427 
L 302.369034 161.755257 
L 303.872064 174.993757 
L 305.375095 180.383774 
L 306.878125 181.031808 
L 308.381155 180.715326 
L 309.884186 193.161639 
L 321.344792 204.659818 
L 324.350852 196.532857 
L 325.853883 193.182607 
L 327.356913 191.596923 
L 330.362973 189.055241 
L 331.866004 176.861851 
L 333.369034 173.955854 
L 334.872064 173.613163 
L 336.375095 175.308928 
L 337.878125 149.887522 
L 339.381155 149.208036 
L 340.884186 143.709904 
L 343.890246 115.968288 
L 345.393277 126.017727 
L 346.896307 127.033352 
L 348.399337 116.094094 
L 349.902367 108.336689 
L 351.405398 86.605603 
L 352.908428 68.304051 
L 354.411458 66.952943 
L 355.914489 52.057337 
L 357.417519 66.029053 
L 358.920549 53.076893 
L 360.42358 74.860398 
L 361.92661 84.433477 
L 363.42964 106.944301 
L 364.93267 117.291875 
L 366.435701 142.98062 
L 367.938731 144.56565 
L 369.441761 149.306978 
L 370.944792 168.675263 
L 372.447822 168.209386 
L 373.950852 180.273038 
L 375.453883 183.188208 
L 376.956913 193.295964 
L 378.459943 190.859776 
L 381.466004 194.793846 
L 389.920549 192.813051 
L 391.42358 200.736887 
L 392.92661 195.786537 
L 394.42964 187.98261 
L 395.93267 184.206453 
L 398.938731 185.108065 
L 400.441761 166.273147 
L 401.944792 170.300917 
L 403.447822 157.005411 
L 404.950852 154.774968 
L 406.453883 148.138682 
L 407.956913 134.714748 
L 409.459943 129.986525 
L 410.962973 139.069484 
L 412.466004 128.856234 
L 413.969034 124.947063 
L 415.472064 121.446762 
L 416.975095 98.630596 
L 418.478125 103.242841 
L 419.981155 70.764483 
L 421.484186 70.449968 
L 422.987216 57.263231 
L 424.490246 62.423914 
L 425.993277 55.131075 
L 428.999337 67.74382 
L 430.502367 86.417549 
L 432.005398 99.170515 
L 433.508428 106.966579 
L 435.011458 131.767472 
L 436.514489 137.750482 
L 438.017519 154.14135 
L 439.520549 173.14532 
L 441.02358 176.867092 
L 442.52661 179.3557 
L 444.02964 188.724344 
L 445.53267 189.08145 
L 447.035701 191.341378 
L 448.538731 189.521773 
L 458.684186 199.405436 
L 460.187216 192.294755 
L 461.690246 195.378977 
L 463.193277 194.27555 
L 464.696307 190.764111 
L 467.702367 184.756856 
L 469.205398 166.867451 
L 470.708428 169.299708 
L 472.211458 140.788837 
L 473.714489 140.855672 
L 475.217519 154.989232 
L 476.720549 161.662868 
L 478.22358 145.053149 
L 479.72661 139.098314 
L 481.22964 120.536632 
L 482.73267 135.190454 
L 484.235701 119.006643 
L 485.738731 81.167754 
L 487.241761 107.549744 
L 488.744792 103.791934 
L 490.247822 47.652148 
L 491.750852 33.535624 
L 493.253883 32.398125 
L 494.756913 60.693421 
L 496.259943 110.751254 
L 497.762973 72.783283 
L 499.266004 87.015784 
L 500.769034 112.249792 
L 502.272064 122.035824 
L 503.775095 114.683359 
L 505.278125 144.412323 
L 508.284186 170.481764 
L 509.787216 180.350357 
L 511.290246 176.325208 
L 515.799337 197.573381 
L 517.302367 189.998788 
L 518.805398 188.698789 
L 527.259943 199.022775 
L 528.762973 190.106248 
L 530.266004 191.016378 
L 531.769034 196.407051 
L 533.272064 194.314864 
L 534.775095 186.48997 
L 536.278125 186.529284 
L 537.781155 169.714476 
L 539.284186 158.503948 
L 540.787216 157.284543 
L 542.290246 150.949668 
L 543.793277 154.054203 
L 545.296307 151.298912 
L 546.799337 153.241703 
L 548.302367 129.799781 
L 549.805398 131.564347 
L 551.308428 102.123689 
L 552.811458 99.471271 
L 554.314489 100.493448 
L 555.817519 118.723578 
L 557.320549 84.410544 
L 558.82358 60.763532 
L 560.32661 45.137986 
L 561.82964 42.661173 
L 563.33267 49.235212 
L 564.835701 101.58377 
L 566.338731 81.596937 
L 567.841761 105.867739 
L 569.344792 102.867388 
L 570.847822 114.498581 
L 572.350852 133.965152 
L 573.853883 133.013086 
L 575.356913 149.255869 
L 578.362973 172.329545 
L 579.866004 183.198036 
L 581.369034 181.774852 
L 582.872064 189.606299 
L 584.375095 192.745561 
L 585.878125 189.23019 
L 585.878125 189.23019 
" style="fill:none;stroke:#1f77b4;stroke-linecap:square;stroke-width:1.5;"/>
   </g>
   <g id="line2d_15">
    <path clip-path="url(#pe366d031e3)" d="M 27.878125 110.347282 
L 29.381155 126.17799 
L 30.884186 113.005011 
L 32.387216 131.830244 
L 33.890246 174.316824 
L 35.393277 230.00139 
L 36.896307 196.282478 
L 38.399337 227.472638 
L 45.350852 193.80047 
L 46.853883 204.874396 
L 48.356913 192.596768 
L 49.859943 193.367815 
L 51.362973 192.828422 
L 52.866004 198.147876 
L 54.369034 202.280081 
L 55.872064 199.964158 
L 57.375095 190.086868 
L 58.878125 196.81163 
L 60.381155 192.753897 
L 61.884186 186.120072 
L 63.387216 181.740532 
L 64.890246 185.215541 
L 66.393277 182.215675 
L 67.896307 142.238383 
L 69.399337 114.27276 
L 70.902367 102.45138 
L 72.405398 105.40013 
L 73.908428 97.36191 
L 75.411458 99.553984 
L 76.914489 104.847505 
L 78.417519 120.243012 
L 79.920549 101.893387 
L 81.42358 99.304262 
L 82.92661 101.650816 
L 84.42964 95.481657 
L 85.93267 102.555626 
L 87.435701 105.993322 
L 88.938731 97.546231 
L 90.441761 114.059767 
L 91.944792 107.627813 
L 93.447822 124.557332 
L 94.950852 123.63607 
L 96.453883 131.485825 
L 97.956913 112.786077 
L 99.459943 123.390351 
L 100.962973 118.426593 
L 102.466004 151.233593 
L 103.969034 142.111019 
L 105.472064 139.395628 
L 115.42964 199.041768 
L 116.93267 192.692262 
L 118.435701 192.204094 
L 119.938731 203.738137 
L 122.944792 191.898282 
L 124.447822 194.004099 
L 125.950852 197.585735 
L 127.453883 195.070457 
L 128.956913 203.451287 
L 130.459943 204.376607 
L 131.962973 199.151687 
L 133.466004 193.502483 
L 134.969034 200.791165 
L 136.472064 193.956086 
L 137.975095 155.073299 
L 139.478125 108.043989 
L 140.981155 103.38689 
L 142.484186 95.167447 
L 143.987216 99.578956 
L 145.490246 100.06738 
L 146.993277 101.171107 
L 148.496307 93.984035 
L 149.999337 107.474665 
L 153.005398 97.83239 
L 154.508428 104.935413 
L 156.011458 104.475476 
L 157.514489 91.272752 
L 159.017519 103.010529 
L 160.520549 109.335233 
L 162.02358 112.547436 
L 163.52661 91.64848 
L 165.02964 109.496399 
L 166.53267 108.753478 
L 168.035701 139.159202 
L 169.538731 138.323306 
L 171.041761 118.662313 
L 172.544792 116.013161 
L 174.047822 131.648244 
L 175.550852 168.315709 
L 184.193277 212.634529 
L 185.696307 192.251119 
L 187.199337 192.468269 
L 188.702367 192.529782 
L 190.205398 191.432479 
L 191.708428 190.033685 
L 193.211458 221.836399 
L 194.714489 197.359645 
L 197.720549 190.844569 
L 199.22358 194.588781 
L 200.72661 184.120882 
L 202.22964 188.763135 
L 203.73267 162.765295 
L 205.235701 182.314387 
L 206.738731 188.46088 
L 208.241761 161.494348 
L 209.744792 101.804763 
L 211.247822 105.403509 
L 212.750852 116.991497 
L 214.253883 100.045468 
L 215.756913 104.721435 
L 217.259943 97.982734 
L 218.762973 99.084672 
L 220.266004 98.954718 
L 221.769034 90.697997 
L 223.272064 94.407612 
L 224.775095 93.737283 
L 226.278125 95.106045 
L 227.781155 96.212517 
L 229.284186 102.953723 
L 230.787216 100.994579 
L 232.290246 112.724213 
L 233.793277 123.23586 
L 235.296307 141.787552 
L 236.799337 171.765791 
L 238.302367 125.178944 
L 239.805398 144.183668 
L 241.308428 157.977982 
L 242.811458 182.785647 
L 244.314489 190.419182 
L 245.817519 190.958692 
L 254.272064 190.475242 
L 255.775095 190.585734 
L 257.278125 192.305513 
L 258.781155 189.659793 
L 260.284186 189.321151 
L 261.787216 188.501359 
L 263.290246 180.544153 
L 264.793277 186.792195 
L 266.296307 186.043111 
L 267.799337 202.078899 
L 269.302367 192.308109 
L 270.805398 187.677649 
L 272.308428 145.809541 
L 273.811458 135.235319 
L 275.314489 169.901054 
L 276.817519 123.356639 
L 278.320549 131.902106 
L 279.82358 95.762306 
L 281.32661 102.382047 
L 282.82964 104.381179 
L 284.33267 97.879585 
L 285.835701 109.375309 
L 287.338731 97.888403 
L 288.841761 97.3981 
L 290.344792 93.794708 
L 291.847822 93.474424 
L 293.350852 96.093446 
L 294.853883 98.339314 
L 297.859943 111.503035 
L 299.362973 103.250542 
L 300.866004 116.628416 
L 302.369034 101.813665 
L 303.872064 103.697546 
L 305.375095 130.796445 
L 306.878125 104.071937 
L 308.381155 114.90558 
L 309.884186 136.759256 
L 321.344792 193.957626 
L 322.847822 233.998125 
L 324.350852 199.443967 
L 325.853883 192.248502 
L 327.356913 193.040619 
L 330.362973 192.598515 
L 331.866004 193.72714 
L 333.369034 199.144785 
L 334.872064 199.159708 
L 336.375095 226.221885 
L 337.878125 209.965673 
L 339.381155 211.779927 
L 340.884186 198.783889 
L 342.387216 205.319383 
L 343.890246 206.091768 
L 345.393277 114.296379 
L 346.896307 99.453433 
L 348.399337 95.135206 
L 349.902367 105.969783 
L 351.405398 101.86149 
L 352.908428 106.72569 
L 354.411458 96.579576 
L 355.914489 92.802954 
L 357.417519 98.927676 
L 358.920549 101.270952 
L 360.42358 94.58201 
L 363.42964 101.852406 
L 364.93267 97.775257 
L 366.435701 123.044952 
L 367.938731 123.10752 
L 369.441761 133.251492 
L 370.944792 135.555433 
L 372.447822 118.351962 
L 373.950852 123.262092 
L 375.453883 116.790666 
L 376.956913 147.942466 
L 378.459943 184.139619 
L 381.466004 204.198572 
L 389.920549 188.54771 
L 391.42358 198.317508 
L 392.92661 202.963124 
L 394.42964 195.764755 
L 395.93267 191.329934 
L 398.938731 202.131281 
L 400.441761 193.971317 
L 401.944792 197.299295 
L 403.447822 230.046069 
L 406.453883 188.225653 
L 407.956913 140.0184 
L 409.459943 104.786034 
L 410.962973 101.544375 
L 412.466004 115.430952 
L 413.969034 99.30613 
L 415.472064 100.197756 
L 416.975095 96.023227 
L 418.478125 100.996737 
L 419.981155 93.418624 
L 421.484186 93.442688 
L 422.987216 95.115872 
L 424.490246 90.557521 
L 425.993277 90.597714 
L 427.496307 91.429233 
L 428.999337 96.910244 
L 430.502367 93.984216 
L 432.005398 91.614356 
L 433.508428 96.541327 
L 435.011458 104.409849 
L 436.514489 118.341214 
L 438.017519 105.394744 
L 439.520549 109.208066 
L 441.02358 139.767344 
L 442.52661 97.122096 
L 444.02964 130.1589 
L 445.53267 101.822 
L 447.035701 125.181912 
L 448.538731 167.036676 
L 458.684186 205.125039 
L 460.187216 192.072489 
L 461.690246 198.473676 
L 463.193277 196.65577 
L 464.696307 191.743488 
L 467.702367 202.166696 
L 469.205398 193.776941 
L 470.708428 190.621319 
L 472.211458 198.031731 
L 473.714489 186.748159 
L 475.217519 154.044719 
L 476.720549 189.196522 
L 478.22358 198.079696 
L 479.72661 185.078633 
L 481.22964 101.324244 
L 482.73267 107.695311 
L 484.235701 109.02932 
L 487.241761 101.612086 
L 488.744792 98.941834 
L 490.247822 93.779955 
L 491.750852 94.055603 
L 493.253883 99.476598 
L 494.756913 94.109943 
L 496.259943 98.946694 
L 497.762973 95.862997 
L 499.266004 91.94805 
L 500.769034 100.25542 
L 502.272064 95.028128 
L 503.775095 94.278152 
L 505.278125 92.513456 
L 506.781155 110.751275 
L 508.284186 92.243833 
L 509.787216 130.102615 
L 511.290246 146.933631 
L 512.793277 134.869557 
L 514.296307 168.055037 
L 515.799337 198.022892 
L 517.302367 203.998883 
L 518.805398 189.354289 
L 527.259943 196.355888 
L 528.762973 191.990325 
L 530.266004 188.4829 
L 531.769034 193.23577 
L 533.272064 193.758387 
L 534.775095 224.379718 
L 536.278125 192.675896 
L 537.781155 231.83896 
L 539.284186 192.721726 
L 540.787216 193.040455 
L 542.290246 215.891969 
L 543.793277 201.494796 
L 545.296307 183.61075 
L 546.799337 179.627171 
L 548.302367 162.994646 
L 549.805398 117.478426 
L 551.308428 103.876381 
L 554.314489 99.218758 
L 555.817519 103.316673 
L 557.320549 93.981604 
L 558.82358 94.422349 
L 560.32661 94.485624 
L 561.82964 93.342421 
L 563.33267 94.429288 
L 564.835701 93.553323 
L 566.338731 93.40824 
L 567.841761 93.146076 
L 569.344792 95.090597 
L 570.847822 97.655098 
L 572.350852 106.546335 
L 573.853883 113.604268 
L 575.356913 101.191909 
L 576.859943 104.589846 
L 578.362973 105.08426 
L 579.866004 106.774719 
L 581.369034 94.775043 
L 582.872064 118.222213 
L 584.375095 114.694171 
L 585.878125 190.147903 
L 585.878125 190.147903 
" style="fill:none;stroke:#ff7f0e;stroke-linecap:square;stroke-width:1.5;"/>
   </g>
   <g id="patch_3">
    <path d="M 27.878125 244.078125 
L 27.878125 22.318125 
" style="fill:none;stroke:#000000;stroke-linecap:square;stroke-linejoin:miter;stroke-width:0.8;"/>
   </g>
   <g id="patch_4">
    <path d="M 585.878125 244.078125 
L 585.878125 22.318125 
" style="fill:none;stroke:#000000;stroke-linecap:square;stroke-linejoin:miter;stroke-width:0.8;"/>
   </g>
   <g id="patch_5">
    <path d="M 27.878125 244.078125 
L 585.878125 244.078125 
" style="fill:none;stroke:#000000;stroke-linecap:square;stroke-linejoin:miter;stroke-width:0.8;"/>
   </g>
   <g id="patch_6">
    <path d="M 27.878125 22.318125 
L 585.878125 22.318125 
" style="fill:none;stroke:#000000;stroke-linecap:square;stroke-linejoin:miter;stroke-width:0.8;"/>
   </g>
   <g id="text_11">
    <!-- Evapotranspiration (ET) cell: corr=0.73, p=8.21e-55 -->
    <defs>
     <path d="M 9.8125 72.90625 
L 55.90625 72.90625 
L 55.90625 64.59375 
L 19.671875 64.59375 
L 19.671875 43.015625 
L 54.390625 43.015625 
L 54.390625 34.71875 
L 19.671875 34.71875 
L 19.671875 8.296875 
L 56.78125 8.296875 
L 56.78125 0 
L 9.8125 0 
z
" id="DejaVuSans-45"/>
     <path d="M 2.984375 54.6875 
L 12.5 54.6875 
L 29.59375 8.796875 
L 46.6875 54.6875 
L 56.203125 54.6875 
L 35.6875 0 
L 23.484375 0 
z
" id="DejaVuSans-76"/>
     <path d="M 54.890625 33.015625 
L 54.890625 0 
L 45.90625 0 
L 45.90625 32.71875 
Q 45.90625 40.484375 42.875 44.328125 
Q 39.84375 48.1875 33.796875 48.1875 
Q 26.515625 48.1875 22.3125 43.546875 
Q 18.109375 38.921875 18.109375 30.90625 
L 18.109375 0 
L 9.078125 0 
L 9.078125 54.6875 
L 18.109375 54.6875 
L 18.109375 46.1875 
Q 21.34375 51.125 25.703125 53.5625 
Q 30.078125 56 35.796875 56 
Q 45.21875 56 50.046875 50.171875 
Q 54.890625 44.34375 54.890625 33.015625 
z
" id="DejaVuSans-6e"/>
     <path d="M 44.28125 53.078125 
L 44.28125 44.578125 
Q 40.484375 46.53125 36.375 47.5 
Q 32.28125 48.484375 27.875 48.484375 
Q 21.1875 48.484375 17.84375 46.4375 
Q 14.5 44.390625 14.5 40.28125 
Q 14.5 37.15625 16.890625 35.375 
Q 19.28125 33.59375 26.515625 31.984375 
L 29.59375 31.296875 
Q 39.15625 29.25 43.1875 25.515625 
Q 47.21875 21.78125 47.21875 15.09375 
Q 47.21875 7.46875 41.1875 3.015625 
Q 35.15625 -1.421875 24.609375 -1.421875 
Q 20.21875 -1.421875 15.453125 -0.5625 
Q 10.6875 0.296875 5.421875 2 
L 5.421875 11.28125 
Q 10.40625 8.6875 15.234375 7.390625 
Q 20.0625 6.109375 24.8125 6.109375 
Q 31.15625 6.109375 34.5625 8.28125 
Q 37.984375 10.453125 37.984375 14.40625 
Q 37.984375 18.0625 35.515625 20.015625 
Q 33.0625 21.96875 24.703125 23.78125 
L 21.578125 24.515625 
Q 13.234375 26.265625 9.515625 29.90625 
Q 5.8125 33.546875 5.8125 39.890625 
Q 5.8125 47.609375 11.28125 51.796875 
Q 16.75 56 26.8125 56 
Q 31.78125 56 36.171875 55.265625 
Q 40.578125 54.546875 44.28125 53.078125 
z
" id="DejaVuSans-73"/>
     <path d="M 31 75.875 
Q 24.46875 64.65625 21.28125 53.65625 
Q 18.109375 42.671875 18.109375 31.390625 
Q 18.109375 20.125 21.3125 9.0625 
Q 24.515625 -2 31 -13.1875 
L 23.1875 -13.1875 
Q 15.875 -1.703125 12.234375 9.375 
Q 8.59375 20.453125 8.59375 31.390625 
Q 8.59375 42.28125 12.203125 53.3125 
Q 15.828125 64.359375 23.1875 75.875 
z
" id="DejaVuSans-28"/>
     <path d="M -0.296875 72.90625 
L 61.375 72.90625 
L 61.375 64.59375 
L 35.5 64.59375 
L 35.5 0 
L 25.59375 0 
L 25.59375 64.59375 
L -0.296875 64.59375 
z
" id="DejaVuSans-54"/>
     <path d="M 8.015625 75.875 
L 15.828125 75.875 
Q 23.140625 64.359375 26.78125 53.3125 
Q 30.421875 42.28125 30.421875 31.390625 
Q 30.421875 20.453125 26.78125 9.375 
Q 23.140625 -1.703125 15.828125 -13.1875 
L 8.015625 -13.1875 
Q 14.5 -2 17.703125 9.0625 
Q 20.90625 20.125 20.90625 31.390625 
Q 20.90625 42.671875 17.703125 53.65625 
Q 14.5 64.65625 8.015625 75.875 
z
" id="DejaVuSans-29"/>
     <path d="M 11.71875 12.40625 
L 22.015625 12.40625 
L 22.015625 0 
L 11.71875 0 
z
M 11.71875 51.703125 
L 22.015625 51.703125 
L 22.015625 39.3125 
L 11.71875 39.3125 
z
" id="DejaVuSans-3a"/>
     <path d="M 10.59375 45.40625 
L 73.1875 45.40625 
L 73.1875 37.203125 
L 10.59375 37.203125 
z
M 10.59375 25.484375 
L 73.1875 25.484375 
L 73.1875 17.1875 
L 10.59375 17.1875 
z
" id="DejaVuSans-3d"/>
     <path d="M 10.6875 12.40625 
L 21 12.40625 
L 21 0 
L 10.6875 0 
z
" id="DejaVuSans-2e"/>
     <path d="M 11.71875 12.40625 
L 22.015625 12.40625 
L 22.015625 4 
L 14.015625 -11.625 
L 7.71875 -11.625 
L 11.71875 4 
z
" id="DejaVuSans-2c"/>
     <path d="M 4.890625 31.390625 
L 31.203125 31.390625 
L 31.203125 23.390625 
L 4.890625 23.390625 
z
" id="DejaVuSans-2d"/>
     <path d="M 10.796875 72.90625 
L 49.515625 72.90625 
L 49.515625 64.59375 
L 19.828125 64.59375 
L 19.828125 46.734375 
Q 21.96875 47.46875 24.109375 47.828125 
Q 26.265625 48.1875 28.421875 48.1875 
Q 40.625 48.1875 47.75 41.5 
Q 54.890625 34.8125 54.890625 23.390625 
Q 54.890625 11.625 47.5625 5.09375 
Q 40.234375 -1.421875 26.90625 -1.421875 
Q 22.3125 -1.421875 17.546875 -0.640625 
Q 12.796875 0.140625 7.71875 1.703125 
L 7.71875 11.625 
Q 12.109375 9.234375 16.796875 8.0625 
Q 21.484375 6.890625 26.703125 6.890625 
Q 35.15625 6.890625 40.078125 11.328125 
Q 45.015625 15.765625 45.015625 23.390625 
Q 45.015625 31 40.078125 35.4375 
Q 35.15625 39.890625 26.703125 39.890625 
Q 22.75 39.890625 18.8125 39.015625 
Q 14.890625 38.140625 10.796875 36.28125 
z
" id="DejaVuSans-35"/>
    </defs>
    <g transform="translate(149.846875 16.318125)scale(0.12 -0.12)">
     <use xlink:href="#DejaVuSans-45"/>
     <use x="63.183594" xlink:href="#DejaVuSans-76"/>
     <use x="122.363281" xlink:href="#DejaVuSans-61"/>
     <use x="183.642578" xlink:href="#DejaVuSans-70"/>
     <use x="247.119141" xlink:href="#DejaVuSans-6f"/>
     <use x="308.300781" xlink:href="#DejaVuSans-74"/>
     <use x="347.509766" xlink:href="#DejaVuSans-72"/>
     <use x="388.623047" xlink:href="#DejaVuSans-61"/>
     <use x="449.902344" xlink:href="#DejaVuSans-6e"/>
     <use x="513.28125" xlink:href="#DejaVuSans-73"/>
     <use x="565.380859" xlink:href="#DejaVuSans-70"/>
     <use x="628.857422" xlink:href="#DejaVuSans-69"/>
     <use x="656.640625" xlink:href="#DejaVuSans-72"/>
     <use x="697.753906" xlink:href="#DejaVuSans-61"/>
     <use x="759.033203" xlink:href="#DejaVuSans-74"/>
     <use x="798.242188" xlink:href="#DejaVuSans-69"/>
     <use x="826.025391" xlink:href="#DejaVuSans-6f"/>
     <use x="887.207031" xlink:href="#DejaVuSans-6e"/>
     <use x="950.585938" xlink:href="#DejaVuSans-20"/>
     <use x="982.373047" xlink:href="#DejaVuSans-28"/>
     <use x="1021.386719" xlink:href="#DejaVuSans-45"/>
     <use x="1084.570312" xlink:href="#DejaVuSans-54"/>
     <use x="1145.654297" xlink:href="#DejaVuSans-29"/>
     <use x="1184.667969" xlink:href="#DejaVuSans-20"/>
     <use x="1216.455078" xlink:href="#DejaVuSans-63"/>
     <use x="1271.435547" xlink:href="#DejaVuSans-65"/>
     <use x="1332.958984" xlink:href="#DejaVuSans-6c"/>
     <use x="1360.742188" xlink:href="#DejaVuSans-6c"/>
     <use x="1388.525391" xlink:href="#DejaVuSans-3a"/>
     <use x="1422.216797" xlink:href="#DejaVuSans-20"/>
     <use x="1454.003906" xlink:href="#DejaVuSans-63"/>
     <use x="1508.984375" xlink:href="#DejaVuSans-6f"/>
     <use x="1570.166016" xlink:href="#DejaVuSans-72"/>
     <use x="1611.263672" xlink:href="#DejaVuSans-72"/>
     <use x="1652.376953" xlink:href="#DejaVuSans-3d"/>
     <use x="1736.166016" xlink:href="#DejaVuSans-30"/>
     <use x="1799.789062" xlink:href="#DejaVuSans-2e"/>
     <use x="1831.576172" xlink:href="#DejaVuSans-37"/>
     <use x="1895.199219" xlink:href="#DejaVuSans-33"/>
     <use x="1958.822266" xlink:href="#DejaVuSans-2c"/>
     <use x="1990.609375" xlink:href="#DejaVuSans-20"/>
     <use x="2022.396484" xlink:href="#DejaVuSans-70"/>
     <use x="2085.873047" xlink:href="#DejaVuSans-3d"/>
     <use x="2169.662109" xlink:href="#DejaVuSans-38"/>
     <use x="2233.285156" xlink:href="#DejaVuSans-2e"/>
     <use x="2265.072266" xlink:href="#DejaVuSans-32"/>
     <use x="2328.695312" xlink:href="#DejaVuSans-31"/>
     <use x="2392.318359" xlink:href="#DejaVuSans-65"/>
     <use x="2453.841797" xlink:href="#DejaVuSans-2d"/>
     <use x="2489.925781" xlink:href="#DejaVuSans-35"/>
     <use x="2553.548828" xlink:href="#DejaVuSans-35"/>
    </g>
   </g>
   <g id="legend_1">
    <g id="patch_7">
     <path d="M 34.878125 59.674375 
L 115.98125 59.674375 
Q 117.98125 59.674375 117.98125 57.674375 
L 117.98125 29.318125 
Q 117.98125 27.318125 115.98125 27.318125 
L 34.878125 27.318125 
Q 32.878125 27.318125 32.878125 29.318125 
L 32.878125 57.674375 
Q 32.878125 59.674375 34.878125 59.674375 
z
" style="fill:#ffffff;opacity:0.8;stroke:#cccccc;stroke-linejoin:miter;"/>
    </g>
    <g id="line2d_16">
     <path d="M 36.878125 35.416562 
L 56.878125 35.416562 
" style="fill:none;stroke:#1f77b4;stroke-linecap:square;stroke-width:1.5;"/>
    </g>
    <g id="line2d_17"/>
    <g id="text_12">
     <!-- MODIS ET -->
     <defs>
      <path d="M 9.8125 72.90625 
L 24.515625 72.90625 
L 43.109375 23.296875 
L 61.8125 72.90625 
L 76.515625 72.90625 
L 76.515625 0 
L 66.890625 0 
L 66.890625 64.015625 
L 48.09375 14.015625 
L 38.1875 14.015625 
L 19.390625 64.015625 
L 19.390625 0 
L 9.8125 0 
z
" id="DejaVuSans-4d"/>
      <path d="M 39.40625 66.21875 
Q 28.65625 66.21875 22.328125 58.203125 
Q 16.015625 50.203125 16.015625 36.375 
Q 16.015625 22.609375 22.328125 14.59375 
Q 28.65625 6.59375 39.40625 6.59375 
Q 50.140625 6.59375 56.421875 14.59375 
Q 62.703125 22.609375 62.703125 36.375 
Q 62.703125 50.203125 56.421875 58.203125 
Q 50.140625 66.21875 39.40625 66.21875 
z
M 39.40625 74.21875 
Q 54.734375 74.21875 63.90625 63.9375 
Q 73.09375 53.65625 73.09375 36.375 
Q 73.09375 19.140625 63.90625 8.859375 
Q 54.734375 -1.421875 39.40625 -1.421875 
Q 24.03125 -1.421875 14.8125 8.828125 
Q 5.609375 19.09375 5.609375 36.375 
Q 5.609375 53.65625 14.8125 63.9375 
Q 24.03125 74.21875 39.40625 74.21875 
z
" id="DejaVuSans-4f"/>
      <path d="M 9.8125 72.90625 
L 19.671875 72.90625 
L 19.671875 0 
L 9.8125 0 
z
" id="DejaVuSans-49"/>
      <path d="M 53.515625 70.515625 
L 53.515625 60.890625 
Q 47.90625 63.578125 42.921875 64.890625 
Q 37.9375 66.21875 33.296875 66.21875 
Q 25.25 66.21875 20.875 63.09375 
Q 16.5 59.96875 16.5 54.203125 
Q 16.5 49.359375 19.40625 46.890625 
Q 22.3125 44.4375 30.421875 42.921875 
L 36.375 41.703125 
Q 47.40625 39.59375 52.65625 34.296875 
Q 57.90625 29 57.90625 20.125 
Q 57.90625 9.515625 50.796875 4.046875 
Q 43.703125 -1.421875 29.984375 -1.421875 
Q 24.8125 -1.421875 18.96875 -0.25 
Q 13.140625 0.921875 6.890625 3.21875 
L 6.890625 13.375 
Q 12.890625 10.015625 18.65625 8.296875 
Q 24.421875 6.59375 29.984375 6.59375 
Q 38.421875 6.59375 43.015625 9.90625 
Q 47.609375 13.234375 47.609375 19.390625 
Q 47.609375 24.75 44.3125 27.78125 
Q 41.015625 30.8125 33.5 32.328125 
L 27.484375 33.5 
Q 16.453125 35.6875 11.515625 40.375 
Q 6.59375 45.0625 6.59375 53.421875 
Q 6.59375 63.09375 13.40625 68.65625 
Q 20.21875 74.21875 32.171875 74.21875 
Q 37.3125 74.21875 42.625 73.28125 
Q 47.953125 72.359375 53.515625 70.515625 
z
" id="DejaVuSans-53"/>
     </defs>
     <g transform="translate(64.878125 38.916562)scale(0.1 -0.1)">
      <use xlink:href="#DejaVuSans-4d"/>
      <use x="86.279297" xlink:href="#DejaVuSans-4f"/>
      <use x="164.990234" xlink:href="#DejaVuSans-44"/>
      <use x="241.992188" xlink:href="#DejaVuSans-49"/>
      <use x="271.484375" xlink:href="#DejaVuSans-53"/>
      <use x="334.960938" xlink:href="#DejaVuSans-20"/>
      <use x="366.748047" xlink:href="#DejaVuSans-45"/>
      <use x="429.931641" xlink:href="#DejaVuSans-54"/>
     </g>
    </g>
    <g id="line2d_18">
     <path d="M 36.878125 50.094687 
L 56.878125 50.094687 
" style="fill:none;stroke:#ff7f0e;stroke-linecap:square;stroke-width:1.5;"/>
    </g>
    <g id="line2d_19"/>
    <g id="text_13">
     <!-- LSTM cell -->
     <defs>
      <path d="M 9.8125 72.90625 
L 19.671875 72.90625 
L 19.671875 8.296875 
L 55.171875 8.296875 
L 55.171875 0 
L 9.8125 0 
z
" id="DejaVuSans-4c"/>
     </defs>
     <g transform="translate(64.878125 53.594687)scale(0.1 -0.1)">
      <use xlink:href="#DejaVuSans-4c"/>
      <use x="55.712891" xlink:href="#DejaVuSans-53"/>
      <use x="119.189453" xlink:href="#DejaVuSans-54"/>
      <use x="180.273438" xlink:href="#DejaVuSans-4d"/>
      <use x="266.552734" xlink:href="#DejaVuSans-20"/>
      <use x="298.339844" xlink:href="#DejaVuSans-63"/>
      <use x="353.320312" xlink:href="#DejaVuSans-65"/>
      <use x="414.84375" xlink:href="#DejaVuSans-6c"/>
      <use x="442.626953" xlink:href="#DejaVuSans-6c"/>
     </g>
    </g>
   </g>
  </g>
 </g>
 <defs>
  <clipPath id="pe366d031e3">
   <rect height="221.76" width="558" x="27.878125" y="22.318125"/>
  </clipPath>
 </defs>
</svg>
