<?xml version="1.0" encoding="utf-8" standalone="no"?>
<!DOCTYPE svg PUBLIC "-//W3C//DTD SVG 1.1//EN"
  "http://www.w3.org/Graphics/SVG/1.1/DTD/svg11.dtd">
<!-- Created with matplotlib (http://matplotlib.org/) -->
<svg height="281.634375pt" version="1.1" viewBox="0 0 596.578125 281.634375" width="596.578125pt" xmlns="http://www.w3.org/2000/svg" xmlns:xlink="http://www.w3.org/1999/xlink">
 <defs>
  <style type="text/css">
*{stroke-linecap:butt;stroke-linejoin:round;}
  </style>
 </defs>
 <g id="figure_1">
  <g id="patch_1">
   <path d="M 0 281.634375 
L 596.578125 281.634375 
L 596.578125 0 
L 0 0 
z
" style="fill:#ffffff;"/>
  </g>
  <g id="axes_1">
   <g id="patch_2">
    <path d="M 27.878125 244.078125 
L 585.878125 244.078125 
L 585.878125 22.318125 
L 27.878125 22.318125 
z
" style="fill:#ffffff;"/>
   </g>
   <g id="matplotlib.axis_1">
    <g id="xtick_1">
     <g id="line2d_1">
      <defs>
       <path d="M 0 0 
L 0 3.5 
" id="m632a0d571c" style="stroke:#000000;stroke-width:0.8;"/>
      </defs>
      <g>
       <use style="stroke:#000000;stroke-width:0.8;" x="45.118657" xlink:href="#m632a0d571c" y="244.078125"/>
      </g>
     </g>
     <g id="text_1">
      <!-- 2007 -->
      <defs>
       <path d="M 19.1875 8.296875 
L 53.609375 8.296875 
L 53.609375 0 
L 7.328125 0 
L 7.328125 8.296875 
Q 12.9375 14.109375 22.625 23.890625 
Q 32.328125 33.6875 34.8125 36.53125 
Q 39.546875 41.84375 41.421875 45.53125 
Q 43.3125 49.21875 43.3125 52.78125 
Q 43.3125 58.59375 39.234375 62.25 
Q 35.15625 65.921875 28.609375 65.921875 
Q 23.96875 65.921875 18.8125 64.3125 
Q 13.671875 62.703125 7.8125 59.421875 
L 7.8125 69.390625 
Q 13.765625 71.78125 18.9375 73 
Q 24.125 74.21875 28.421875 74.21875 
Q 39.75 74.21875 46.484375 68.546875 
Q 53.21875 62.890625 53.21875 53.421875 
Q 53.21875 48.921875 51.53125 44.890625 
Q 49.859375 40.875 45.40625 35.40625 
Q 44.1875 33.984375 37.640625 27.21875 
Q 31.109375 20.453125 19.1875 8.296875 
z
" id="DejaVuSans-32"/>
       <path d="M 31.78125 66.40625 
Q 24.171875 66.40625 20.328125 58.90625 
Q 16.5 51.421875 16.5 36.375 
Q 16.5 21.390625 20.328125 13.890625 
Q 24.171875 6.390625 31.78125 6.390625 
Q 39.453125 6.390625 43.28125 13.890625 
Q 47.125 21.390625 47.125 36.375 
Q 47.125 51.421875 43.28125 58.90625 
Q 39.453125 66.40625 31.78125 66.40625 
z
M 31.78125 74.21875 
Q 44.046875 74.21875 50.515625 64.515625 
Q 56.984375 54.828125 56.984375 36.375 
Q 56.984375 17.96875 50.515625 8.265625 
Q 44.046875 -1.421875 31.78125 -1.421875 
Q 19.53125 -1.421875 13.0625 8.265625 
Q 6.59375 17.96875 6.59375 36.375 
Q 6.59375 54.828125 13.0625 64.515625 
Q 19.53125 74.21875 31.78125 74.21875 
z
" id="DejaVuSans-30"/>
       <path d="M 8.203125 72.90625 
L 55.078125 72.90625 
L 55.078125 68.703125 
L 28.609375 0 
L 18.3125 0 
L 43.21875 64.59375 
L 8.203125 64.59375 
z
" id="DejaVuSans-37"/>
      </defs>
      <g transform="translate(32.393657 258.676562)scale(0.1 -0.1)">
       <use xlink:href="#DejaVuSans-32"/>
       <use x="63.623047" xlink:href="#DejaVuSans-30"/>
       <use x="127.246094" xlink:href="#DejaVuSans-30"/>
       <use x="190.869141" xlink:href="#DejaVuSans-37"/>
      </g>
     </g>
    </g>
    <g id="xtick_2">
     <g id="line2d_2">
      <g>
       <use style="stroke:#000000;stroke-width:0.8;" x="112.783108" xlink:href="#m632a0d571c" y="244.078125"/>
      </g>
     </g>
     <g id="text_2">
      <!-- 2008 -->
      <defs>
       <path d="M 31.78125 34.625 
Q 24.75 34.625 20.71875 30.859375 
Q 16.703125 27.09375 16.703125 20.515625 
Q 16.703125 13.921875 20.71875 10.15625 
Q 24.75 6.390625 31.78125 6.390625 
Q 38.8125 6.390625 42.859375 10.171875 
Q 46.921875 13.96875 46.921875 20.515625 
Q 46.921875 27.09375 42.890625 30.859375 
Q 38.875 34.625 31.78125 34.625 
z
M 21.921875 38.8125 
Q 15.578125 40.375 12.03125 44.71875 
Q 8.5 49.078125 8.5 55.328125 
Q 8.5 64.0625 14.71875 69.140625 
Q 20.953125 74.21875 31.78125 74.21875 
Q 42.671875 74.21875 48.875 69.140625 
Q 55.078125 64.0625 55.078125 55.328125 
Q 55.078125 49.078125 51.53125 44.71875 
Q 48 40.375 41.703125 38.8125 
Q 48.828125 37.15625 52.796875 32.3125 
Q 56.78125 27.484375 56.78125 20.515625 
Q 56.78125 9.90625 50.3125 4.234375 
Q 43.84375 -1.421875 31.78125 -1.421875 
Q 19.734375 -1.421875 13.25 4.234375 
Q 6.78125 9.90625 6.78125 20.515625 
Q 6.78125 27.484375 10.78125 32.3125 
Q 14.796875 37.15625 21.921875 38.8125 
z
M 18.3125 54.390625 
Q 18.3125 48.734375 21.84375 45.5625 
Q 25.390625 42.390625 31.78125 42.390625 
Q 38.140625 42.390625 41.71875 45.5625 
Q 45.3125 48.734375 45.3125 54.390625 
Q 45.3125 60.0625 41.71875 63.234375 
Q 38.140625 66.40625 31.78125 66.40625 
Q 25.390625 66.40625 21.84375 63.234375 
Q 18.3125 60.0625 18.3125 54.390625 
z
" id="DejaVuSans-38"/>
      </defs>
      <g transform="translate(100.058108 258.676562)scale(0.1 -0.1)">
       <use xlink:href="#DejaVuSans-32"/>
       <use x="63.623047" xlink:href="#DejaVuSans-30"/>
       <use x="127.246094" xlink:href="#DejaVuSans-30"/>
       <use x="190.869141" xlink:href="#DejaVuSans-38"/>
      </g>
     </g>
    </g>
    <g id="xtick_3">
     <g id="line2d_3">
      <g>
       <use style="stroke:#000000;stroke-width:0.8;" x="180.632942" xlink:href="#m632a0d571c" y="244.078125"/>
      </g>
     </g>
     <g id="text_3">
      <!-- 2009 -->
      <defs>
       <path d="M 10.984375 1.515625 
L 10.984375 10.5 
Q 14.703125 8.734375 18.5 7.8125 
Q 22.3125 6.890625 25.984375 6.890625 
Q 35.75 6.890625 40.890625 13.453125 
Q 46.046875 20.015625 46.78125 33.40625 
Q 43.953125 29.203125 39.59375 26.953125 
Q 35.25 24.703125 29.984375 24.703125 
Q 19.046875 24.703125 12.671875 31.3125 
Q 6.296875 37.9375 6.296875 49.421875 
Q 6.296875 60.640625 12.9375 67.421875 
Q 19.578125 74.21875 30.609375 74.21875 
Q 43.265625 74.21875 49.921875 64.515625 
Q 56.59375 54.828125 56.59375 36.375 
Q 56.59375 19.140625 48.40625 8.859375 
Q 40.234375 -1.421875 26.421875 -1.421875 
Q 22.703125 -1.421875 18.890625 -0.6875 
Q 15.09375 0.046875 10.984375 1.515625 
z
M 30.609375 32.421875 
Q 37.25 32.421875 41.125 36.953125 
Q 45.015625 41.5 45.015625 49.421875 
Q 45.015625 57.28125 41.125 61.84375 
Q 37.25 66.40625 30.609375 66.40625 
Q 23.96875 66.40625 20.09375 61.84375 
Q 16.21875 57.28125 16.21875 49.421875 
Q 16.21875 41.5 20.09375 36.953125 
Q 23.96875 32.421875 30.609375 32.421875 
z
" id="DejaVuSans-39"/>
      </defs>
      <g transform="translate(167.907942 258.676562)scale(0.1 -0.1)">
       <use xlink:href="#DejaVuSans-32"/>
       <use x="63.623047" xlink:href="#DejaVuSans-30"/>
       <use x="127.246094" xlink:href="#DejaVuSans-30"/>
       <use x="190.869141" xlink:href="#DejaVuSans-39"/>
      </g>
     </g>
    </g>
    <g id="xtick_4">
     <g id="line2d_4">
      <g>
       <use style="stroke:#000000;stroke-width:0.8;" x="248.297394" xlink:href="#m632a0d571c" y="244.078125"/>
      </g>
     </g>
     <g id="text_4">
      <!-- 2010 -->
      <defs>
       <path d="M 12.40625 8.296875 
L 28.515625 8.296875 
L 28.515625 63.921875 
L 10.984375 60.40625 
L 10.984375 69.390625 
L 28.421875 72.90625 
L 38.28125 72.90625 
L 38.28125 8.296875 
L 54.390625 8.296875 
L 54.390625 0 
L 12.40625 0 
z
" id="DejaVuSans-31"/>
      </defs>
      <g transform="translate(235.572394 258.676562)scale(0.1 -0.1)">
       <use xlink:href="#DejaVuSans-32"/>
       <use x="63.623047" xlink:href="#DejaVuSans-30"/>
       <use x="127.246094" xlink:href="#DejaVuSans-31"/>
       <use x="190.869141" xlink:href="#DejaVuSans-30"/>
      </g>
     </g>
    </g>
    <g id="xtick_5">
     <g id="line2d_5">
      <g>
       <use style="stroke:#000000;stroke-width:0.8;" x="315.961846" xlink:href="#m632a0d571c" y="244.078125"/>
      </g>
     </g>
     <g id="text_5">
      <!-- 2011 -->
      <g transform="translate(303.236846 258.676562)scale(0.1 -0.1)">
       <use xlink:href="#DejaVuSans-32"/>
       <use x="63.623047" xlink:href="#DejaVuSans-30"/>
       <use x="127.246094" xlink:href="#DejaVuSans-31"/>
       <use x="190.869141" xlink:href="#DejaVuSans-31"/>
      </g>
     </g>
    </g>
    <g id="xtick_6">
     <g id="line2d_6">
      <g>
       <use style="stroke:#000000;stroke-width:0.8;" x="383.626298" xlink:href="#m632a0d571c" y="244.078125"/>
      </g>
     </g>
     <g id="text_6">
      <!-- 2012 -->
      <g transform="translate(370.901298 258.676562)scale(0.1 -0.1)">
       <use xlink:href="#DejaVuSans-32"/>
       <use x="63.623047" xlink:href="#DejaVuSans-30"/>
       <use x="127.246094" xlink:href="#DejaVuSans-31"/>
       <use x="190.869141" xlink:href="#DejaVuSans-32"/>
      </g>
     </g>
    </g>
    <g id="xtick_7">
     <g id="line2d_7">
      <g>
       <use style="stroke:#000000;stroke-width:0.8;" x="451.476132" xlink:href="#m632a0d571c" y="244.078125"/>
      </g>
     </g>
     <g id="text_7">
      <!-- 2013 -->
      <defs>
       <path d="M 40.578125 39.3125 
Q 47.65625 37.796875 51.625 33 
Q 55.609375 28.21875 55.609375 21.1875 
Q 55.609375 10.40625 48.1875 4.484375 
Q 40.765625 -1.421875 27.09375 -1.421875 
Q 22.515625 -1.421875 17.65625 -0.515625 
Q 12.796875 0.390625 7.625 2.203125 
L 7.625 11.71875 
Q 11.71875 9.328125 16.59375 8.109375 
Q 21.484375 6.890625 26.8125 6.890625 
Q 36.078125 6.890625 40.9375 10.546875 
Q 45.796875 14.203125 45.796875 21.1875 
Q 45.796875 27.640625 41.28125 31.265625 
Q 36.765625 34.90625 28.71875 34.90625 
L 20.21875 34.90625 
L 20.21875 43.015625 
L 29.109375 43.015625 
Q 36.375 43.015625 40.234375 45.921875 
Q 44.09375 48.828125 44.09375 54.296875 
Q 44.09375 59.90625 40.109375 62.90625 
Q 36.140625 65.921875 28.71875 65.921875 
Q 24.65625 65.921875 20.015625 65.03125 
Q 15.375 64.15625 9.8125 62.3125 
L 9.8125 71.09375 
Q 15.4375 72.65625 20.34375 73.4375 
Q 25.25 74.21875 29.59375 74.21875 
Q 40.828125 74.21875 47.359375 69.109375 
Q 53.90625 64.015625 53.90625 55.328125 
Q 53.90625 49.265625 50.4375 45.09375 
Q 46.96875 40.921875 40.578125 39.3125 
z
" id="DejaVuSans-33"/>
      </defs>
      <g transform="translate(438.751132 258.676562)scale(0.1 -0.1)">
       <use xlink:href="#DejaVuSans-32"/>
       <use x="63.623047" xlink:href="#DejaVuSans-30"/>
       <use x="127.246094" xlink:href="#DejaVuSans-31"/>
       <use x="190.869141" xlink:href="#DejaVuSans-33"/>
      </g>
     </g>
    </g>
    <g id="xtick_8">
     <g id="line2d_8">
      <g>
       <use style="stroke:#000000;stroke-width:0.8;" x="519.140583" xlink:href="#m632a0d571c" y="244.078125"/>
      </g>
     </g>
     <g id="text_8">
      <!-- 2014 -->
      <defs>
       <path d="M 37.796875 64.3125 
L 12.890625 25.390625 
L 37.796875 25.390625 
z
M 35.203125 72.90625 
L 47.609375 72.90625 
L 47.609375 25.390625 
L 58.015625 25.390625 
L 58.015625 17.1875 
L 47.609375 17.1875 
L 47.609375 0 
L 37.796875 0 
L 37.796875 17.1875 
L 4.890625 17.1875 
L 4.890625 26.703125 
z
" id="DejaVuSans-34"/>
      </defs>
      <g transform="translate(506.415583 258.676562)scale(0.1 -0.1)">
       <use xlink:href="#DejaVuSans-32"/>
       <use x="63.623047" xlink:href="#DejaVuSans-30"/>
       <use x="127.246094" xlink:href="#DejaVuSans-31"/>
       <use x="190.869141" xlink:href="#DejaVuSans-34"/>
      </g>
     </g>
    </g>
    <g id="text_9">
     <!-- Date -->
     <defs>
      <path d="M 19.671875 64.796875 
L 19.671875 8.109375 
L 31.59375 8.109375 
Q 46.6875 8.109375 53.6875 14.9375 
Q 60.6875 21.78125 60.6875 36.53125 
Q 60.6875 51.171875 53.6875 57.984375 
Q 46.6875 64.796875 31.59375 64.796875 
z
M 9.8125 72.90625 
L 30.078125 72.90625 
Q 51.265625 72.90625 61.171875 64.09375 
Q 71.09375 55.28125 71.09375 36.53125 
Q 71.09375 17.671875 61.125 8.828125 
Q 51.171875 0 30.078125 0 
L 9.8125 0 
z
" id="DejaVuSans-44"/>
      <path d="M 34.28125 27.484375 
Q 23.390625 27.484375 19.1875 25 
Q 14.984375 22.515625 14.984375 16.5 
Q 14.984375 11.71875 18.140625 8.90625 
Q 21.296875 6.109375 26.703125 6.109375 
Q 34.1875 6.109375 38.703125 11.40625 
Q 43.21875 16.703125 43.21875 25.484375 
L 43.21875 27.484375 
z
M 52.203125 31.203125 
L 52.203125 0 
L 43.21875 0 
L 43.21875 8.296875 
Q 40.140625 3.328125 35.546875 0.953125 
Q 30.953125 -1.421875 24.3125 -1.421875 
Q 15.921875 -1.421875 10.953125 3.296875 
Q 6 8.015625 6 15.921875 
Q 6 25.140625 12.171875 29.828125 
Q 18.359375 34.515625 30.609375 34.515625 
L 43.21875 34.515625 
L 43.21875 35.40625 
Q 43.21875 41.609375 39.140625 45 
Q 35.0625 48.390625 27.6875 48.390625 
Q 23 48.390625 18.546875 47.265625 
Q 14.109375 46.140625 10.015625 43.890625 
L 10.015625 52.203125 
Q 14.9375 54.109375 19.578125 55.046875 
Q 24.21875 56 28.609375 56 
Q 40.484375 56 46.34375 49.84375 
Q 52.203125 43.703125 52.203125 31.203125 
z
" id="DejaVuSans-61"/>
      <path d="M 18.3125 70.21875 
L 18.3125 54.6875 
L 36.8125 54.6875 
L 36.8125 47.703125 
L 18.3125 47.703125 
L 18.3125 18.015625 
Q 18.3125 11.328125 20.140625 9.421875 
Q 21.96875 7.515625 27.59375 7.515625 
L 36.8125 7.515625 
L 36.8125 0 
L 27.59375 0 
Q 17.1875 0 13.234375 3.875 
Q 9.28125 7.765625 9.28125 18.015625 
L 9.28125 47.703125 
L 2.6875 47.703125 
L 2.6875 54.6875 
L 9.28125 54.6875 
L 9.28125 70.21875 
z
" id="DejaVuSans-74"/>
      <path d="M 56.203125 29.59375 
L 56.203125 25.203125 
L 14.890625 25.203125 
Q 15.484375 15.921875 20.484375 11.0625 
Q 25.484375 6.203125 34.421875 6.203125 
Q 39.59375 6.203125 44.453125 7.46875 
Q 49.3125 8.734375 54.109375 11.28125 
L 54.109375 2.78125 
Q 49.265625 0.734375 44.1875 -0.34375 
Q 39.109375 -1.421875 33.890625 -1.421875 
Q 20.796875 -1.421875 13.15625 6.1875 
Q 5.515625 13.8125 5.515625 26.8125 
Q 5.515625 40.234375 12.765625 48.109375 
Q 20.015625 56 32.328125 56 
Q 43.359375 56 49.78125 48.890625 
Q 56.203125 41.796875 56.203125 29.59375 
z
M 47.21875 32.234375 
Q 47.125 39.59375 43.09375 43.984375 
Q 39.0625 48.390625 32.421875 48.390625 
Q 24.90625 48.390625 20.390625 44.140625 
Q 15.875 39.890625 15.1875 32.171875 
z
" id="DejaVuSans-65"/>
     </defs>
     <g transform="translate(294.927344 272.354687)scale(0.1 -0.1)">
      <use xlink:href="#DejaVuSans-44"/>
      <use x="77.001953" xlink:href="#DejaVuSans-61"/>
      <use x="138.28125" xlink:href="#DejaVuSans-74"/>
      <use x="177.490234" xlink:href="#DejaVuSans-65"/>
     </g>
    </g>
   </g>
   <g id="matplotlib.axis_2">
    <g id="ytick_1">
     <g id="line2d_9">
      <defs>
       <path d="M 0 0 
L -3.5 0 
" id="m55b6081451" style="stroke:#000000;stroke-width:0.8;"/>
      </defs>
      <g>
       <use style="stroke:#000000;stroke-width:0.8;" x="27.878125" xlink:href="#m55b6081451" y="219.994229"/>
      </g>
     </g>
    </g>
    <g id="ytick_2">
     <g id="line2d_10">
      <g>
       <use style="stroke:#000000;stroke-width:0.8;" x="27.878125" xlink:href="#m55b6081451" y="182.737283"/>
      </g>
     </g>
    </g>
    <g id="ytick_3">
     <g id="line2d_11">
      <g>
       <use style="stroke:#000000;stroke-width:0.8;" x="27.878125" xlink:href="#m55b6081451" y="145.480338"/>
      </g>
     </g>
    </g>
    <g id="ytick_4">
     <g id="line2d_12">
      <g>
       <use style="stroke:#000000;stroke-width:0.8;" x="27.878125" xlink:href="#m55b6081451" y="108.223393"/>
      </g>
     </g>
    </g>
    <g id="ytick_5">
     <g id="line2d_13">
      <g>
       <use style="stroke:#000000;stroke-width:0.8;" x="27.878125" xlink:href="#m55b6081451" y="70.966448"/>
      </g>
     </g>
    </g>
    <g id="ytick_6">
     <g id="line2d_14">
      <g>
       <use style="stroke:#000000;stroke-width:0.8;" x="27.878125" xlink:href="#m55b6081451" y="33.709503"/>
      </g>
     </g>
    </g>
    <g id="text_10">
     <!-- Normalized scf/cell state -->
     <defs>
      <path d="M 9.8125 72.90625 
L 23.09375 72.90625 
L 55.421875 11.921875 
L 55.421875 72.90625 
L 64.984375 72.90625 
L 64.984375 0 
L 51.703125 0 
L 19.390625 60.984375 
L 19.390625 0 
L 9.8125 0 
z
" id="DejaVuSans-4e"/>
      <path d="M 30.609375 48.390625 
Q 23.390625 48.390625 19.1875 42.75 
Q 14.984375 37.109375 14.984375 27.296875 
Q 14.984375 17.484375 19.15625 11.84375 
Q 23.34375 6.203125 30.609375 6.203125 
Q 37.796875 6.203125 41.984375 11.859375 
Q 46.1875 17.53125 46.1875 27.296875 
Q 46.1875 37.015625 41.984375 42.703125 
Q 37.796875 48.390625 30.609375 48.390625 
z
M 30.609375 56 
Q 42.328125 56 49.015625 48.375 
Q 55.71875 40.765625 55.71875 27.296875 
Q 55.71875 13.875 49.015625 6.21875 
Q 42.328125 -1.421875 30.609375 -1.421875 
Q 18.84375 -1.421875 12.171875 6.21875 
Q 5.515625 13.875 5.515625 27.296875 
Q 5.515625 40.765625 12.171875 48.375 
Q 18.84375 56 30.609375 56 
z
" id="DejaVuSans-6f"/>
      <path d="M 41.109375 46.296875 
Q 39.59375 47.171875 37.8125 47.578125 
Q 36.03125 48 33.890625 48 
Q 26.265625 48 22.1875 43.046875 
Q 18.109375 38.09375 18.109375 28.8125 
L 18.109375 0 
L 9.078125 0 
L 9.078125 54.6875 
L 18.109375 54.6875 
L 18.109375 46.1875 
Q 20.953125 51.171875 25.484375 53.578125 
Q 30.03125 56 36.53125 56 
Q 37.453125 56 38.578125 55.875 
Q 39.703125 55.765625 41.0625 55.515625 
z
" id="DejaVuSans-72"/>
      <path d="M 52 44.1875 
Q 55.375 50.25 60.0625 53.125 
Q 64.75 56 71.09375 56 
Q 79.640625 56 84.28125 50.015625 
Q 88.921875 44.046875 88.921875 33.015625 
L 88.921875 0 
L 79.890625 0 
L 79.890625 32.71875 
Q 79.890625 40.578125 77.09375 44.375 
Q 74.3125 48.1875 68.609375 48.1875 
Q 61.625 48.1875 57.5625 43.546875 
Q 53.515625 38.921875 53.515625 30.90625 
L 53.515625 0 
L 44.484375 0 
L 44.484375 32.71875 
Q 44.484375 40.625 41.703125 44.40625 
Q 38.921875 48.1875 33.109375 48.1875 
Q 26.21875 48.1875 22.15625 43.53125 
Q 18.109375 38.875 18.109375 30.90625 
L 18.109375 0 
L 9.078125 0 
L 9.078125 54.6875 
L 18.109375 54.6875 
L 18.109375 46.1875 
Q 21.1875 51.21875 25.484375 53.609375 
Q 29.78125 56 35.6875 56 
Q 41.65625 56 45.828125 52.96875 
Q 50 49.953125 52 44.1875 
z
" id="DejaVuSans-6d"/>
      <path d="M 9.421875 75.984375 
L 18.40625 75.984375 
L 18.40625 0 
L 9.421875 0 
z
" id="DejaVuSans-6c"/>
      <path d="M 9.421875 54.6875 
L 18.40625 54.6875 
L 18.40625 0 
L 9.421875 0 
z
M 9.421875 75.984375 
L 18.40625 75.984375 
L 18.40625 64.59375 
L 9.421875 64.59375 
z
" id="DejaVuSans-69"/>
      <path d="M 5.515625 54.6875 
L 48.1875 54.6875 
L 48.1875 46.484375 
L 14.40625 7.171875 
L 48.1875 7.171875 
L 48.1875 0 
L 4.296875 0 
L 4.296875 8.203125 
L 38.09375 47.515625 
L 5.515625 47.515625 
z
" id="DejaVuSans-7a"/>
      <path d="M 45.40625 46.390625 
L 45.40625 75.984375 
L 54.390625 75.984375 
L 54.390625 0 
L 45.40625 0 
L 45.40625 8.203125 
Q 42.578125 3.328125 38.25 0.953125 
Q 33.9375 -1.421875 27.875 -1.421875 
Q 17.96875 -1.421875 11.734375 6.484375 
Q 5.515625 14.40625 5.515625 27.296875 
Q 5.515625 40.1875 11.734375 48.09375 
Q 17.96875 56 27.875 56 
Q 33.9375 56 38.25 53.625 
Q 42.578125 51.265625 45.40625 46.390625 
z
M 14.796875 27.296875 
Q 14.796875 17.390625 18.875 11.75 
Q 22.953125 6.109375 30.078125 6.109375 
Q 37.203125 6.109375 41.296875 11.75 
Q 45.40625 17.390625 45.40625 27.296875 
Q 45.40625 37.203125 41.296875 42.84375 
Q 37.203125 48.484375 30.078125 48.484375 
Q 22.953125 48.484375 18.875 42.84375 
Q 14.796875 37.203125 14.796875 27.296875 
z
" id="DejaVuSans-64"/>
      <path id="DejaVuSans-20"/>
      <path d="M 44.28125 53.078125 
L 44.28125 44.578125 
Q 40.484375 46.53125 36.375 47.5 
Q 32.28125 48.484375 27.875 48.484375 
Q 21.1875 48.484375 17.84375 46.4375 
Q 14.5 44.390625 14.5 40.28125 
Q 14.5 37.15625 16.890625 35.375 
Q 19.28125 33.59375 26.515625 31.984375 
L 29.59375 31.296875 
Q 39.15625 29.25 43.1875 25.515625 
Q 47.21875 21.78125 47.21875 15.09375 
Q 47.21875 7.46875 41.1875 3.015625 
Q 35.15625 -1.421875 24.609375 -1.421875 
Q 20.21875 -1.421875 15.453125 -0.5625 
Q 10.6875 0.296875 5.421875 2 
L 5.421875 11.28125 
Q 10.40625 8.6875 15.234375 7.390625 
Q 20.0625 6.109375 24.8125 6.109375 
Q 31.15625 6.109375 34.5625 8.28125 
Q 37.984375 10.453125 37.984375 14.40625 
Q 37.984375 18.0625 35.515625 20.015625 
Q 33.0625 21.96875 24.703125 23.78125 
L 21.578125 24.515625 
Q 13.234375 26.265625 9.515625 29.90625 
Q 5.8125 33.546875 5.8125 39.890625 
Q 5.8125 47.609375 11.28125 51.796875 
Q 16.75 56 26.8125 56 
Q 31.78125 56 36.171875 55.265625 
Q 40.578125 54.546875 44.28125 53.078125 
z
" id="DejaVuSans-73"/>
      <path d="M 48.78125 52.59375 
L 48.78125 44.1875 
Q 44.96875 46.296875 41.140625 47.34375 
Q 37.3125 48.390625 33.40625 48.390625 
Q 24.65625 48.390625 19.8125 42.84375 
Q 14.984375 37.3125 14.984375 27.296875 
Q 14.984375 17.28125 19.8125 11.734375 
Q 24.65625 6.203125 33.40625 6.203125 
Q 37.3125 6.203125 41.140625 7.25 
Q 44.96875 8.296875 48.78125 10.40625 
L 48.78125 2.09375 
Q 45.015625 0.34375 40.984375 -0.53125 
Q 36.96875 -1.421875 32.421875 -1.421875 
Q 20.0625 -1.421875 12.78125 6.34375 
Q 5.515625 14.109375 5.515625 27.296875 
Q 5.515625 40.671875 12.859375 48.328125 
Q 20.21875 56 33.015625 56 
Q 37.15625 56 41.109375 55.140625 
Q 45.0625 54.296875 48.78125 52.59375 
z
" id="DejaVuSans-63"/>
      <path d="M 37.109375 75.984375 
L 37.109375 68.5 
L 28.515625 68.5 
Q 23.6875 68.5 21.796875 66.546875 
Q 19.921875 64.59375 19.921875 59.515625 
L 19.921875 54.6875 
L 34.71875 54.6875 
L 34.71875 47.703125 
L 19.921875 47.703125 
L 19.921875 0 
L 10.890625 0 
L 10.890625 47.703125 
L 2.296875 47.703125 
L 2.296875 54.6875 
L 10.890625 54.6875 
L 10.890625 58.5 
Q 10.890625 67.625 15.140625 71.796875 
Q 19.390625 75.984375 28.609375 75.984375 
z
" id="DejaVuSans-66"/>
      <path d="M 25.390625 72.90625 
L 33.6875 72.90625 
L 8.296875 -9.28125 
L 0 -9.28125 
z
" id="DejaVuSans-2f"/>
     </defs>
     <g transform="translate(14.798438 194.886406)rotate(-90)scale(0.1 -0.1)">
      <use xlink:href="#DejaVuSans-4e"/>
      <use x="74.804688" xlink:href="#DejaVuSans-6f"/>
      <use x="135.986328" xlink:href="#DejaVuSans-72"/>
      <use x="177.083984" xlink:href="#DejaVuSans-6d"/>
      <use x="274.496094" xlink:href="#DejaVuSans-61"/>
      <use x="335.775391" xlink:href="#DejaVuSans-6c"/>
      <use x="363.558594" xlink:href="#DejaVuSans-69"/>
      <use x="391.341797" xlink:href="#DejaVuSans-7a"/>
      <use x="443.832031" xlink:href="#DejaVuSans-65"/>
      <use x="505.355469" xlink:href="#DejaVuSans-64"/>
      <use x="568.832031" xlink:href="#DejaVuSans-20"/>
      <use x="600.619141" xlink:href="#DejaVuSans-73"/>
      <use x="652.71875" xlink:href="#DejaVuSans-63"/>
      <use x="707.699219" xlink:href="#DejaVuSans-66"/>
      <use x="742.904297" xlink:href="#DejaVuSans-2f"/>
      <use x="776.595703" xlink:href="#DejaVuSans-63"/>
      <use x="831.576172" xlink:href="#DejaVuSans-65"/>
      <use x="893.099609" xlink:href="#DejaVuSans-6c"/>
      <use x="920.882812" xlink:href="#DejaVuSans-6c"/>
      <use x="948.666016" xlink:href="#DejaVuSans-20"/>
      <use x="980.453125" xlink:href="#DejaVuSans-73"/>
      <use x="1032.552734" xlink:href="#DejaVuSans-74"/>
      <use x="1071.761719" xlink:href="#DejaVuSans-61"/>
      <use x="1133.041016" xlink:href="#DejaVuSans-74"/>
      <use x="1172.25" xlink:href="#DejaVuSans-65"/>
     </g>
    </g>
   </g>
   <g id="line2d_15">
    <path clip-path="url(#p7a833f5d2d)" d="M 27.878125 202.928784 
L 29.361181 228.725283 
L 30.844238 203.752077 
L 32.327294 193.415182 
L 33.810351 109.726844 
L 38.25952 110.497864 
L 39.742577 110.471727 
L 42.70869 132.217105 
L 44.191746 109.047301 
L 46.601713 109.047301 
L 48.08477 145.938647 
L 49.567826 139.940372 
L 52.533939 166.481755 
L 54.016995 109.922866 
L 58.466165 165.828348 
L 59.949221 172.859005 
L 61.432278 153.230666 
L 65.881447 179.432277 
L 67.364504 190.226557 
L 68.84756 176.936263 
L 70.330617 201.987879 
L 71.813673 206.3265 
L 73.29673 205.607752 
L 74.779786 212.377046 
L 76.262843 212.899772 
L 79.228956 219.525316 
L 80.712012 218.336116 
L 82.195069 226.320747 
L 85.161181 222.609396 
L 86.644238 227.732105 
L 88.127294 221.577013 
L 89.610351 221.028152 
L 91.093407 227.496879 
L 92.576464 208.63956 
L 94.05952 218.793501 
L 97.025633 215.147491 
L 98.50869 204.614574 
L 99.991746 177.851033 
L 101.474803 166.324938 
L 102.957859 176.570356 
L 104.440916 136.634134 
L 107.407029 120.978508 
L 111.856198 109.478549 
L 114.266165 113.503535 
L 115.749221 119.828512 
L 117.232278 117.685338 
L 120.198391 109.766048 
L 121.681447 127.355758 
L 123.164504 139.809691 
L 124.64756 137.627313 
L 129.09673 140.632984 
L 130.579786 193.885635 
L 133.545899 161.777227 
L 135.028956 175.06752 
L 136.512012 165.475509 
L 137.995069 206.221955 
L 139.478125 194.826541 
L 140.961181 195.963468 
L 142.444238 204.797528 
L 145.410351 203.686736 
L 146.893407 214.271926 
L 148.376464 203.569123 
L 149.85952 208.169107 
L 151.342577 222.557124 
L 152.825633 219.107136 
L 154.30869 213.461701 
L 155.791746 218.898046 
L 157.274803 217.617368 
L 158.757859 222.740078 
L 160.240916 212.455455 
L 161.723972 224.634957 
L 163.207029 220.12645 
L 164.690085 171.186284 
L 166.173142 193.493591 
L 167.656198 209.031604 
L 172.105368 160.078369 
L 173.588424 151.505672 
L 175.07148 167.187435 
L 176.554537 109.739912 
L 182.115999 153.073848 
L 183.599055 146.069328 
L 185.082112 111.464906 
L 186.565168 143.690927 
L 189.531281 146.017055 
L 191.014338 128.453482 
L 192.497394 120.011466 
L 196.946564 157.699968 
L 199.912676 161.999385 
L 201.395733 169.578903 
L 202.878789 155.138614 
L 204.361846 176.152175 
L 207.327959 201.70038 
L 208.811015 215.01681 
L 210.294072 212.729886 
L 213.260185 214.467948 
L 214.743241 206.444113 
L 216.226298 218.806569 
L 217.709354 207.777063 
L 219.192411 220.609971 
L 220.675467 226.778131 
L 222.158524 226.869608 
L 223.64158 226.242338 
L 225.124637 224.386663 
L 226.607693 211.906593 
L 228.09075 221.81224 
L 229.573806 217.734982 
L 231.056863 208.731037 
L 232.539919 224.47814 
L 234.022975 156.615313 
L 236.989088 196.133354 
L 241.438258 140.86821 
L 242.921314 137.967084 
L 245.887427 140.672188 
L 247.370484 141.691503 
L 248.297394 112.248994 
L 251.263507 176.308993 
L 255.712676 120.808622 
L 257.195733 177.302171 
L 258.678789 173.52548 
L 260.161846 181.470906 
L 261.644902 159.673257 
L 263.127959 170.127765 
L 266.094072 155.974974 
L 267.577128 169.801062 
L 272.026298 199.94925 
L 276.475467 179.197051 
L 277.958524 209.397511 
L 279.44158 200.092999 
L 280.924637 211.057165 
L 282.407693 214.363403 
L 283.89075 215.474194 
L 285.373806 218.610547 
L 286.856863 215.85317 
L 288.339919 224.608821 
L 289.822975 225.471318 
L 291.306032 224.438935 
L 292.789088 224.112232 
L 294.272145 228.111081 
L 295.755201 194.695859 
L 297.238258 222.138943 
L 298.721314 226.64745 
L 301.687427 207.293542 
L 304.65354 195.11404 
L 310.585766 131.014836 
L 312.068823 138.568218 
L 313.551879 158.680078 
L 315.034936 109.047301 
L 315.961846 109.047301 
L 318.927959 133.001193 
L 320.411015 149.584656 
L 321.894072 125.369402 
L 323.377128 164.822102 
L 324.860185 146.905689 
L 335.24158 162.639723 
L 336.724637 179.589095 
L 338.207693 164.573807 
L 339.69075 173.94366 
L 341.173806 169.696516 
L 344.139919 190.304966 
L 345.622975 204.732187 
L 347.106032 188.762926 
L 348.589088 209.541261 
L 350.072145 203.45151 
L 353.038258 214.703174 
L 354.521314 216.192942 
L 356.004371 219.734406 
L 357.487427 219.891224 
L 358.970484 221.132697 
L 360.45354 221.237242 
L 361.936597 224.059959 
L 363.419653 207.280474 
L 364.90271 214.990673 
L 367.868823 190.683942 
L 369.351879 201.295268 
L 370.834936 159.817006 
L 372.317992 136.843224 
L 373.801049 186.515207 
L 375.284105 109.700707 
L 376.767162 149.545452 
L 378.250218 115.058643 
L 379.733275 133.118806 
L 381.216331 126.976782 
L 383.626298 147.80739 
L 385.109354 159.202804 
L 386.592411 113.81717 
L 388.075467 115.202392 
L 389.558524 153.322143 
L 395.49075 158.915305 
L 401.422975 158.536329 
L 402.906032 181.157271 
L 404.389088 207.855471 
L 405.872145 181.679997 
L 407.355201 174.780021 
L 408.838258 164.129491 
L 413.287427 209.580465 
L 414.770484 196.054945 
L 416.25354 215.617944 
L 417.736597 210.024782 
L 419.219653 210.835006 
L 420.70271 216.62419 
L 422.185766 219.590657 
L 423.668823 217.826459 
L 425.151879 225.471318 
L 426.634936 220.309404 
L 428.117992 221.341787 
L 429.601049 219.316226 
L 431.084105 226.634382 
L 432.567162 192.043028 
L 434.050218 222.740078 
L 435.533275 224.569616 
L 437.016331 222.295761 
L 441.4655 166.115847 
L 444.431613 122.442139 
L 450.363839 112.222858 
L 451.476132 116.300116 
L 452.959188 114.326827 
L 454.442245 155.151682 
L 455.925301 119.98533 
L 457.408358 174.387977 
L 458.891414 160.392004 
L 461.857527 145.246035 
L 463.340583 140.946619 
L 466.306696 126.741556 
L 467.789753 198.642436 
L 470.755866 170.937989 
L 472.238922 166.115847 
L 473.721979 179.785117 
L 475.205035 191.807801 
L 476.688092 212.756022 
L 479.654205 206.810021 
L 481.137261 192.056096 
L 484.103374 217.303733 
L 485.586431 218.205435 
L 487.069487 214.324198 
L 488.552544 223.602574 
L 490.0356 224.739502 
L 491.518657 220.62304 
L 493.001713 215.186695 
L 494.48477 226.908813 
L 495.967826 223.680983 
L 497.450882 226.320747 
L 498.933939 212.403183 
L 501.900052 205.098095 
L 503.383108 192.892457 
L 504.866165 216.781008 
L 506.349221 208.103766 
L 507.832278 165.723803 
L 510.798391 153.309075 
L 512.281447 169.173791 
L 513.764504 109.648435 
L 515.24756 130.831882 
L 516.730617 116.731364 
L 518.213673 125.473947 
L 519.140583 140.855142 
L 520.62364 143.338088 
L 522.106696 156.4977 
L 523.589753 190.448715 
L 525.072809 137.875607 
L 529.521979 156.732926 
L 531.005035 165.318691 
L 533.971148 167.579479 
L 536.937261 164.560739 
L 539.903374 170.336855 
L 541.386431 208.482742 
L 542.869487 197.126532 
L 544.352544 200.955496 
L 545.8356 206.796952 
L 547.318657 208.63956 
L 548.801713 198.276528 
L 550.28477 186.63282 
L 551.767826 212.429319 
L 553.250882 217.996344 
L 554.733939 219.342362 
L 556.216995 221.577013 
L 557.700052 217.74805 
L 559.183108 223.053713 
L 560.666165 216.807144 
L 562.149221 217.813391 
L 563.632278 221.341787 
L 565.115334 225.471318 
L 566.598391 226.399155 
L 568.081447 220.884402 
L 569.564504 217.199188 
L 571.04756 220.975879 
L 572.530617 214.010563 
L 575.49673 203.203215 
L 576.979786 173.041959 
L 578.462843 220.47929 
L 579.945899 110.537068 
L 582.912012 156.210201 
L 585.878125 125.604628 
L 585.878125 125.604628 
" style="fill:none;stroke:#1f77b4;stroke-linecap:square;stroke-width:1.5;"/>
   </g>
   <g id="line2d_16">
    <path clip-path="url(#p7a833f5d2d)" d="M 27.878125 214.820705 
L 29.361181 203.046385 
L 30.844238 202.661189 
L 32.327294 199.168175 
L 33.810351 188.282186 
L 38.25952 158.461473 
L 39.742577 151.567566 
L 42.70869 162.036883 
L 44.191746 156.257783 
L 46.601713 85.090088 
L 48.08477 152.213226 
L 49.567826 146.549033 
L 52.533939 192.452676 
L 54.016995 165.743805 
L 58.466165 104.143991 
L 59.949221 129.140479 
L 61.432278 94.301125 
L 65.881447 159.051429 
L 67.364504 190.894257 
L 68.84756 192.557215 
L 70.330617 198.158621 
L 71.813673 200.244969 
L 73.29673 223.247406 
L 74.779786 204.946667 
L 76.262843 203.473137 
L 77.745899 207.092572 
L 79.228956 222.834887 
L 80.712012 231.892852 
L 82.195069 215.457601 
L 83.678125 219.716581 
L 85.161181 216.759081 
L 86.644238 211.564594 
L 88.127294 211.861362 
L 89.610351 217.426899 
L 91.093407 214.782845 
L 92.576464 218.258635 
L 94.05952 202.076396 
L 97.025633 192.164092 
L 98.50869 199.890897 
L 99.991746 193.989682 
L 101.474803 193.659085 
L 102.957859 205.235932 
L 104.440916 192.843932 
L 107.407029 148.200407 
L 111.856198 118.553172 
L 114.266165 116.246251 
L 115.749221 122.832826 
L 117.232278 151.293346 
L 120.198391 67.508519 
L 123.164504 150.698953 
L 124.64756 166.871761 
L 129.09673 124.198762 
L 130.579786 130.09744 
L 135.028956 154.529029 
L 136.512012 174.520278 
L 137.995069 202.369302 
L 139.478125 201.828665 
L 140.961181 199.404638 
L 142.444238 188.12482 
L 143.927294 182.811619 
L 145.410351 202.91254 
L 146.893407 229.275785 
L 148.376464 216.685823 
L 149.85952 216.834615 
L 151.342577 214.536879 
L 152.825633 214.286721 
L 154.30869 218.739911 
L 155.791746 218.696741 
L 157.274803 211.095034 
L 158.757859 209.00181 
L 160.240916 215.175291 
L 161.723972 209.150621 
L 163.207029 216.364953 
L 164.690085 203.213263 
L 166.173142 195.838332 
L 167.656198 196.731694 
L 172.105368 206.822886 
L 173.588424 191.78075 
L 175.07148 201.967742 
L 176.554537 189.162417 
L 182.115999 32.398125 
L 185.082112 174.39866 
L 186.565168 173.053638 
L 189.531281 180.507746 
L 191.014338 177.579221 
L 192.497394 158.684461 
L 196.946564 99.554462 
L 199.912676 135.59396 
L 201.395733 128.862378 
L 202.878789 160.417656 
L 204.361846 164.341672 
L 205.844902 159.786168 
L 207.327959 172.509453 
L 208.811015 224.112151 
L 210.294072 213.770305 
L 213.260185 207.133713 
L 214.743241 226.278164 
L 216.226298 215.982202 
L 217.709354 222.217172 
L 219.192411 233.998125 
L 220.675467 223.479521 
L 222.158524 211.858011 
L 223.64158 219.740291 
L 225.124637 215.338978 
L 226.607693 210.170174 
L 228.09075 219.649347 
L 229.573806 221.126197 
L 231.056863 199.745784 
L 232.539919 201.418633 
L 234.022975 206.956578 
L 236.989088 191.876412 
L 241.438258 115.418077 
L 242.921314 142.652609 
L 245.887427 145.431497 
L 247.370484 139.592804 
L 248.297394 149.081016 
L 251.263507 132.968633 
L 254.22962 172.879648 
L 255.712676 184.33943 
L 257.195733 180.198596 
L 258.678789 188.917887 
L 260.161846 189.597692 
L 261.644902 174.915078 
L 263.127959 184.948749 
L 266.094072 168.584576 
L 267.577128 153.241542 
L 272.026298 160.722416 
L 276.475467 196.573255 
L 277.958524 199.185751 
L 279.44158 195.11026 
L 280.924637 212.469 
L 282.407693 204.483556 
L 283.89075 217.671155 
L 285.373806 217.725768 
L 286.856863 226.455344 
L 288.339919 224.001751 
L 289.822975 219.267058 
L 292.789088 205.627474 
L 294.272145 207.222072 
L 295.755201 212.985474 
L 297.238258 205.790777 
L 298.721314 219.098641 
L 300.204371 207.681734 
L 301.687427 200.581347 
L 304.65354 191.356451 
L 310.585766 153.118189 
L 312.068823 148.93435 
L 313.551879 129.928556 
L 315.034936 151.462625 
L 315.961846 154.892394 
L 318.927959 81.140259 
L 320.411015 108.708196 
L 321.894072 151.841763 
L 323.377128 137.723075 
L 324.860185 149.521958 
L 335.24158 133.802278 
L 336.724637 133.762262 
L 338.207693 128.927329 
L 339.69075 134.680613 
L 341.173806 128.436108 
L 345.622975 202.653506 
L 347.106032 200.24737 
L 348.589088 202.017377 
L 350.072145 210.27489 
L 353.038258 210.844654 
L 354.521314 213.155734 
L 356.004371 218.01215 
L 357.487427 214.225279 
L 358.970484 223.198751 
L 360.45354 220.581338 
L 361.936597 221.909389 
L 363.419653 217.153959 
L 364.90271 216.703337 
L 367.868823 200.942534 
L 369.351879 200.126837 
L 370.834936 202.715685 
L 372.317992 193.641091 
L 373.801049 194.26545 
L 375.284105 177.646201 
L 376.767162 109.590341 
L 378.250218 130.536359 
L 379.733275 162.84005 
L 381.216331 174.213679 
L 383.626298 125.969169 
L 385.109354 132.489679 
L 386.592411 156.195009 
L 388.075467 102.88472 
L 389.558524 107.871405 
L 395.49075 127.014607 
L 401.422975 132.246789 
L 402.906032 145.131757 
L 404.389088 132.919089 
L 405.872145 135.908902 
L 407.355201 128.603344 
L 408.838258 130.079079 
L 413.287427 140.902463 
L 414.770484 160.630709 
L 416.25354 200.859348 
L 417.736597 208.420303 
L 419.219653 228.357429 
L 420.70271 227.655519 
L 422.185766 223.348376 
L 423.668823 225.813534 
L 425.151879 228.796144 
L 426.634936 227.071873 
L 428.117992 216.15854 
L 429.601049 215.650356 
L 431.084105 210.106631 
L 432.567162 220.789603 
L 434.050218 211.779219 
L 435.533275 201.632971 
L 437.016331 210.460717 
L 441.4655 192.809678 
L 444.431613 159.166012 
L 450.363839 134.290576 
L 451.476132 143.733968 
L 452.959188 148.601076 
L 454.442245 157.443808 
L 455.925301 187.585537 
L 457.408358 134.406887 
L 458.891414 151.171941 
L 461.857527 148.873717 
L 463.340583 134.960322 
L 466.306696 126.835095 
L 467.789753 148.745166 
L 470.755866 154.09948 
L 472.238922 134.134831 
L 473.721979 140.388396 
L 475.205035 160.098303 
L 476.688092 200.15131 
L 479.654205 201.780967 
L 481.137261 208.166288 
L 484.103374 214.2464 
L 485.586431 222.791548 
L 487.069487 213.470674 
L 488.552544 222.673079 
L 490.0356 218.343892 
L 491.518657 221.805892 
L 493.001713 220.055928 
L 495.967826 219.344433 
L 497.450882 217.936687 
L 498.933939 227.386731 
L 501.900052 204.118062 
L 503.383108 199.158103 
L 504.866165 200.357808 
L 506.349221 216.027855 
L 507.832278 197.558061 
L 510.798391 182.272238 
L 512.281447 187.129732 
L 513.764504 179.163219 
L 515.24756 169.900178 
L 516.730617 172.976731 
L 518.213673 157.264425 
L 519.140583 170.883569 
L 520.62364 176.438579 
L 522.106696 109.124006 
L 523.589753 159.970328 
L 525.072809 180.744154 
L 529.521979 92.055673 
L 531.005035 121.581154 
L 533.971148 137.161014 
L 536.937261 163.184938 
L 539.903374 173.879078 
L 541.386431 163.244522 
L 542.869487 191.798614 
L 544.352544 211.756555 
L 545.8356 206.989928 
L 547.318657 206.94811 
L 548.801713 209.604438 
L 550.28477 200.805587 
L 551.767826 214.066942 
L 553.250882 216.014771 
L 554.733939 228.642992 
L 556.216995 218.101404 
L 557.700052 223.124136 
L 559.183108 227.113356 
L 560.666165 227.790106 
L 562.149221 215.601768 
L 563.632278 218.794804 
L 565.115334 219.21576 
L 566.598391 218.874534 
L 568.081447 220.772708 
L 569.564504 207.358409 
L 571.04756 215.455886 
L 572.530617 205.494448 
L 575.49673 198.124844 
L 576.979786 195.847227 
L 578.462843 176.298081 
L 579.945899 182.147337 
L 582.912012 186.796472 
L 585.878125 169.237333 
L 585.878125 169.237333 
" style="fill:none;stroke:#ff7f0e;stroke-linecap:square;stroke-width:1.5;"/>
   </g>
   <g id="patch_3">
    <path d="M 27.878125 244.078125 
L 27.878125 22.318125 
" style="fill:none;stroke:#000000;stroke-linecap:square;stroke-linejoin:miter;stroke-width:0.8;"/>
   </g>
   <g id="patch_4">
    <path d="M 585.878125 244.078125 
L 585.878125 22.318125 
" style="fill:none;stroke:#000000;stroke-linecap:square;stroke-linejoin:miter;stroke-width:0.8;"/>
   </g>
   <g id="patch_5">
    <path d="M 27.878125 244.078125 
L 585.878125 244.078125 
" style="fill:none;stroke:#000000;stroke-linecap:square;stroke-linejoin:miter;stroke-width:0.8;"/>
   </g>
   <g id="patch_6">
    <path d="M 27.878125 22.318125 
L 585.878125 22.318125 
" style="fill:none;stroke:#000000;stroke-linecap:square;stroke-linejoin:miter;stroke-width:0.8;"/>
   </g>
   <g id="text_11">
    <!-- Snow cover fraction (SCF) cell: corr=0.80, p=2.17e-66 -->
    <defs>
     <path d="M 53.515625 70.515625 
L 53.515625 60.890625 
Q 47.90625 63.578125 42.921875 64.890625 
Q 37.9375 66.21875 33.296875 66.21875 
Q 25.25 66.21875 20.875 63.09375 
Q 16.5 59.96875 16.5 54.203125 
Q 16.5 49.359375 19.40625 46.890625 
Q 22.3125 44.4375 30.421875 42.921875 
L 36.375 41.703125 
Q 47.40625 39.59375 52.65625 34.296875 
Q 57.90625 29 57.90625 20.125 
Q 57.90625 9.515625 50.796875 4.046875 
Q 43.703125 -1.421875 29.984375 -1.421875 
Q 24.8125 -1.421875 18.96875 -0.25 
Q 13.140625 0.921875 6.890625 3.21875 
L 6.890625 13.375 
Q 12.890625 10.015625 18.65625 8.296875 
Q 24.421875 6.59375 29.984375 6.59375 
Q 38.421875 6.59375 43.015625 9.90625 
Q 47.609375 13.234375 47.609375 19.390625 
Q 47.609375 24.75 44.3125 27.78125 
Q 41.015625 30.8125 33.5 32.328125 
L 27.484375 33.5 
Q 16.453125 35.6875 11.515625 40.375 
Q 6.59375 45.0625 6.59375 53.421875 
Q 6.59375 63.09375 13.40625 68.65625 
Q 20.21875 74.21875 32.171875 74.21875 
Q 37.3125 74.21875 42.625 73.28125 
Q 47.953125 72.359375 53.515625 70.515625 
z
" id="DejaVuSans-53"/>
     <path d="M 54.890625 33.015625 
L 54.890625 0 
L 45.90625 0 
L 45.90625 32.71875 
Q 45.90625 40.484375 42.875 44.328125 
Q 39.84375 48.1875 33.796875 48.1875 
Q 26.515625 48.1875 22.3125 43.546875 
Q 18.109375 38.921875 18.109375 30.90625 
L 18.109375 0 
L 9.078125 0 
L 9.078125 54.6875 
L 18.109375 54.6875 
L 18.109375 46.1875 
Q 21.34375 51.125 25.703125 53.5625 
Q 30.078125 56 35.796875 56 
Q 45.21875 56 50.046875 50.171875 
Q 54.890625 44.34375 54.890625 33.015625 
z
" id="DejaVuSans-6e"/>
     <path d="M 4.203125 54.6875 
L 13.1875 54.6875 
L 24.421875 12.015625 
L 35.59375 54.6875 
L 46.1875 54.6875 
L 57.421875 12.015625 
L 68.609375 54.6875 
L 77.59375 54.6875 
L 63.28125 0 
L 52.6875 0 
L 40.921875 44.828125 
L 29.109375 0 
L 18.5 0 
z
" id="DejaVuSans-77"/>
     <path d="M 2.984375 54.6875 
L 12.5 54.6875 
L 29.59375 8.796875 
L 46.6875 54.6875 
L 56.203125 54.6875 
L 35.6875 0 
L 23.484375 0 
z
" id="DejaVuSans-76"/>
     <path d="M 31 75.875 
Q 24.46875 64.65625 21.28125 53.65625 
Q 18.109375 42.671875 18.109375 31.390625 
Q 18.109375 20.125 21.3125 9.0625 
Q 24.515625 -2 31 -13.1875 
L 23.1875 -13.1875 
Q 15.875 -1.703125 12.234375 9.375 
Q 8.59375 20.453125 8.59375 31.390625 
Q 8.59375 42.28125 12.203125 53.3125 
Q 15.828125 64.359375 23.1875 75.875 
z
" id="DejaVuSans-28"/>
     <path d="M 64.40625 67.28125 
L 64.40625 56.890625 
Q 59.421875 61.53125 53.78125 63.8125 
Q 48.140625 66.109375 41.796875 66.109375 
Q 29.296875 66.109375 22.65625 58.46875 
Q 16.015625 50.828125 16.015625 36.375 
Q 16.015625 21.96875 22.65625 14.328125 
Q 29.296875 6.6875 41.796875 6.6875 
Q 48.140625 6.6875 53.78125 8.984375 
Q 59.421875 11.28125 64.40625 15.921875 
L 64.40625 5.609375 
Q 59.234375 2.09375 53.4375 0.328125 
Q 47.65625 -1.421875 41.21875 -1.421875 
Q 24.65625 -1.421875 15.125 8.703125 
Q 5.609375 18.84375 5.609375 36.375 
Q 5.609375 53.953125 15.125 64.078125 
Q 24.65625 74.21875 41.21875 74.21875 
Q 47.75 74.21875 53.53125 72.484375 
Q 59.328125 70.75 64.40625 67.28125 
z
" id="DejaVuSans-43"/>
     <path d="M 9.8125 72.90625 
L 51.703125 72.90625 
L 51.703125 64.59375 
L 19.671875 64.59375 
L 19.671875 43.109375 
L 48.578125 43.109375 
L 48.578125 34.8125 
L 19.671875 34.8125 
L 19.671875 0 
L 9.8125 0 
z
" id="DejaVuSans-46"/>
     <path d="M 8.015625 75.875 
L 15.828125 75.875 
Q 23.140625 64.359375 26.78125 53.3125 
Q 30.421875 42.28125 30.421875 31.390625 
Q 30.421875 20.453125 26.78125 9.375 
Q 23.140625 -1.703125 15.828125 -13.1875 
L 8.015625 -13.1875 
Q 14.5 -2 17.703125 9.0625 
Q 20.90625 20.125 20.90625 31.390625 
Q 20.90625 42.671875 17.703125 53.65625 
Q 14.5 64.65625 8.015625 75.875 
z
" id="DejaVuSans-29"/>
     <path d="M 11.71875 12.40625 
L 22.015625 12.40625 
L 22.015625 0 
L 11.71875 0 
z
M 11.71875 51.703125 
L 22.015625 51.703125 
L 22.015625 39.3125 
L 11.71875 39.3125 
z
" id="DejaVuSans-3a"/>
     <path d="M 10.59375 45.40625 
L 73.1875 45.40625 
L 73.1875 37.203125 
L 10.59375 37.203125 
z
M 10.59375 25.484375 
L 73.1875 25.484375 
L 73.1875 17.1875 
L 10.59375 17.1875 
z
" id="DejaVuSans-3d"/>
     <path d="M 10.6875 12.40625 
L 21 12.40625 
L 21 0 
L 10.6875 0 
z
" id="DejaVuSans-2e"/>
     <path d="M 11.71875 12.40625 
L 22.015625 12.40625 
L 22.015625 4 
L 14.015625 -11.625 
L 7.71875 -11.625 
L 11.71875 4 
z
" id="DejaVuSans-2c"/>
     <path d="M 18.109375 8.203125 
L 18.109375 -20.796875 
L 9.078125 -20.796875 
L 9.078125 54.6875 
L 18.109375 54.6875 
L 18.109375 46.390625 
Q 20.953125 51.265625 25.265625 53.625 
Q 29.59375 56 35.59375 56 
Q 45.5625 56 51.78125 48.09375 
Q 58.015625 40.1875 58.015625 27.296875 
Q 58.015625 14.40625 51.78125 6.484375 
Q 45.5625 -1.421875 35.59375 -1.421875 
Q 29.59375 -1.421875 25.265625 0.953125 
Q 20.953125 3.328125 18.109375 8.203125 
z
M 48.6875 27.296875 
Q 48.6875 37.203125 44.609375 42.84375 
Q 40.53125 48.484375 33.40625 48.484375 
Q 26.265625 48.484375 22.1875 42.84375 
Q 18.109375 37.203125 18.109375 27.296875 
Q 18.109375 17.390625 22.1875 11.75 
Q 26.265625 6.109375 33.40625 6.109375 
Q 40.53125 6.109375 44.609375 11.75 
Q 48.6875 17.390625 48.6875 27.296875 
z
" id="DejaVuSans-70"/>
     <path d="M 4.890625 31.390625 
L 31.203125 31.390625 
L 31.203125 23.390625 
L 4.890625 23.390625 
z
" id="DejaVuSans-2d"/>
     <path d="M 33.015625 40.375 
Q 26.375 40.375 22.484375 35.828125 
Q 18.609375 31.296875 18.609375 23.390625 
Q 18.609375 15.53125 22.484375 10.953125 
Q 26.375 6.390625 33.015625 6.390625 
Q 39.65625 6.390625 43.53125 10.953125 
Q 47.40625 15.53125 47.40625 23.390625 
Q 47.40625 31.296875 43.53125 35.828125 
Q 39.65625 40.375 33.015625 40.375 
z
M 52.59375 71.296875 
L 52.59375 62.3125 
Q 48.875 64.0625 45.09375 64.984375 
Q 41.3125 65.921875 37.59375 65.921875 
Q 27.828125 65.921875 22.671875 59.328125 
Q 17.53125 52.734375 16.796875 39.40625 
Q 19.671875 43.65625 24.015625 45.921875 
Q 28.375 48.1875 33.59375 48.1875 
Q 44.578125 48.1875 50.953125 41.515625 
Q 57.328125 34.859375 57.328125 23.390625 
Q 57.328125 12.15625 50.6875 5.359375 
Q 44.046875 -1.421875 33.015625 -1.421875 
Q 20.359375 -1.421875 13.671875 8.265625 
Q 6.984375 17.96875 6.984375 36.375 
Q 6.984375 53.65625 15.1875 63.9375 
Q 23.390625 74.21875 37.203125 74.21875 
Q 40.921875 74.21875 44.703125 73.484375 
Q 48.484375 72.75 52.59375 71.296875 
z
" id="DejaVuSans-36"/>
    </defs>
    <g transform="translate(143.157813 16.318125)scale(0.12 -0.12)">
     <use xlink:href="#DejaVuSans-53"/>
     <use x="63.476562" xlink:href="#DejaVuSans-6e"/>
     <use x="126.855469" xlink:href="#DejaVuSans-6f"/>
     <use x="188.037109" xlink:href="#DejaVuSans-77"/>
     <use x="269.824219" xlink:href="#DejaVuSans-20"/>
     <use x="301.611328" xlink:href="#DejaVuSans-63"/>
     <use x="356.591797" xlink:href="#DejaVuSans-6f"/>
     <use x="417.773438" xlink:href="#DejaVuSans-76"/>
     <use x="476.953125" xlink:href="#DejaVuSans-65"/>
     <use x="538.476562" xlink:href="#DejaVuSans-72"/>
     <use x="579.589844" xlink:href="#DejaVuSans-20"/>
     <use x="611.376953" xlink:href="#DejaVuSans-66"/>
     <use x="646.582031" xlink:href="#DejaVuSans-72"/>
     <use x="687.695312" xlink:href="#DejaVuSans-61"/>
     <use x="748.974609" xlink:href="#DejaVuSans-63"/>
     <use x="803.955078" xlink:href="#DejaVuSans-74"/>
     <use x="843.164062" xlink:href="#DejaVuSans-69"/>
     <use x="870.947266" xlink:href="#DejaVuSans-6f"/>
     <use x="932.128906" xlink:href="#DejaVuSans-6e"/>
     <use x="995.507812" xlink:href="#DejaVuSans-20"/>
     <use x="1027.294922" xlink:href="#DejaVuSans-28"/>
     <use x="1066.308594" xlink:href="#DejaVuSans-53"/>
     <use x="1129.785156" xlink:href="#DejaVuSans-43"/>
     <use x="1199.609375" xlink:href="#DejaVuSans-46"/>
     <use x="1257.128906" xlink:href="#DejaVuSans-29"/>
     <use x="1296.142578" xlink:href="#DejaVuSans-20"/>
     <use x="1327.929688" xlink:href="#DejaVuSans-63"/>
     <use x="1382.910156" xlink:href="#DejaVuSans-65"/>
     <use x="1444.433594" xlink:href="#DejaVuSans-6c"/>
     <use x="1472.216797" xlink:href="#DejaVuSans-6c"/>
     <use x="1500" xlink:href="#DejaVuSans-3a"/>
     <use x="1533.691406" xlink:href="#DejaVuSans-20"/>
     <use x="1565.478516" xlink:href="#DejaVuSans-63"/>
     <use x="1620.458984" xlink:href="#DejaVuSans-6f"/>
     <use x="1681.640625" xlink:href="#DejaVuSans-72"/>
     <use x="1722.738281" xlink:href="#DejaVuSans-72"/>
     <use x="1763.851562" xlink:href="#DejaVuSans-3d"/>
     <use x="1847.640625" xlink:href="#DejaVuSans-30"/>
     <use x="1911.263672" xlink:href="#DejaVuSans-2e"/>
     <use x="1943.050781" xlink:href="#DejaVuSans-38"/>
     <use x="2006.673828" xlink:href="#DejaVuSans-30"/>
     <use x="2070.296875" xlink:href="#DejaVuSans-2c"/>
     <use x="2102.083984" xlink:href="#DejaVuSans-20"/>
     <use x="2133.871094" xlink:href="#DejaVuSans-70"/>
     <use x="2197.347656" xlink:href="#DejaVuSans-3d"/>
     <use x="2281.136719" xlink:href="#DejaVuSans-32"/>
     <use x="2344.759766" xlink:href="#DejaVuSans-2e"/>
     <use x="2376.546875" xlink:href="#DejaVuSans-31"/>
     <use x="2440.169922" xlink:href="#DejaVuSans-37"/>
     <use x="2503.792969" xlink:href="#DejaVuSans-65"/>
     <use x="2565.316406" xlink:href="#DejaVuSans-2d"/>
     <use x="2601.400391" xlink:href="#DejaVuSans-36"/>
     <use x="2665.023438" xlink:href="#DejaVuSans-36"/>
    </g>
   </g>
   <g id="legend_1">
    <g id="patch_7">
     <path d="M 491.11875 59.674375 
L 578.878125 59.674375 
Q 580.878125 59.674375 580.878125 57.674375 
L 580.878125 29.318125 
Q 580.878125 27.318125 578.878125 27.318125 
L 491.11875 27.318125 
Q 489.11875 27.318125 489.11875 29.318125 
L 489.11875 57.674375 
Q 489.11875 59.674375 491.11875 59.674375 
z
" style="fill:#ffffff;opacity:0.8;stroke:#cccccc;stroke-linejoin:miter;"/>
    </g>
    <g id="line2d_17">
     <path d="M 493.11875 35.416562 
L 513.11875 35.416562 
" style="fill:none;stroke:#1f77b4;stroke-linecap:square;stroke-width:1.5;"/>
    </g>
    <g id="line2d_18"/>
    <g id="text_12">
     <!-- MODIS SCF -->
     <defs>
      <path d="M 9.8125 72.90625 
L 24.515625 72.90625 
L 43.109375 23.296875 
L 61.8125 72.90625 
L 76.515625 72.90625 
L 76.515625 0 
L 66.890625 0 
L 66.890625 64.015625 
L 48.09375 14.015625 
L 38.1875 14.015625 
L 19.390625 64.015625 
L 19.390625 0 
L 9.8125 0 
z
" id="DejaVuSans-4d"/>
      <path d="M 39.40625 66.21875 
Q 28.65625 66.21875 22.328125 58.203125 
Q 16.015625 50.203125 16.015625 36.375 
Q 16.015625 22.609375 22.328125 14.59375 
Q 28.65625 6.59375 39.40625 6.59375 
Q 50.140625 6.59375 56.421875 14.59375 
Q 62.703125 22.609375 62.703125 36.375 
Q 62.703125 50.203125 56.421875 58.203125 
Q 50.140625 66.21875 39.40625 66.21875 
z
M 39.40625 74.21875 
Q 54.734375 74.21875 63.90625 63.9375 
Q 73.09375 53.65625 73.09375 36.375 
Q 73.09375 19.140625 63.90625 8.859375 
Q 54.734375 -1.421875 39.40625 -1.421875 
Q 24.03125 -1.421875 14.8125 8.828125 
Q 5.609375 19.09375 5.609375 36.375 
Q 5.609375 53.65625 14.8125 63.9375 
Q 24.03125 74.21875 39.40625 74.21875 
z
" id="DejaVuSans-4f"/>
      <path d="M 9.8125 72.90625 
L 19.671875 72.90625 
L 19.671875 0 
L 9.8125 0 
z
" id="DejaVuSans-49"/>
     </defs>
     <g transform="translate(521.11875 38.916562)scale(0.1 -0.1)">
      <use xlink:href="#DejaVuSans-4d"/>
      <use x="86.279297" xlink:href="#DejaVuSans-4f"/>
      <use x="164.990234" xlink:href="#DejaVuSans-44"/>
      <use x="241.992188" xlink:href="#DejaVuSans-49"/>
      <use x="271.484375" xlink:href="#DejaVuSans-53"/>
      <use x="334.960938" xlink:href="#DejaVuSans-20"/>
      <use x="366.748047" xlink:href="#DejaVuSans-53"/>
      <use x="430.224609" xlink:href="#DejaVuSans-43"/>
      <use x="500.048828" xlink:href="#DejaVuSans-46"/>
     </g>
    </g>
    <g id="line2d_19">
     <path d="M 493.11875 50.094687 
L 513.11875 50.094687 
" style="fill:none;stroke:#ff7f0e;stroke-linecap:square;stroke-width:1.5;"/>
    </g>
    <g id="line2d_20"/>
    <g id="text_13">
     <!-- LSTM cell -->
     <defs>
      <path d="M 9.8125 72.90625 
L 19.671875 72.90625 
L 19.671875 8.296875 
L 55.171875 8.296875 
L 55.171875 0 
L 9.8125 0 
z
" id="DejaVuSans-4c"/>
      <path d="M -0.296875 72.90625 
L 61.375 72.90625 
L 61.375 64.59375 
L 35.5 64.59375 
L 35.5 0 
L 25.59375 0 
L 25.59375 64.59375 
L -0.296875 64.59375 
z
" id="DejaVuSans-54"/>
     </defs>
     <g transform="translate(521.11875 53.594687)scale(0.1 -0.1)">
      <use xlink:href="#DejaVuSans-4c"/>
      <use x="55.712891" xlink:href="#DejaVuSans-53"/>
      <use x="119.189453" xlink:href="#DejaVuSans-54"/>
      <use x="180.273438" xlink:href="#DejaVuSans-4d"/>
      <use x="266.552734" xlink:href="#DejaVuSans-20"/>
      <use x="298.339844" xlink:href="#DejaVuSans-63"/>
      <use x="353.320312" xlink:href="#DejaVuSans-65"/>
      <use x="414.84375" xlink:href="#DejaVuSans-6c"/>
      <use x="442.626953" xlink:href="#DejaVuSans-6c"/>
     </g>
    </g>
   </g>
  </g>
 </g>
 <defs>
  <clipPath id="p7a833f5d2d">
   <rect height="221.76" width="558" x="27.878125" y="22.318125"/>
  </clipPath>
 </defs>
</svg>
